<mxfile host="Electron" modified="2024-06-04T15:29:11.220Z" agent="Mozilla/5.0 (Windows NT 10.0; Win64; x64) AppleWebKit/537.36 (KHTML, like Gecko) draw.io/22.1.2 Chrome/114.0.5735.289 Electron/25.9.4 Safari/537.36" etag="OX93v7eonGz_noSIBE23" version="22.1.2" type="device" pages="9">
  <diagram id="ebl0cLZvyARZG3ROMr-w" name="TOP_IO">
    <mxGraphModel dx="1036" dy="654" grid="1" gridSize="10" guides="1" tooltips="1" connect="1" arrows="1" fold="1" page="1" pageScale="1" pageWidth="850" pageHeight="1100" math="0" shadow="0">
      <root>
        <mxCell id="0" />
        <mxCell id="1" parent="0" />
        <mxCell id="UowgF35W5neyPo5fWP8k-14" style="edgeStyle=orthogonalEdgeStyle;rounded=0;orthogonalLoop=1;jettySize=auto;html=1;exitX=1;exitY=0.25;exitDx=0;exitDy=0;" parent="1" source="eH5HDT9WS7yBHexfwS-F-1" edge="1">
          <mxGeometry relative="1" as="geometry">
            <mxPoint x="680" y="450" as="targetPoint" />
          </mxGeometry>
        </mxCell>
        <mxCell id="UowgF35W5neyPo5fWP8k-15" style="edgeStyle=orthogonalEdgeStyle;rounded=0;orthogonalLoop=1;jettySize=auto;html=1;exitX=1;exitY=0.5;exitDx=0;exitDy=0;" parent="1" source="eH5HDT9WS7yBHexfwS-F-1" edge="1">
          <mxGeometry relative="1" as="geometry">
            <mxPoint x="680" y="570" as="targetPoint" />
          </mxGeometry>
        </mxCell>
        <mxCell id="UowgF35W5neyPo5fWP8k-16" style="edgeStyle=orthogonalEdgeStyle;rounded=0;orthogonalLoop=1;jettySize=auto;html=1;exitX=1;exitY=0.75;exitDx=0;exitDy=0;" parent="1" source="eH5HDT9WS7yBHexfwS-F-1" edge="1">
          <mxGeometry relative="1" as="geometry">
            <mxPoint x="680" y="690" as="targetPoint" />
          </mxGeometry>
        </mxCell>
        <mxCell id="eH5HDT9WS7yBHexfwS-F-1" value="&lt;font style=&quot;font-size: 24px;&quot;&gt;TOP_WHIRLPOOL&lt;/font&gt;" style="rounded=0;whiteSpace=wrap;html=1;" parent="1" vertex="1">
          <mxGeometry x="240" y="330" width="320" height="480" as="geometry" />
        </mxCell>
        <mxCell id="UowgF35W5neyPo5fWP8k-1" value="" style="endArrow=classic;html=1;rounded=0;entryX=-0.001;entryY=0.165;entryDx=0;entryDy=0;entryPerimeter=0;fontSize=15;" parent="1" target="eH5HDT9WS7yBHexfwS-F-1" edge="1">
          <mxGeometry width="50" height="50" relative="1" as="geometry">
            <mxPoint x="120" y="410" as="sourcePoint" />
            <mxPoint x="230" y="480" as="targetPoint" />
          </mxGeometry>
        </mxCell>
        <mxCell id="UowgF35W5neyPo5fWP8k-3" value="&lt;font style=&quot;font-size: 16px;&quot;&gt;i_clk&lt;/font&gt;" style="text;html=1;strokeColor=none;fillColor=none;align=center;verticalAlign=middle;whiteSpace=wrap;rounded=0;" parent="1" vertex="1">
          <mxGeometry x="120" y="380" width="60" height="30" as="geometry" />
        </mxCell>
        <mxCell id="UowgF35W5neyPo5fWP8k-4" value="" style="endArrow=classic;html=1;rounded=0;entryX=-0.001;entryY=0.165;entryDx=0;entryDy=0;entryPerimeter=0;fontSize=15;" parent="1" edge="1">
          <mxGeometry width="50" height="50" relative="1" as="geometry">
            <mxPoint x="120" y="470" as="sourcePoint" />
            <mxPoint x="240" y="469" as="targetPoint" />
          </mxGeometry>
        </mxCell>
        <mxCell id="UowgF35W5neyPo5fWP8k-5" value="&lt;font style=&quot;font-size: 16px;&quot;&gt;i_rstn&lt;/font&gt;" style="text;html=1;strokeColor=none;fillColor=none;align=center;verticalAlign=middle;whiteSpace=wrap;rounded=0;" parent="1" vertex="1">
          <mxGeometry x="120" y="440" width="60" height="30" as="geometry" />
        </mxCell>
        <mxCell id="UowgF35W5neyPo5fWP8k-6" value="" style="endArrow=classic;html=1;rounded=0;entryX=-0.001;entryY=0.165;entryDx=0;entryDy=0;entryPerimeter=0;fontSize=15;" parent="1" edge="1">
          <mxGeometry width="50" height="50" relative="1" as="geometry">
            <mxPoint x="120" y="530" as="sourcePoint" />
            <mxPoint x="240" y="529" as="targetPoint" />
          </mxGeometry>
        </mxCell>
        <mxCell id="UowgF35W5neyPo5fWP8k-7" value="&lt;font style=&quot;font-size: 16px;&quot;&gt;i_pass_valid&lt;/font&gt;" style="text;html=1;strokeColor=none;fillColor=none;align=center;verticalAlign=middle;whiteSpace=wrap;rounded=0;" parent="1" vertex="1">
          <mxGeometry x="120" y="500" width="100" height="30" as="geometry" />
        </mxCell>
        <mxCell id="UowgF35W5neyPo5fWP8k-8" value="" style="endArrow=classic;html=1;rounded=0;entryX=-0.001;entryY=0.165;entryDx=0;entryDy=0;entryPerimeter=0;fontSize=15;" parent="1" edge="1">
          <mxGeometry width="50" height="50" relative="1" as="geometry">
            <mxPoint x="120" y="590" as="sourcePoint" />
            <mxPoint x="240" y="589" as="targetPoint" />
          </mxGeometry>
        </mxCell>
        <mxCell id="UowgF35W5neyPo5fWP8k-9" value="&lt;font style=&quot;font-size: 16px;&quot;&gt;i_ena_hash&lt;/font&gt;" style="text;html=1;strokeColor=none;fillColor=none;align=center;verticalAlign=middle;whiteSpace=wrap;rounded=0;" parent="1" vertex="1">
          <mxGeometry x="120" y="560" width="100" height="30" as="geometry" />
        </mxCell>
        <mxCell id="UowgF35W5neyPo5fWP8k-10" value="" style="endArrow=classic;html=1;rounded=0;entryX=-0.001;entryY=0.165;entryDx=0;entryDy=0;entryPerimeter=0;fontSize=15;" parent="1" edge="1">
          <mxGeometry width="50" height="50" relative="1" as="geometry">
            <mxPoint x="120" y="690" as="sourcePoint" />
            <mxPoint x="240" y="689" as="targetPoint" />
          </mxGeometry>
        </mxCell>
        <mxCell id="UowgF35W5neyPo5fWP8k-11" value="&lt;font style=&quot;font-size: 16px;&quot;&gt;i_salt&lt;/font&gt;" style="text;html=1;strokeColor=none;fillColor=none;align=center;verticalAlign=middle;whiteSpace=wrap;rounded=0;" parent="1" vertex="1">
          <mxGeometry x="120" y="660" width="60" height="30" as="geometry" />
        </mxCell>
        <mxCell id="UowgF35W5neyPo5fWP8k-12" value="" style="endArrow=classic;html=1;rounded=0;entryX=-0.001;entryY=0.165;entryDx=0;entryDy=0;entryPerimeter=0;fontSize=15;" parent="1" edge="1">
          <mxGeometry width="50" height="50" relative="1" as="geometry">
            <mxPoint x="120" y="750" as="sourcePoint" />
            <mxPoint x="240" y="749" as="targetPoint" />
          </mxGeometry>
        </mxCell>
        <mxCell id="UowgF35W5neyPo5fWP8k-13" value="&lt;font style=&quot;font-size: 16px;&quot;&gt;i_pass&lt;/font&gt;" style="text;html=1;strokeColor=none;fillColor=none;align=center;verticalAlign=middle;whiteSpace=wrap;rounded=0;" parent="1" vertex="1">
          <mxGeometry x="120" y="720" width="70" height="30" as="geometry" />
        </mxCell>
        <mxCell id="UowgF35W5neyPo5fWP8k-17" value="&lt;font style=&quot;font-size: 16px;&quot;&gt;o_pass&lt;/font&gt;" style="text;html=1;strokeColor=none;fillColor=none;align=center;verticalAlign=middle;whiteSpace=wrap;rounded=0;" parent="1" vertex="1">
          <mxGeometry x="570" y="420" width="60" height="30" as="geometry" />
        </mxCell>
        <mxCell id="UowgF35W5neyPo5fWP8k-18" value="&lt;span style=&quot;font-size: 16px;&quot;&gt;o_key_valid&lt;/span&gt;" style="text;html=1;strokeColor=none;fillColor=none;align=center;verticalAlign=middle;whiteSpace=wrap;rounded=0;rotation=0;" parent="1" vertex="1">
          <mxGeometry x="570" y="540" width="90" height="30" as="geometry" />
        </mxCell>
        <mxCell id="UowgF35W5neyPo5fWP8k-19" value="&lt;span style=&quot;font-size: 16px;&quot;&gt;o_key&lt;/span&gt;" style="text;html=1;strokeColor=none;fillColor=none;align=center;verticalAlign=middle;whiteSpace=wrap;rounded=0;" parent="1" vertex="1">
          <mxGeometry x="570" y="650" width="60" height="30" as="geometry" />
        </mxCell>
        <mxCell id="UowgF35W5neyPo5fWP8k-20" value="" style="endArrow=none;html=1;rounded=0;" parent="1" edge="1">
          <mxGeometry width="50" height="50" relative="1" as="geometry">
            <mxPoint x="200" y="700" as="sourcePoint" />
            <mxPoint x="220" y="680" as="targetPoint" />
          </mxGeometry>
        </mxCell>
        <mxCell id="UowgF35W5neyPo5fWP8k-21" value="512" style="text;html=1;strokeColor=none;fillColor=none;align=center;verticalAlign=middle;whiteSpace=wrap;rounded=0;" parent="1" vertex="1">
          <mxGeometry x="180" y="660" width="60" height="20" as="geometry" />
        </mxCell>
        <mxCell id="UowgF35W5neyPo5fWP8k-22" value="" style="endArrow=none;html=1;rounded=0;" parent="1" edge="1">
          <mxGeometry width="50" height="50" relative="1" as="geometry">
            <mxPoint x="200" y="760" as="sourcePoint" />
            <mxPoint x="220" y="740" as="targetPoint" />
          </mxGeometry>
        </mxCell>
        <mxCell id="UowgF35W5neyPo5fWP8k-23" value="192" style="text;html=1;strokeColor=none;fillColor=none;align=center;verticalAlign=middle;whiteSpace=wrap;rounded=0;" parent="1" vertex="1">
          <mxGeometry x="180" y="720" width="60" height="20" as="geometry" />
        </mxCell>
        <mxCell id="UowgF35W5neyPo5fWP8k-24" value="" style="endArrow=none;html=1;rounded=0;" parent="1" edge="1">
          <mxGeometry width="50" height="50" relative="1" as="geometry">
            <mxPoint x="650" y="700" as="sourcePoint" />
            <mxPoint x="670" y="680" as="targetPoint" />
          </mxGeometry>
        </mxCell>
        <mxCell id="UowgF35W5neyPo5fWP8k-25" value="512" style="text;html=1;strokeColor=none;fillColor=none;align=center;verticalAlign=middle;whiteSpace=wrap;rounded=0;" parent="1" vertex="1">
          <mxGeometry x="630" y="660" width="60" height="20" as="geometry" />
        </mxCell>
        <mxCell id="UowgF35W5neyPo5fWP8k-26" value="" style="endArrow=none;html=1;rounded=0;" parent="1" edge="1">
          <mxGeometry width="50" height="50" relative="1" as="geometry">
            <mxPoint x="650" y="460" as="sourcePoint" />
            <mxPoint x="670" y="440" as="targetPoint" />
          </mxGeometry>
        </mxCell>
        <mxCell id="UowgF35W5neyPo5fWP8k-27" value="192" style="text;html=1;strokeColor=none;fillColor=none;align=center;verticalAlign=middle;whiteSpace=wrap;rounded=0;" parent="1" vertex="1">
          <mxGeometry x="630" y="420" width="60" height="20" as="geometry" />
        </mxCell>
      </root>
    </mxGraphModel>
  </diagram>
  <diagram id="UIgOx-b8gV_CrZYu_0Kq" name="TOP">
    <mxGraphModel dx="1034" dy="1189" grid="1" gridSize="10" guides="1" tooltips="1" connect="1" arrows="1" fold="1" page="1" pageScale="1" pageWidth="850" pageHeight="1100" math="0" shadow="0">
      <root>
        <mxCell id="0" />
        <mxCell id="1" parent="0" />
        <mxCell id="EERv8lGTEq6yZsFL_x0A-183" value="TOP_WHIRLPOOL" style="swimlane;whiteSpace=wrap;html=1;rounded=0;fillColor=#fa6800;fontColor=#FFFFFF;strokeColor=#C73500;" parent="1" vertex="1">
          <mxGeometry x="1110" y="150" width="1270" height="830" as="geometry">
            <mxRectangle x="-660" y="160" width="190" height="30" as="alternateBounds" />
          </mxGeometry>
        </mxCell>
        <mxCell id="EERv8lGTEq6yZsFL_x0A-348" value="" style="endArrow=none;html=1;rounded=0;" parent="EERv8lGTEq6yZsFL_x0A-183" edge="1">
          <mxGeometry width="50" height="50" relative="1" as="geometry">
            <mxPoint y="150" as="sourcePoint" />
            <mxPoint x="1270" y="150" as="targetPoint" />
          </mxGeometry>
        </mxCell>
        <mxCell id="EERv8lGTEq6yZsFL_x0A-349" style="edgeStyle=orthogonalEdgeStyle;rounded=0;orthogonalLoop=1;jettySize=auto;html=1;fillColor=#0050ef;strokeColor=#001DBC;dashed=1;dashPattern=8 8;exitX=1;exitY=0.75;exitDx=0;exitDy=0;" parent="EERv8lGTEq6yZsFL_x0A-183" source="iDNC_NiisuIVi_G4rgwU-2" edge="1">
          <mxGeometry relative="1" as="geometry">
            <mxPoint x="930" y="350" as="targetPoint" />
            <Array as="points">
              <mxPoint x="790" y="285" />
              <mxPoint x="790" y="350" />
            </Array>
            <mxPoint x="760" y="275.0526315789475" as="sourcePoint" />
          </mxGeometry>
        </mxCell>
        <mxCell id="EERv8lGTEq6yZsFL_x0A-350" style="edgeStyle=orthogonalEdgeStyle;rounded=0;orthogonalLoop=1;jettySize=auto;html=1;exitX=1;exitY=0.25;exitDx=0;exitDy=0;fillColor=#0050ef;strokeColor=#001DBC;dashed=1;dashPattern=8 8;entryX=0;entryY=0.5;entryDx=0;entryDy=0;" parent="EERv8lGTEq6yZsFL_x0A-183" source="iDNC_NiisuIVi_G4rgwU-2" edge="1" target="iDNC_NiisuIVi_G4rgwU-4">
          <mxGeometry relative="1" as="geometry">
            <mxPoint x="900" y="310" as="targetPoint" />
            <Array as="points">
              <mxPoint x="820" y="235" />
              <mxPoint x="820" y="310" />
            </Array>
            <mxPoint x="760" y="227.5" as="sourcePoint" />
          </mxGeometry>
        </mxCell>
        <mxCell id="EERv8lGTEq6yZsFL_x0A-352" value="" style="endArrow=oval;html=1;rounded=0;fillColor=#e51400;strokeColor=#B20000;dashed=1;dashPattern=8 8;endFill=0;exitX=1;exitY=1;exitDx=0;exitDy=0;" parent="EERv8lGTEq6yZsFL_x0A-183" source="EERv8lGTEq6yZsFL_x0A-416" edge="1">
          <mxGeometry width="50" height="50" relative="1" as="geometry">
            <mxPoint x="20" y="30" as="sourcePoint" />
            <mxPoint x="110" y="130" as="targetPoint" />
            <Array as="points">
              <mxPoint x="110" y="70" />
            </Array>
          </mxGeometry>
        </mxCell>
        <mxCell id="EERv8lGTEq6yZsFL_x0A-421" style="edgeStyle=orthogonalEdgeStyle;rounded=0;orthogonalLoop=1;jettySize=auto;html=1;entryX=0.25;entryY=1;entryDx=0;entryDy=0;fillColor=#0050ef;strokeColor=#001DBC;dashed=1;dashPattern=8 8;" parent="EERv8lGTEq6yZsFL_x0A-183" source="EERv8lGTEq6yZsFL_x0A-353" target="EERv8lGTEq6yZsFL_x0A-362" edge="1">
          <mxGeometry relative="1" as="geometry">
            <Array as="points">
              <mxPoint x="270" y="220" />
              <mxPoint x="270" y="265" />
            </Array>
          </mxGeometry>
        </mxCell>
        <mxCell id="EERv8lGTEq6yZsFL_x0A-353" value="" style="shape=trapezoid;perimeter=trapezoidPerimeter;whiteSpace=wrap;html=1;fixedSize=1;rotation=90;" parent="EERv8lGTEq6yZsFL_x0A-183" vertex="1">
          <mxGeometry x="165" y="200" width="90" height="40" as="geometry" />
        </mxCell>
        <mxCell id="EERv8lGTEq6yZsFL_x0A-354" value="11" style="text;html=1;strokeColor=none;fillColor=none;align=center;verticalAlign=middle;whiteSpace=wrap;rounded=0;" parent="EERv8lGTEq6yZsFL_x0A-183" vertex="1">
          <mxGeometry x="190" y="200" width="40" height="40" as="geometry" />
        </mxCell>
        <mxCell id="EERv8lGTEq6yZsFL_x0A-355" value="" style="endArrow=classic;html=1;rounded=0;entryX=0;entryY=0.25;entryDx=0;entryDy=0;fillColor=#0050ef;strokeColor=#001DBC;dashed=1;dashPattern=8 8;" parent="EERv8lGTEq6yZsFL_x0A-183" edge="1">
          <mxGeometry width="50" height="50" relative="1" as="geometry">
            <mxPoint x="150" y="220" as="sourcePoint" />
            <mxPoint x="190" y="220" as="targetPoint" />
          </mxGeometry>
        </mxCell>
        <mxCell id="EERv8lGTEq6yZsFL_x0A-356" value="0" style="text;html=1;strokeColor=none;fillColor=none;align=center;verticalAlign=middle;whiteSpace=wrap;rounded=0;" parent="EERv8lGTEq6yZsFL_x0A-183" vertex="1">
          <mxGeometry x="140" y="200" width="50" height="20" as="geometry" />
        </mxCell>
        <mxCell id="EERv8lGTEq6yZsFL_x0A-357" style="edgeStyle=orthogonalEdgeStyle;rounded=0;orthogonalLoop=1;jettySize=auto;html=1;fillColor=#e51400;strokeColor=#B20000;endArrow=oval;endFill=0;dashed=1;dashPattern=8 8;" parent="EERv8lGTEq6yZsFL_x0A-183" source="EERv8lGTEq6yZsFL_x0A-358" edge="1">
          <mxGeometry relative="1" as="geometry">
            <mxPoint x="480" y="60" as="targetPoint" />
            <Array as="points">
              <mxPoint x="340" y="60" />
            </Array>
          </mxGeometry>
        </mxCell>
        <mxCell id="EERv8lGTEq6yZsFL_x0A-358" value="state" style="rounded=1;whiteSpace=wrap;html=1;" parent="EERv8lGTEq6yZsFL_x0A-183" vertex="1">
          <mxGeometry x="300" y="180" width="80" height="40" as="geometry" />
        </mxCell>
        <mxCell id="EERv8lGTEq6yZsFL_x0A-359" value="" style="endArrow=classic;html=1;rounded=0;entryX=0;entryY=0.25;entryDx=0;entryDy=0;fillColor=#0050ef;strokeColor=#001DBC;dashed=1;dashPattern=8 8;" parent="EERv8lGTEq6yZsFL_x0A-183" edge="1" target="iDNC_NiisuIVi_G4rgwU-2">
          <mxGeometry width="50" height="50" relative="1" as="geometry">
            <mxPoint x="530" y="235" as="sourcePoint" />
            <mxPoint x="570" y="230" as="targetPoint" />
          </mxGeometry>
        </mxCell>
        <mxCell id="EERv8lGTEq6yZsFL_x0A-360" value="init" style="text;html=1;strokeColor=none;fillColor=none;align=center;verticalAlign=middle;whiteSpace=wrap;rounded=0;" parent="EERv8lGTEq6yZsFL_x0A-183" vertex="1">
          <mxGeometry x="530" y="210" width="50" height="20" as="geometry" />
        </mxCell>
        <mxCell id="EERv8lGTEq6yZsFL_x0A-361" style="edgeStyle=orthogonalEdgeStyle;rounded=0;orthogonalLoop=1;jettySize=auto;html=1;entryX=0;entryY=0.75;entryDx=0;entryDy=0;fillColor=#0050ef;strokeColor=#001DBC;dashed=1;dashPattern=8 8;" parent="EERv8lGTEq6yZsFL_x0A-183" source="EERv8lGTEq6yZsFL_x0A-362" target="iDNC_NiisuIVi_G4rgwU-2" edge="1">
          <mxGeometry relative="1" as="geometry">
            <mxPoint x="570" y="275" as="targetPoint" />
          </mxGeometry>
        </mxCell>
        <mxCell id="EERv8lGTEq6yZsFL_x0A-362" value="" style="shape=trapezoid;perimeter=trapezoidPerimeter;whiteSpace=wrap;html=1;fixedSize=1;rotation=90;" parent="EERv8lGTEq6yZsFL_x0A-183" vertex="1">
          <mxGeometry x="380" y="270" width="80" height="30" as="geometry" />
        </mxCell>
        <mxCell id="EERv8lGTEq6yZsFL_x0A-363" value="" style="endArrow=classic;html=1;rounded=0;fillColor=#e51400;strokeColor=#B20000;dashed=1;dashPattern=8 8;entryX=0;entryY=0.5;entryDx=0;entryDy=0;" parent="EERv8lGTEq6yZsFL_x0A-183" target="EERv8lGTEq6yZsFL_x0A-353" edge="1">
          <mxGeometry width="50" height="50" relative="1" as="geometry">
            <mxPoint x="110" y="130" as="sourcePoint" />
            <mxPoint x="170" y="210" as="targetPoint" />
            <Array as="points">
              <mxPoint x="210" y="130" />
            </Array>
          </mxGeometry>
        </mxCell>
        <mxCell id="EERv8lGTEq6yZsFL_x0A-364" value="" style="endArrow=classic;html=1;rounded=0;entryX=0.75;entryY=1;entryDx=0;entryDy=0;endFill=1;dashed=1;dashPattern=8 8;startArrow=oval;startFill=1;fillColor=#0050ef;strokeColor=#001DBC;" parent="EERv8lGTEq6yZsFL_x0A-183" target="EERv8lGTEq6yZsFL_x0A-362" edge="1">
          <mxGeometry width="50" height="50" relative="1" as="geometry">
            <mxPoint x="450" y="761.6551892510776" as="sourcePoint" />
            <mxPoint x="395" y="360.0000000000001" as="targetPoint" />
            <Array as="points">
              <mxPoint x="200" y="760" />
              <mxPoint x="200" y="305" />
            </Array>
          </mxGeometry>
        </mxCell>
        <mxCell id="EERv8lGTEq6yZsFL_x0A-365" value="" style="endArrow=classic;html=1;rounded=0;entryX=0;entryY=0.5;entryDx=0;entryDy=0;fillColor=#e51400;strokeColor=#B20000;dashed=1;dashPattern=8 8;" parent="EERv8lGTEq6yZsFL_x0A-183" target="EERv8lGTEq6yZsFL_x0A-362" edge="1">
          <mxGeometry width="50" height="50" relative="1" as="geometry">
            <mxPoint x="480" y="60" as="sourcePoint" />
            <mxPoint x="620" y="420" as="targetPoint" />
            <Array as="points">
              <mxPoint x="480" y="110" />
              <mxPoint x="420" y="110" />
            </Array>
          </mxGeometry>
        </mxCell>
        <mxCell id="EERv8lGTEq6yZsFL_x0A-369" value="" style="shape=trapezoid;perimeter=trapezoidPerimeter;whiteSpace=wrap;html=1;fixedSize=1;rotation=90;" parent="EERv8lGTEq6yZsFL_x0A-183" vertex="1">
          <mxGeometry x="50" y="530" width="120" height="40" as="geometry" />
        </mxCell>
        <mxCell id="EERv8lGTEq6yZsFL_x0A-370" style="edgeStyle=orthogonalEdgeStyle;rounded=0;orthogonalLoop=1;jettySize=auto;html=1;entryX=0;entryY=0.5;entryDx=0;entryDy=0;entryPerimeter=0;fillColor=#0050ef;strokeColor=#001DBC;dashed=1;dashPattern=8 8;" parent="EERv8lGTEq6yZsFL_x0A-183" source="EERv8lGTEq6yZsFL_x0A-369" target="EERv8lGTEq6yZsFL_x0A-375" edge="1">
          <mxGeometry relative="1" as="geometry">
            <Array as="points">
              <mxPoint x="240" y="550" />
              <mxPoint x="240" y="450" />
            </Array>
          </mxGeometry>
        </mxCell>
        <mxCell id="EERv8lGTEq6yZsFL_x0A-371" value="11" style="text;html=1;strokeColor=none;fillColor=none;align=center;verticalAlign=middle;whiteSpace=wrap;rounded=0;" parent="EERv8lGTEq6yZsFL_x0A-183" vertex="1">
          <mxGeometry x="90" y="560" width="40" height="40" as="geometry" />
        </mxCell>
        <mxCell id="EERv8lGTEq6yZsFL_x0A-372" value="ikey_pad" style="rounded=1;whiteSpace=wrap;html=1;" parent="EERv8lGTEq6yZsFL_x0A-183" vertex="1">
          <mxGeometry x="340" y="430" width="80" height="40" as="geometry" />
        </mxCell>
        <mxCell id="EERv8lGTEq6yZsFL_x0A-373" value="okey_pad" style="rounded=1;whiteSpace=wrap;html=1;" parent="EERv8lGTEq6yZsFL_x0A-183" vertex="1">
          <mxGeometry x="340" y="540" width="80" height="40" as="geometry" />
        </mxCell>
        <mxCell id="EERv8lGTEq6yZsFL_x0A-374" style="edgeStyle=orthogonalEdgeStyle;rounded=0;orthogonalLoop=1;jettySize=auto;html=1;exitX=1;exitY=0.5;exitDx=0;exitDy=0;exitPerimeter=0;entryX=0;entryY=0.5;entryDx=0;entryDy=0;fillColor=#0050ef;strokeColor=#001DBC;dashed=1;dashPattern=8 8;" parent="EERv8lGTEq6yZsFL_x0A-183" source="EERv8lGTEq6yZsFL_x0A-375" target="EERv8lGTEq6yZsFL_x0A-372" edge="1">
          <mxGeometry relative="1" as="geometry" />
        </mxCell>
        <mxCell id="EERv8lGTEq6yZsFL_x0A-375" value="" style="verticalLabelPosition=bottom;verticalAlign=top;html=1;shape=mxgraph.flowchart.summing_function;" parent="EERv8lGTEq6yZsFL_x0A-183" vertex="1">
          <mxGeometry x="280" y="440" width="20" height="20" as="geometry" />
        </mxCell>
        <mxCell id="EERv8lGTEq6yZsFL_x0A-376" style="edgeStyle=orthogonalEdgeStyle;rounded=0;orthogonalLoop=1;jettySize=auto;html=1;entryX=0;entryY=0.5;entryDx=0;entryDy=0;fillColor=#0050ef;strokeColor=#001DBC;dashed=1;dashPattern=8 8;" parent="EERv8lGTEq6yZsFL_x0A-183" source="EERv8lGTEq6yZsFL_x0A-377" target="EERv8lGTEq6yZsFL_x0A-373" edge="1">
          <mxGeometry relative="1" as="geometry" />
        </mxCell>
        <mxCell id="EERv8lGTEq6yZsFL_x0A-377" value="" style="verticalLabelPosition=bottom;verticalAlign=top;html=1;shape=mxgraph.flowchart.summing_function;" parent="EERv8lGTEq6yZsFL_x0A-183" vertex="1">
          <mxGeometry x="280" y="580" width="20" height="20" as="geometry" />
        </mxCell>
        <mxCell id="EERv8lGTEq6yZsFL_x0A-378" value="" style="verticalLabelPosition=bottom;verticalAlign=top;html=1;shape=mxgraph.flowchart.summing_function;" parent="EERv8lGTEq6yZsFL_x0A-183" vertex="1">
          <mxGeometry x="220" y="590" height="40" as="geometry" />
        </mxCell>
        <mxCell id="EERv8lGTEq6yZsFL_x0A-379" value="8&#39;h5c" style="text;html=1;strokeColor=none;fillColor=none;align=center;verticalAlign=middle;whiteSpace=wrap;rounded=0;" parent="EERv8lGTEq6yZsFL_x0A-183" vertex="1">
          <mxGeometry x="260" y="630" width="60" height="20" as="geometry" />
        </mxCell>
        <mxCell id="EERv8lGTEq6yZsFL_x0A-380" value="" style="endArrow=classic;html=1;rounded=0;exitX=0.5;exitY=0;exitDx=0;exitDy=0;entryX=0.5;entryY=1;entryDx=0;entryDy=0;entryPerimeter=0;fillColor=#0050ef;strokeColor=#001DBC;dashed=1;dashPattern=8 8;" parent="EERv8lGTEq6yZsFL_x0A-183" source="EERv8lGTEq6yZsFL_x0A-379" target="EERv8lGTEq6yZsFL_x0A-377" edge="1">
          <mxGeometry width="50" height="50" relative="1" as="geometry">
            <mxPoint x="230" y="640" as="sourcePoint" />
            <mxPoint x="280" y="590" as="targetPoint" />
          </mxGeometry>
        </mxCell>
        <mxCell id="EERv8lGTEq6yZsFL_x0A-381" value="8&#39;h36" style="text;html=1;strokeColor=none;fillColor=none;align=center;verticalAlign=middle;whiteSpace=wrap;rounded=0;" parent="EERv8lGTEq6yZsFL_x0A-183" vertex="1">
          <mxGeometry x="260" y="390" width="60" height="20" as="geometry" />
        </mxCell>
        <mxCell id="EERv8lGTEq6yZsFL_x0A-382" style="edgeStyle=orthogonalEdgeStyle;rounded=0;orthogonalLoop=1;jettySize=auto;html=1;entryX=0.5;entryY=0;entryDx=0;entryDy=0;entryPerimeter=0;fillColor=#0050ef;strokeColor=#001DBC;dashed=1;dashPattern=8 8;" parent="EERv8lGTEq6yZsFL_x0A-183" target="EERv8lGTEq6yZsFL_x0A-375" edge="1">
          <mxGeometry relative="1" as="geometry">
            <mxPoint x="290" y="410" as="sourcePoint" />
            <Array as="points">
              <mxPoint x="290" y="410" />
            </Array>
          </mxGeometry>
        </mxCell>
        <mxCell id="EERv8lGTEq6yZsFL_x0A-383" value="" style="shape=trapezoid;perimeter=trapezoidPerimeter;whiteSpace=wrap;html=1;fixedSize=1;rotation=89;" parent="EERv8lGTEq6yZsFL_x0A-183" vertex="1">
          <mxGeometry x="650" y="490" width="120" height="40" as="geometry" />
        </mxCell>
        <mxCell id="EERv8lGTEq6yZsFL_x0A-385" style="edgeStyle=orthogonalEdgeStyle;rounded=0;orthogonalLoop=1;jettySize=auto;html=1;entryX=0.25;entryY=1;entryDx=0;entryDy=0;fillColor=#0050ef;strokeColor=#001DBC;dashed=1;dashPattern=8 8;" parent="EERv8lGTEq6yZsFL_x0A-183" source="EERv8lGTEq6yZsFL_x0A-372" target="EERv8lGTEq6yZsFL_x0A-383" edge="1">
          <mxGeometry relative="1" as="geometry">
            <Array as="points">
              <mxPoint x="490" y="450" />
              <mxPoint x="490" y="480" />
            </Array>
          </mxGeometry>
        </mxCell>
        <mxCell id="EERv8lGTEq6yZsFL_x0A-384" style="edgeStyle=orthogonalEdgeStyle;rounded=0;orthogonalLoop=1;jettySize=auto;html=1;entryX=0.409;entryY=0.995;entryDx=0;entryDy=0;fillColor=#0050ef;strokeColor=#001DBC;dashed=1;dashPattern=8 8;entryPerimeter=0;" parent="EERv8lGTEq6yZsFL_x0A-183" source="EERv8lGTEq6yZsFL_x0A-373" target="EERv8lGTEq6yZsFL_x0A-383" edge="1">
          <mxGeometry relative="1" as="geometry">
            <Array as="points">
              <mxPoint x="490" y="560" />
              <mxPoint x="490" y="499" />
            </Array>
          </mxGeometry>
        </mxCell>
        <mxCell id="EERv8lGTEq6yZsFL_x0A-386" value="" style="verticalLabelPosition=bottom;verticalAlign=top;html=1;shape=mxgraph.flowchart.summing_function;" parent="EERv8lGTEq6yZsFL_x0A-183" vertex="1">
          <mxGeometry x="220" y="430" height="40" as="geometry" />
        </mxCell>
        <mxCell id="EERv8lGTEq6yZsFL_x0A-387" value="" style="endArrow=classic;html=1;rounded=0;fillColor=#0050ef;strokeColor=#001DBC;dashed=1;dashPattern=8 8;entryX=0;entryY=0.5;entryDx=0;entryDy=0;entryPerimeter=0;" parent="EERv8lGTEq6yZsFL_x0A-183" target="EERv8lGTEq6yZsFL_x0A-377" edge="1">
          <mxGeometry width="50" height="50" relative="1" as="geometry">
            <mxPoint x="240" y="550" as="sourcePoint" />
            <mxPoint x="270" y="590" as="targetPoint" />
            <Array as="points">
              <mxPoint x="240" y="590" />
            </Array>
          </mxGeometry>
        </mxCell>
        <mxCell id="EERv8lGTEq6yZsFL_x0A-388" style="edgeStyle=orthogonalEdgeStyle;rounded=0;orthogonalLoop=1;jettySize=auto;html=1;dashed=1;dashPattern=8 8;fillColor=#0050ef;strokeColor=#001DBC;" parent="EERv8lGTEq6yZsFL_x0A-183" source="EERv8lGTEq6yZsFL_x0A-389" edge="1">
          <mxGeometry relative="1" as="geometry">
            <mxPoint x="930" y="390" as="targetPoint" />
          </mxGeometry>
        </mxCell>
        <mxCell id="EERv8lGTEq6yZsFL_x0A-389" value="data" style="rounded=1;whiteSpace=wrap;html=1;" parent="EERv8lGTEq6yZsFL_x0A-183" vertex="1">
          <mxGeometry x="810" y="370" width="60" height="40" as="geometry" />
        </mxCell>
        <mxCell id="EERv8lGTEq6yZsFL_x0A-390" style="edgeStyle=orthogonalEdgeStyle;rounded=0;orthogonalLoop=1;jettySize=auto;html=1;entryX=0;entryY=0.5;entryDx=0;entryDy=0;dashed=1;dashPattern=8 8;fillColor=#0050ef;strokeColor=#001DBC;exitX=0.5;exitY=0;exitDx=0;exitDy=0;" parent="EERv8lGTEq6yZsFL_x0A-183" source="EERv8lGTEq6yZsFL_x0A-383" target="EERv8lGTEq6yZsFL_x0A-389" edge="1">
          <mxGeometry relative="1" as="geometry">
            <Array as="points">
              <mxPoint x="750" y="510" />
              <mxPoint x="790" y="510" />
              <mxPoint x="790" y="390" />
            </Array>
          </mxGeometry>
        </mxCell>
        <mxCell id="EERv8lGTEq6yZsFL_x0A-391" value="" style="endArrow=classic;html=1;rounded=0;entryX=-0.003;entryY=0.302;entryDx=0;entryDy=0;fillColor=#0050ef;strokeColor=#001DBC;dashed=1;dashPattern=8 8;entryPerimeter=0;" parent="EERv8lGTEq6yZsFL_x0A-183" target="iDNC_NiisuIVi_G4rgwU-4" edge="1">
          <mxGeometry width="50" height="50" relative="1" as="geometry">
            <mxPoint x="855" y="269.6299999999999" as="sourcePoint" />
            <mxPoint x="900" y="270" as="targetPoint" />
          </mxGeometry>
        </mxCell>
        <mxCell id="EERv8lGTEq6yZsFL_x0A-392" value="init" style="text;html=1;strokeColor=none;fillColor=none;align=center;verticalAlign=middle;whiteSpace=wrap;rounded=0;" parent="EERv8lGTEq6yZsFL_x0A-183" vertex="1">
          <mxGeometry x="865" y="249.62999999999988" width="50" height="20" as="geometry" />
        </mxCell>
        <mxCell id="EERv8lGTEq6yZsFL_x0A-393" value="hash_valid" style="text;html=1;strokeColor=none;fillColor=none;align=center;verticalAlign=middle;whiteSpace=wrap;rounded=0;" parent="EERv8lGTEq6yZsFL_x0A-183" vertex="1">
          <mxGeometry x="1105" y="240" width="60" height="30" as="geometry" />
        </mxCell>
        <mxCell id="EERv8lGTEq6yZsFL_x0A-394" value="o_hash_out" style="text;html=1;strokeColor=none;fillColor=none;align=center;verticalAlign=middle;whiteSpace=wrap;rounded=0;" parent="EERv8lGTEq6yZsFL_x0A-183" vertex="1">
          <mxGeometry x="1100" y="290" width="70" height="30" as="geometry" />
        </mxCell>
        <mxCell id="EERv8lGTEq6yZsFL_x0A-395" style="edgeStyle=orthogonalEdgeStyle;rounded=0;orthogonalLoop=1;jettySize=auto;html=1;entryX=0.75;entryY=1;entryDx=0;entryDy=0;fillColor=#0050ef;strokeColor=#001DBC;dashed=1;dashPattern=8 8;exitX=1;exitY=0.5;exitDx=0;exitDy=0;" parent="EERv8lGTEq6yZsFL_x0A-183" source="EERv8lGTEq6yZsFL_x0A-396" target="EERv8lGTEq6yZsFL_x0A-383" edge="1">
          <mxGeometry relative="1" as="geometry">
            <mxPoint x="640" y="570" as="targetPoint" />
            <Array as="points">
              <mxPoint x="750" y="700" />
              <mxPoint x="750" y="600" />
              <mxPoint x="650" y="600" />
              <mxPoint x="650" y="540" />
            </Array>
          </mxGeometry>
        </mxCell>
        <mxCell id="EERv8lGTEq6yZsFL_x0A-396" value="data_reg" style="rounded=1;whiteSpace=wrap;html=1;" parent="EERv8lGTEq6yZsFL_x0A-183" vertex="1">
          <mxGeometry x="660" y="680" width="60" height="40" as="geometry" />
        </mxCell>
        <mxCell id="EERv8lGTEq6yZsFL_x0A-397" value="constant" style="rounded=1;whiteSpace=wrap;html=1;" parent="EERv8lGTEq6yZsFL_x0A-183" vertex="1">
          <mxGeometry x="430" y="600" width="60" height="40" as="geometry" />
        </mxCell>
        <mxCell id="EERv8lGTEq6yZsFL_x0A-398" style="edgeStyle=orthogonalEdgeStyle;rounded=0;orthogonalLoop=1;jettySize=auto;html=1;fillColor=#0050ef;strokeColor=#001DBC;dashed=1;dashPattern=8 8;exitX=1;exitY=0.5;exitDx=0;exitDy=0;" parent="EERv8lGTEq6yZsFL_x0A-183" source="EERv8lGTEq6yZsFL_x0A-397" edge="1">
          <mxGeometry relative="1" as="geometry">
            <mxPoint x="690" y="520" as="targetPoint" />
            <Array as="points">
              <mxPoint x="530" y="620" />
              <mxPoint x="530" y="520" />
            </Array>
          </mxGeometry>
        </mxCell>
        <mxCell id="EERv8lGTEq6yZsFL_x0A-399" style="edgeStyle=orthogonalEdgeStyle;rounded=0;orthogonalLoop=1;jettySize=auto;html=1;entryX=0;entryY=0.5;entryDx=0;entryDy=0;fillColor=#0050ef;strokeColor=#001DBC;dashed=1;dashPattern=8 8;" parent="EERv8lGTEq6yZsFL_x0A-183" source="EERv8lGTEq6yZsFL_x0A-400" target="EERv8lGTEq6yZsFL_x0A-396" edge="1">
          <mxGeometry relative="1" as="geometry" />
        </mxCell>
        <mxCell id="EERv8lGTEq6yZsFL_x0A-400" value="" style="shape=trapezoid;perimeter=trapezoidPerimeter;whiteSpace=wrap;html=1;fixedSize=1;rotation=90;" parent="EERv8lGTEq6yZsFL_x0A-183" vertex="1">
          <mxGeometry x="540" y="685" width="80" height="30" as="geometry" />
        </mxCell>
        <mxCell id="EERv8lGTEq6yZsFL_x0A-367" style="edgeStyle=orthogonalEdgeStyle;rounded=0;orthogonalLoop=1;jettySize=auto;html=1;exitX=0.996;exitY=0.548;exitDx=0;exitDy=0;entryX=0.75;entryY=1;entryDx=0;entryDy=0;fillColor=#0050ef;strokeColor=#001DBC;dashed=1;dashPattern=8 8;exitPerimeter=0;" parent="EERv8lGTEq6yZsFL_x0A-183" source="iDNC_NiisuIVi_G4rgwU-4" target="EERv8lGTEq6yZsFL_x0A-400" edge="1">
          <mxGeometry relative="1" as="geometry">
            <Array as="points">
              <mxPoint x="1170" y="320" />
              <mxPoint x="1170" y="760" />
              <mxPoint x="450" y="760" />
              <mxPoint x="450" y="720" />
            </Array>
            <mxPoint x="1095" y="320" as="sourcePoint" />
          </mxGeometry>
        </mxCell>
        <mxCell id="EERv8lGTEq6yZsFL_x0A-401" value="" style="endArrow=classic;html=1;rounded=0;entryX=0;entryY=0.5;entryDx=0;entryDy=0;fillColor=#e51400;strokeColor=#B20000;dashed=1;dashPattern=8 8;" parent="EERv8lGTEq6yZsFL_x0A-183" target="EERv8lGTEq6yZsFL_x0A-369" edge="1">
          <mxGeometry width="50" height="50" relative="1" as="geometry">
            <mxPoint x="110" y="130" as="sourcePoint" />
            <mxPoint x="250" y="420" as="targetPoint" />
          </mxGeometry>
        </mxCell>
        <mxCell id="EERv8lGTEq6yZsFL_x0A-402" value="" style="endArrow=oval;html=1;rounded=0;fillColor=#e51400;strokeColor=#B20000;dashed=1;dashPattern=8 8;endFill=1;" parent="EERv8lGTEq6yZsFL_x0A-183" edge="1">
          <mxGeometry width="50" height="50" relative="1" as="geometry">
            <mxPoint x="580" y="410" as="sourcePoint" />
            <mxPoint x="709" y="410" as="targetPoint" />
            <Array as="points">
              <mxPoint x="709" y="410" />
            </Array>
          </mxGeometry>
        </mxCell>
        <mxCell id="EERv8lGTEq6yZsFL_x0A-403" value="" style="endArrow=classic;html=1;rounded=0;entryX=0;entryY=0.5;entryDx=0;entryDy=0;fillColor=#e51400;strokeColor=#B20000;dashed=1;dashPattern=8 8;" parent="EERv8lGTEq6yZsFL_x0A-183" target="EERv8lGTEq6yZsFL_x0A-400" edge="1">
          <mxGeometry width="50" height="50" relative="1" as="geometry">
            <mxPoint x="580" y="410" as="sourcePoint" />
            <mxPoint x="719" y="470" as="targetPoint" />
            <Array as="points" />
          </mxGeometry>
        </mxCell>
        <mxCell id="EERv8lGTEq6yZsFL_x0A-404" value="512" style="text;html=1;strokeColor=none;fillColor=none;align=center;verticalAlign=middle;whiteSpace=wrap;rounded=0;" parent="EERv8lGTEq6yZsFL_x0A-183" vertex="1">
          <mxGeometry x="-60" y="650" width="60" height="20" as="geometry" />
        </mxCell>
        <mxCell id="EERv8lGTEq6yZsFL_x0A-405" value="" style="endArrow=classic;html=1;rounded=0;fontSize=15;" parent="EERv8lGTEq6yZsFL_x0A-183" edge="1">
          <mxGeometry width="50" height="50" relative="1" as="geometry">
            <mxPoint x="-120" y="680" as="sourcePoint" />
            <mxPoint y="680" as="targetPoint" />
          </mxGeometry>
        </mxCell>
        <mxCell id="EERv8lGTEq6yZsFL_x0A-406" value="&lt;font style=&quot;font-size: 16px;&quot;&gt;i_salt&lt;/font&gt;" style="text;html=1;strokeColor=none;fillColor=none;align=center;verticalAlign=middle;whiteSpace=wrap;rounded=0;" parent="EERv8lGTEq6yZsFL_x0A-183" vertex="1">
          <mxGeometry x="-120" y="650" width="60" height="30" as="geometry" />
        </mxCell>
        <mxCell id="EERv8lGTEq6yZsFL_x0A-407" value="" style="endArrow=none;html=1;rounded=0;" parent="EERv8lGTEq6yZsFL_x0A-183" edge="1">
          <mxGeometry width="50" height="50" relative="1" as="geometry">
            <mxPoint x="-40" y="690" as="sourcePoint" />
            <mxPoint x="-20" y="670" as="targetPoint" />
          </mxGeometry>
        </mxCell>
        <mxCell id="EERv8lGTEq6yZsFL_x0A-408" value="" style="endArrow=classic;html=1;rounded=0;fillColor=#0050ef;strokeColor=#001DBC;dashed=1;dashPattern=8 8;exitX=0;exitY=0.5;exitDx=0;exitDy=0;entryX=0;entryY=0.5;entryDx=0;entryDy=0;" parent="EERv8lGTEq6yZsFL_x0A-183" target="EERv8lGTEq6yZsFL_x0A-371" edge="1">
          <mxGeometry width="50" height="50" relative="1" as="geometry">
            <mxPoint y="580" as="sourcePoint" />
            <mxPoint x="70" y="580" as="targetPoint" />
          </mxGeometry>
        </mxCell>
        <mxCell id="EERv8lGTEq6yZsFL_x0A-409" value="" style="endArrow=classic;html=1;rounded=0;entryX=-0.001;entryY=0.165;entryDx=0;entryDy=0;entryPerimeter=0;fontSize=15;" parent="EERv8lGTEq6yZsFL_x0A-183" edge="1">
          <mxGeometry width="50" height="50" relative="1" as="geometry">
            <mxPoint x="-120" y="581" as="sourcePoint" />
            <mxPoint y="580" as="targetPoint" />
          </mxGeometry>
        </mxCell>
        <mxCell id="EERv8lGTEq6yZsFL_x0A-410" value="&lt;font style=&quot;font-size: 16px;&quot;&gt;i_pass&lt;/font&gt;" style="text;html=1;strokeColor=none;fillColor=none;align=center;verticalAlign=middle;whiteSpace=wrap;rounded=0;" parent="EERv8lGTEq6yZsFL_x0A-183" vertex="1">
          <mxGeometry x="-120" y="550" width="70" height="30" as="geometry" />
        </mxCell>
        <mxCell id="EERv8lGTEq6yZsFL_x0A-413" value="" style="endArrow=oval;html=1;rounded=0;exitX=0.999;exitY=0.3;exitDx=0;exitDy=0;fillColor=#e51400;strokeColor=#B20000;dashed=1;dashPattern=8 8;endFill=0;exitPerimeter=0;" parent="EERv8lGTEq6yZsFL_x0A-183" source="iDNC_NiisuIVi_G4rgwU-4" edge="1">
          <mxGeometry width="50" height="50" relative="1" as="geometry">
            <mxPoint x="1095" y="270" as="sourcePoint" />
            <mxPoint x="480" y="60" as="targetPoint" />
            <Array as="points">
              <mxPoint x="1170" y="270" />
              <mxPoint x="1170" y="60" />
            </Array>
          </mxGeometry>
        </mxCell>
        <mxCell id="EERv8lGTEq6yZsFL_x0A-414" value="" style="endArrow=classic;html=1;rounded=0;entryX=0.25;entryY=1;entryDx=0;entryDy=0;dashed=1;dashPattern=8 8;fillColor=#0050ef;strokeColor=#001DBC;" parent="EERv8lGTEq6yZsFL_x0A-183" target="EERv8lGTEq6yZsFL_x0A-400" edge="1">
          <mxGeometry width="50" height="50" relative="1" as="geometry">
            <mxPoint y="680" as="sourcePoint" />
            <mxPoint x="280" y="560" as="targetPoint" />
          </mxGeometry>
        </mxCell>
        <mxCell id="EERv8lGTEq6yZsFL_x0A-415" value="" style="endArrow=oval;html=1;rounded=0;fillColor=#e51400;strokeColor=#B20000;dashed=1;dashPattern=8 8;startArrow=oval;startFill=1;endFill=1;" parent="EERv8lGTEq6yZsFL_x0A-183" edge="1">
          <mxGeometry width="50" height="50" relative="1" as="geometry">
            <mxPoint x="480" y="110" as="sourcePoint" />
            <mxPoint x="580" y="410" as="targetPoint" />
            <Array as="points">
              <mxPoint x="480" y="410" />
            </Array>
          </mxGeometry>
        </mxCell>
        <mxCell id="EERv8lGTEq6yZsFL_x0A-417" value="" style="endArrow=classic;html=1;rounded=0;fontSize=15;" parent="EERv8lGTEq6yZsFL_x0A-183" edge="1">
          <mxGeometry width="50" height="50" relative="1" as="geometry">
            <mxPoint x="-120" y="70" as="sourcePoint" />
            <mxPoint y="70" as="targetPoint" />
          </mxGeometry>
        </mxCell>
        <mxCell id="EERv8lGTEq6yZsFL_x0A-418" value="" style="endArrow=classic;html=1;rounded=0;fontSize=15;" parent="EERv8lGTEq6yZsFL_x0A-183" edge="1">
          <mxGeometry width="50" height="50" relative="1" as="geometry">
            <mxPoint x="-120" y="130" as="sourcePoint" />
            <mxPoint y="130" as="targetPoint" />
          </mxGeometry>
        </mxCell>
        <mxCell id="EERv8lGTEq6yZsFL_x0A-419" value="&lt;font style=&quot;font-size: 16px;&quot;&gt;i_pass_valid&lt;/font&gt;" style="text;html=1;strokeColor=none;fillColor=none;align=center;verticalAlign=middle;whiteSpace=wrap;rounded=0;" parent="EERv8lGTEq6yZsFL_x0A-183" vertex="1">
          <mxGeometry x="-120" y="100" width="100" height="30" as="geometry" />
        </mxCell>
        <mxCell id="EERv8lGTEq6yZsFL_x0A-420" value="" style="endArrow=none;html=1;rounded=0;fillColor=#e51400;strokeColor=#B20000;dashed=1;dashPattern=8 8;endFill=0;" parent="EERv8lGTEq6yZsFL_x0A-183" edge="1">
          <mxGeometry width="50" height="50" relative="1" as="geometry">
            <mxPoint y="130" as="sourcePoint" />
            <mxPoint x="110" y="130" as="targetPoint" />
          </mxGeometry>
        </mxCell>
        <mxCell id="EERv8lGTEq6yZsFL_x0A-440" style="edgeStyle=orthogonalEdgeStyle;rounded=0;orthogonalLoop=1;jettySize=auto;html=1;fillColor=#e51400;strokeColor=#B20000;endArrow=none;endFill=0;dashed=1;dashPattern=8 8;" parent="EERv8lGTEq6yZsFL_x0A-183" source="EERv8lGTEq6yZsFL_x0A-423" edge="1">
          <mxGeometry relative="1" as="geometry">
            <mxPoint x="1270" y="60" as="targetPoint" />
            <Array as="points">
              <mxPoint x="960" y="490" />
              <mxPoint x="1250" y="490" />
              <mxPoint x="1250" y="60" />
            </Array>
          </mxGeometry>
        </mxCell>
        <mxCell id="EERv8lGTEq6yZsFL_x0A-423" value="o_key" style="rounded=1;whiteSpace=wrap;html=1;" parent="EERv8lGTEq6yZsFL_x0A-183" vertex="1">
          <mxGeometry x="915" y="510" width="81.5" height="80" as="geometry" />
        </mxCell>
        <mxCell id="EERv8lGTEq6yZsFL_x0A-437" style="edgeStyle=orthogonalEdgeStyle;rounded=0;orthogonalLoop=1;jettySize=auto;html=1;entryX=0;entryY=0.5;entryDx=0;entryDy=0;fillColor=#0050ef;strokeColor=#001DBC;dashed=1;dashPattern=8 8;" parent="EERv8lGTEq6yZsFL_x0A-183" source="EERv8lGTEq6yZsFL_x0A-431" target="EERv8lGTEq6yZsFL_x0A-423" edge="1">
          <mxGeometry relative="1" as="geometry" />
        </mxCell>
        <mxCell id="EERv8lGTEq6yZsFL_x0A-431" value="" style="shape=trapezoid;perimeter=trapezoidPerimeter;whiteSpace=wrap;html=1;fixedSize=1;rotation=90;" parent="EERv8lGTEq6yZsFL_x0A-183" vertex="1">
          <mxGeometry x="815" y="530" width="90" height="40" as="geometry" />
        </mxCell>
        <mxCell id="EERv8lGTEq6yZsFL_x0A-426" value="" style="endArrow=classic;html=1;rounded=0;entryX=0;entryY=0.5;entryDx=0;entryDy=0;fillColor=#e51400;strokeColor=#B20000;dashed=1;dashPattern=8 8;" parent="EERv8lGTEq6yZsFL_x0A-183" target="EERv8lGTEq6yZsFL_x0A-431" edge="1">
          <mxGeometry width="50" height="50" relative="1" as="geometry">
            <mxPoint x="710" y="410" as="sourcePoint" />
            <mxPoint x="890" y="510" as="targetPoint" />
            <Array as="points">
              <mxPoint x="760" y="410" />
              <mxPoint x="760" y="470" />
              <mxPoint x="860" y="470" />
            </Array>
          </mxGeometry>
        </mxCell>
        <mxCell id="EERv8lGTEq6yZsFL_x0A-428" value="" style="verticalLabelPosition=bottom;verticalAlign=top;html=1;shape=mxgraph.flowchart.summing_function;" parent="EERv8lGTEq6yZsFL_x0A-183" vertex="1">
          <mxGeometry x="790" y="690" width="20" height="20" as="geometry" />
        </mxCell>
        <mxCell id="EERv8lGTEq6yZsFL_x0A-430" style="edgeStyle=orthogonalEdgeStyle;rounded=0;orthogonalLoop=1;jettySize=auto;html=1;entryX=1;entryY=0.5;entryDx=0;entryDy=0;entryPerimeter=0;fillColor=#0050ef;strokeColor=#001DBC;dashed=1;dashPattern=8 8;" parent="EERv8lGTEq6yZsFL_x0A-183" source="EERv8lGTEq6yZsFL_x0A-423" target="EERv8lGTEq6yZsFL_x0A-428" edge="1">
          <mxGeometry relative="1" as="geometry">
            <Array as="points">
              <mxPoint x="1080" y="550" />
              <mxPoint x="1080" y="700" />
            </Array>
          </mxGeometry>
        </mxCell>
        <mxCell id="EERv8lGTEq6yZsFL_x0A-435" style="edgeStyle=orthogonalEdgeStyle;rounded=0;orthogonalLoop=1;jettySize=auto;html=1;fillColor=#0050ef;strokeColor=#001DBC;dashed=1;dashPattern=8 8;entryX=0.5;entryY=1;entryDx=0;entryDy=0;" parent="EERv8lGTEq6yZsFL_x0A-183" source="EERv8lGTEq6yZsFL_x0A-428" target="EERv8lGTEq6yZsFL_x0A-431" edge="1">
          <mxGeometry relative="1" as="geometry">
            <mxPoint x="820" y="550" as="targetPoint" />
            <Array as="points">
              <mxPoint x="800" y="550" />
            </Array>
          </mxGeometry>
        </mxCell>
        <mxCell id="iDNC_NiisuIVi_G4rgwU-2" value="KEY_EXPANSION" style="rounded=0;whiteSpace=wrap;html=1;" vertex="1" parent="EERv8lGTEq6yZsFL_x0A-183">
          <mxGeometry x="610" y="209.63" width="120" height="100" as="geometry" />
        </mxCell>
        <mxCell id="iDNC_NiisuIVi_G4rgwU-4" value="WHIRLPOOL_HASH" style="rounded=0;whiteSpace=wrap;html=1;" vertex="1" parent="EERv8lGTEq6yZsFL_x0A-183">
          <mxGeometry x="930" y="210" width="145" height="200" as="geometry" />
        </mxCell>
        <mxCell id="EERv8lGTEq6yZsFL_x0A-416" value="&lt;font style=&quot;font-size: 16px;&quot;&gt;i_ena_hash&lt;/font&gt;" style="text;html=1;strokeColor=none;fillColor=none;align=center;verticalAlign=middle;whiteSpace=wrap;rounded=0;" parent="1" vertex="1">
          <mxGeometry x="990" y="190" width="100" height="30" as="geometry" />
        </mxCell>
        <mxCell id="EERv8lGTEq6yZsFL_x0A-425" value="" style="endArrow=classic;html=1;rounded=0;dashed=1;dashPattern=8 8;fillColor=#e51400;strokeColor=#B20000;" parent="1" target="EERv8lGTEq6yZsFL_x0A-383" edge="1">
          <mxGeometry width="50" height="50" relative="1" as="geometry">
            <mxPoint x="1820" y="560" as="sourcePoint" />
            <mxPoint x="1880" y="670" as="targetPoint" />
          </mxGeometry>
        </mxCell>
        <mxCell id="EERv8lGTEq6yZsFL_x0A-429" value="" style="endArrow=classic;html=1;rounded=0;fillColor=#0050ef;strokeColor=#001DBC;dashed=1;dashPattern=8 8;" parent="1" target="EERv8lGTEq6yZsFL_x0A-428" edge="1">
          <mxGeometry width="50" height="50" relative="1" as="geometry">
            <mxPoint x="1860" y="850" as="sourcePoint" />
            <mxPoint x="2000" y="850" as="targetPoint" />
            <Array as="points" />
          </mxGeometry>
        </mxCell>
        <mxCell id="EERv8lGTEq6yZsFL_x0A-438" value="" style="endArrow=none;html=1;rounded=0;endFill=0;startArrow=oval;startFill=1;fillColor=#0050ef;strokeColor=#001DBC;dashed=1;dashPattern=8 8;" parent="1" edge="1">
          <mxGeometry width="50" height="50" relative="1" as="geometry">
            <mxPoint x="2190" y="700" as="sourcePoint" />
            <mxPoint x="2380" y="700" as="targetPoint" />
            <Array as="points">
              <mxPoint x="2310" y="700" />
            </Array>
          </mxGeometry>
        </mxCell>
        <mxCell id="EERv8lGTEq6yZsFL_x0A-441" value="" style="endArrow=classic;html=1;rounded=0;" parent="1" edge="1">
          <mxGeometry width="50" height="50" relative="1" as="geometry">
            <mxPoint x="2380" y="210" as="sourcePoint" />
            <mxPoint x="2480" y="210" as="targetPoint" />
          </mxGeometry>
        </mxCell>
        <mxCell id="EERv8lGTEq6yZsFL_x0A-442" value="" style="endArrow=classic;html=1;rounded=0;" parent="1" edge="1">
          <mxGeometry width="50" height="50" relative="1" as="geometry">
            <mxPoint x="2380" y="700" as="sourcePoint" />
            <mxPoint x="2480" y="700" as="targetPoint" />
          </mxGeometry>
        </mxCell>
        <mxCell id="PQxC0g_yqJH9VvmQ71Lx-1" value="" style="endArrow=none;html=1;rounded=0;startArrow=oval;startFill=1;fillColor=#0050ef;strokeColor=#001DBC;dashed=1;dashPattern=8 8;endFill=0;" parent="1" edge="1">
          <mxGeometry width="50" height="50" relative="1" as="geometry">
            <mxPoint x="1160" y="730" as="sourcePoint" />
            <mxPoint x="2380" y="950" as="targetPoint" />
            <Array as="points">
              <mxPoint x="1160" y="950" />
            </Array>
          </mxGeometry>
        </mxCell>
        <mxCell id="PQxC0g_yqJH9VvmQ71Lx-2" value="" style="endArrow=classic;html=1;rounded=0;" parent="1" edge="1">
          <mxGeometry width="50" height="50" relative="1" as="geometry">
            <mxPoint x="2380" y="950" as="sourcePoint" />
            <mxPoint x="2480" y="950" as="targetPoint" />
          </mxGeometry>
        </mxCell>
        <mxCell id="pkogy9pzJX1BQJTUOR9Y-1" value="&lt;font style=&quot;font-size: 16px;&quot;&gt;o_pass&lt;/font&gt;" style="text;html=1;strokeColor=none;fillColor=none;align=center;verticalAlign=middle;whiteSpace=wrap;rounded=0;" parent="1" vertex="1">
          <mxGeometry x="2380" y="920" width="70" height="30" as="geometry" />
        </mxCell>
        <mxCell id="EERv8lGTEq6yZsFL_x0A-411" value="" style="endArrow=none;html=1;rounded=0;" parent="1" edge="1">
          <mxGeometry width="50" height="50" relative="1" as="geometry">
            <mxPoint x="2450" y="960" as="sourcePoint" />
            <mxPoint x="2470" y="940" as="targetPoint" />
          </mxGeometry>
        </mxCell>
        <mxCell id="EERv8lGTEq6yZsFL_x0A-412" value="192" style="text;html=1;strokeColor=none;fillColor=none;align=center;verticalAlign=middle;whiteSpace=wrap;rounded=0;" parent="1" vertex="1">
          <mxGeometry x="2430" y="920" width="60" height="20" as="geometry" />
        </mxCell>
        <mxCell id="QzbmfcjGg8_7yuX1VaS1-1" value="&lt;font style=&quot;font-size: 16px;&quot;&gt;o_key_valid&lt;/font&gt;" style="text;html=1;strokeColor=none;fillColor=none;align=center;verticalAlign=middle;whiteSpace=wrap;rounded=0;" parent="1" vertex="1">
          <mxGeometry x="2380" y="180" width="100" height="30" as="geometry" />
        </mxCell>
        <mxCell id="nJisdkZDkCBjm21s61zb-1" value="&lt;font style=&quot;font-size: 16px;&quot;&gt;o_key&lt;/font&gt;" style="text;html=1;strokeColor=none;fillColor=none;align=center;verticalAlign=middle;whiteSpace=wrap;rounded=0;" parent="1" vertex="1">
          <mxGeometry x="2380" y="670" width="60" height="30" as="geometry" />
        </mxCell>
        <mxCell id="OXrXkSs9c_OdtR6PvoUD-1" value="" style="endArrow=none;html=1;rounded=0;" parent="1" edge="1">
          <mxGeometry width="50" height="50" relative="1" as="geometry">
            <mxPoint x="2450" y="710" as="sourcePoint" />
            <mxPoint x="2470" y="690" as="targetPoint" />
          </mxGeometry>
        </mxCell>
        <mxCell id="OXrXkSs9c_OdtR6PvoUD-2" value="512" style="text;html=1;strokeColor=none;fillColor=none;align=center;verticalAlign=middle;whiteSpace=wrap;rounded=0;" parent="1" vertex="1">
          <mxGeometry x="2430" y="670" width="60" height="20" as="geometry" />
        </mxCell>
      </root>
    </mxGraphModel>
  </diagram>
  <diagram id="Rx1ueANkcy3w4en8AmWv" name="TOP_FSM">
    <mxGraphModel dx="1886" dy="654" grid="1" gridSize="10" guides="1" tooltips="1" connect="1" arrows="1" fold="1" page="1" pageScale="1" pageWidth="850" pageHeight="1100" math="0" shadow="0">
      <root>
        <mxCell id="0" />
        <mxCell id="1" parent="0" />
        <mxCell id="ZrfFpXfTxoUzrKwfFDiE-21" style="orthogonalLoop=1;jettySize=auto;html=1;exitX=1;exitY=0.5;exitDx=0;exitDy=0;entryX=0;entryY=0.5;entryDx=0;entryDy=0;rounded=0;" parent="1" source="ZrfFpXfTxoUzrKwfFDiE-2" target="ZrfFpXfTxoUzrKwfFDiE-3" edge="1">
          <mxGeometry relative="1" as="geometry" />
        </mxCell>
        <mxCell id="ZrfFpXfTxoUzrKwfFDiE-55" style="edgeStyle=orthogonalEdgeStyle;rounded=0;orthogonalLoop=1;jettySize=auto;html=1;exitX=0.5;exitY=0;exitDx=0;exitDy=0;endArrow=none;endFill=0;startArrow=classic;startFill=1;" parent="1" source="ZrfFpXfTxoUzrKwfFDiE-2" edge="1">
          <mxGeometry relative="1" as="geometry">
            <mxPoint x="-119.86206896551721" y="220" as="targetPoint" />
          </mxGeometry>
        </mxCell>
        <mxCell id="ZrfFpXfTxoUzrKwfFDiE-65" style="edgeStyle=orthogonalEdgeStyle;rounded=0;orthogonalLoop=1;jettySize=auto;html=1;endArrow=none;endFill=0;" parent="1" source="ZrfFpXfTxoUzrKwfFDiE-2" edge="1">
          <mxGeometry relative="1" as="geometry">
            <mxPoint x="-120" y="400" as="targetPoint" />
          </mxGeometry>
        </mxCell>
        <mxCell id="ZrfFpXfTxoUzrKwfFDiE-2" value="IDLE" style="ellipse;whiteSpace=wrap;html=1;" parent="1" vertex="1">
          <mxGeometry x="-180" y="260" width="120" height="80" as="geometry" />
        </mxCell>
        <mxCell id="ZrfFpXfTxoUzrKwfFDiE-26" style="edgeStyle=orthogonalEdgeStyle;rounded=0;orthogonalLoop=1;jettySize=auto;html=1;entryX=0;entryY=0.5;entryDx=0;entryDy=0;" parent="1" source="ZrfFpXfTxoUzrKwfFDiE-3" target="ZrfFpXfTxoUzrKwfFDiE-4" edge="1">
          <mxGeometry relative="1" as="geometry" />
        </mxCell>
        <mxCell id="ZrfFpXfTxoUzrKwfFDiE-41" style="edgeStyle=orthogonalEdgeStyle;rounded=0;orthogonalLoop=1;jettySize=auto;html=1;exitX=0.5;exitY=0;exitDx=0;exitDy=0;endArrow=none;endFill=0;" parent="1" source="ZrfFpXfTxoUzrKwfFDiE-3" edge="1">
          <mxGeometry relative="1" as="geometry">
            <mxPoint x="140" y="200" as="targetPoint" />
          </mxGeometry>
        </mxCell>
        <mxCell id="ZrfFpXfTxoUzrKwfFDiE-3" value="KEY_PADDING" style="ellipse;whiteSpace=wrap;html=1;" parent="1" vertex="1">
          <mxGeometry x="80" y="260" width="120" height="80" as="geometry" />
        </mxCell>
        <mxCell id="ZrfFpXfTxoUzrKwfFDiE-23" style="rounded=0;orthogonalLoop=1;jettySize=auto;html=1;entryX=0.5;entryY=0;entryDx=0;entryDy=0;" parent="1" source="ZrfFpXfTxoUzrKwfFDiE-4" target="ZrfFpXfTxoUzrKwfFDiE-10" edge="1">
          <mxGeometry relative="1" as="geometry" />
        </mxCell>
        <mxCell id="ZrfFpXfTxoUzrKwfFDiE-71" style="edgeStyle=orthogonalEdgeStyle;rounded=0;orthogonalLoop=1;jettySize=auto;html=1;exitX=1;exitY=0.5;exitDx=0;exitDy=0;endArrow=none;endFill=0;" parent="1" source="ZrfFpXfTxoUzrKwfFDiE-4" edge="1">
          <mxGeometry relative="1" as="geometry">
            <mxPoint x="540" y="299.9354838709677" as="targetPoint" />
          </mxGeometry>
        </mxCell>
        <mxCell id="ZrfFpXfTxoUzrKwfFDiE-4" value="HASH_IKEY_BLOCK_1_IN" style="ellipse;whiteSpace=wrap;html=1;" parent="1" vertex="1">
          <mxGeometry x="300" y="260" width="180" height="80" as="geometry" />
        </mxCell>
        <mxCell id="ZrfFpXfTxoUzrKwfFDiE-37" style="rounded=0;orthogonalLoop=1;jettySize=auto;html=1;entryX=0.5;entryY=1;entryDx=0;entryDy=0;" parent="1" source="ZrfFpXfTxoUzrKwfFDiE-9" target="ZrfFpXfTxoUzrKwfFDiE-17" edge="1">
          <mxGeometry relative="1" as="geometry" />
        </mxCell>
        <mxCell id="ZrfFpXfTxoUzrKwfFDiE-94" style="edgeStyle=orthogonalEdgeStyle;rounded=0;orthogonalLoop=1;jettySize=auto;html=1;exitX=0.5;exitY=1;exitDx=0;exitDy=0;endArrow=none;endFill=0;" parent="1" source="ZrfFpXfTxoUzrKwfFDiE-9" edge="1">
          <mxGeometry relative="1" as="geometry">
            <mxPoint x="-200" y="560" as="targetPoint" />
          </mxGeometry>
        </mxCell>
        <mxCell id="ZrfFpXfTxoUzrKwfFDiE-9" value="HASH_OKEY_BLOCK_3_OUT" style="ellipse;whiteSpace=wrap;html=1;" parent="1" vertex="1">
          <mxGeometry x="-290" y="420" width="180" height="80" as="geometry" />
        </mxCell>
        <mxCell id="ZrfFpXfTxoUzrKwfFDiE-24" style="rounded=0;orthogonalLoop=1;jettySize=auto;html=1;entryX=0.5;entryY=0;entryDx=0;entryDy=0;" parent="1" source="ZrfFpXfTxoUzrKwfFDiE-10" target="ZrfFpXfTxoUzrKwfFDiE-11" edge="1">
          <mxGeometry relative="1" as="geometry" />
        </mxCell>
        <mxCell id="ZrfFpXfTxoUzrKwfFDiE-74" style="edgeStyle=orthogonalEdgeStyle;rounded=0;orthogonalLoop=1;jettySize=auto;html=1;endArrow=none;endFill=0;" parent="1" source="ZrfFpXfTxoUzrKwfFDiE-10" edge="1">
          <mxGeometry relative="1" as="geometry">
            <mxPoint x="540" y="460" as="targetPoint" />
          </mxGeometry>
        </mxCell>
        <mxCell id="ZrfFpXfTxoUzrKwfFDiE-10" value="HASH_IKEY_BLOCK_2_IN" style="ellipse;whiteSpace=wrap;html=1;" parent="1" vertex="1">
          <mxGeometry x="300" y="420" width="180" height="80" as="geometry" />
        </mxCell>
        <mxCell id="ZrfFpXfTxoUzrKwfFDiE-25" style="rounded=0;orthogonalLoop=1;jettySize=auto;html=1;exitX=0.5;exitY=1;exitDx=0;exitDy=0;entryX=0.5;entryY=0;entryDx=0;entryDy=0;" parent="1" source="ZrfFpXfTxoUzrKwfFDiE-11" target="ZrfFpXfTxoUzrKwfFDiE-12" edge="1">
          <mxGeometry relative="1" as="geometry" />
        </mxCell>
        <mxCell id="ZrfFpXfTxoUzrKwfFDiE-77" style="edgeStyle=orthogonalEdgeStyle;rounded=0;orthogonalLoop=1;jettySize=auto;html=1;exitX=1;exitY=0.5;exitDx=0;exitDy=0;endArrow=none;endFill=0;" parent="1" source="ZrfFpXfTxoUzrKwfFDiE-11" edge="1">
          <mxGeometry relative="1" as="geometry">
            <mxPoint x="540" y="619.6956521739132" as="targetPoint" />
          </mxGeometry>
        </mxCell>
        <mxCell id="ZrfFpXfTxoUzrKwfFDiE-11" value="HASH_IKEY_BLOCK_3_IN" style="ellipse;whiteSpace=wrap;html=1;" parent="1" vertex="1">
          <mxGeometry x="300" y="580" width="180" height="80" as="geometry" />
        </mxCell>
        <mxCell id="ZrfFpXfTxoUzrKwfFDiE-27" style="edgeStyle=orthogonalEdgeStyle;rounded=0;orthogonalLoop=1;jettySize=auto;html=1;exitX=0;exitY=0.5;exitDx=0;exitDy=0;entryX=1;entryY=0.5;entryDx=0;entryDy=0;" parent="1" source="ZrfFpXfTxoUzrKwfFDiE-12" target="ZrfFpXfTxoUzrKwfFDiE-14" edge="1">
          <mxGeometry relative="1" as="geometry" />
        </mxCell>
        <mxCell id="ZrfFpXfTxoUzrKwfFDiE-83" style="edgeStyle=orthogonalEdgeStyle;rounded=0;orthogonalLoop=1;jettySize=auto;html=1;endArrow=none;endFill=0;" parent="1" source="ZrfFpXfTxoUzrKwfFDiE-12" edge="1">
          <mxGeometry relative="1" as="geometry">
            <mxPoint x="540" y="769.9999999999998" as="targetPoint" />
          </mxGeometry>
        </mxCell>
        <mxCell id="ZrfFpXfTxoUzrKwfFDiE-12" value="HASH_IKEY_BLOCK_3_OUT" style="ellipse;whiteSpace=wrap;html=1;" parent="1" vertex="1">
          <mxGeometry x="300" y="730" width="180" height="80" as="geometry" />
        </mxCell>
        <mxCell id="ZrfFpXfTxoUzrKwfFDiE-36" style="edgeStyle=orthogonalEdgeStyle;rounded=0;orthogonalLoop=1;jettySize=auto;html=1;entryX=0.5;entryY=1;entryDx=0;entryDy=0;" parent="1" source="ZrfFpXfTxoUzrKwfFDiE-14" target="ZrfFpXfTxoUzrKwfFDiE-16" edge="1">
          <mxGeometry relative="1" as="geometry" />
        </mxCell>
        <mxCell id="ZrfFpXfTxoUzrKwfFDiE-85" style="edgeStyle=orthogonalEdgeStyle;rounded=0;orthogonalLoop=1;jettySize=auto;html=1;exitX=0.5;exitY=1;exitDx=0;exitDy=0;endArrow=none;endFill=0;entryX=0.007;entryY=1.045;entryDx=0;entryDy=0;entryPerimeter=0;" parent="1" source="ZrfFpXfTxoUzrKwfFDiE-14" target="ZrfFpXfTxoUzrKwfFDiE-87" edge="1">
          <mxGeometry relative="1" as="geometry">
            <mxPoint x="110" y="880" as="targetPoint" />
            <Array as="points">
              <mxPoint x="110" y="871" />
            </Array>
          </mxGeometry>
        </mxCell>
        <mxCell id="ZrfFpXfTxoUzrKwfFDiE-14" value="HASH_OKEY_BLOCK_1_IN" style="ellipse;whiteSpace=wrap;html=1;" parent="1" vertex="1">
          <mxGeometry x="20" y="730" width="180" height="80" as="geometry" />
        </mxCell>
        <mxCell id="ZrfFpXfTxoUzrKwfFDiE-31" style="rounded=0;orthogonalLoop=1;jettySize=auto;html=1;exitX=0;exitY=0.5;exitDx=0;exitDy=0;entryX=1;entryY=0.5;entryDx=0;entryDy=0;" parent="1" source="ZrfFpXfTxoUzrKwfFDiE-15" target="ZrfFpXfTxoUzrKwfFDiE-9" edge="1">
          <mxGeometry relative="1" as="geometry" />
        </mxCell>
        <mxCell id="ZrfFpXfTxoUzrKwfFDiE-91" style="edgeStyle=orthogonalEdgeStyle;rounded=0;orthogonalLoop=1;jettySize=auto;html=1;exitX=0.5;exitY=0;exitDx=0;exitDy=0;endArrow=none;endFill=0;" parent="1" source="ZrfFpXfTxoUzrKwfFDiE-15" edge="1">
          <mxGeometry relative="1" as="geometry">
            <mxPoint x="110" y="360" as="targetPoint" />
          </mxGeometry>
        </mxCell>
        <mxCell id="ZrfFpXfTxoUzrKwfFDiE-15" value="HASH_OKEY_BLOCK_3_IN" style="ellipse;whiteSpace=wrap;html=1;" parent="1" vertex="1">
          <mxGeometry x="20" y="420" width="180" height="80" as="geometry" />
        </mxCell>
        <mxCell id="ZrfFpXfTxoUzrKwfFDiE-35" style="edgeStyle=orthogonalEdgeStyle;rounded=0;orthogonalLoop=1;jettySize=auto;html=1;entryX=0.5;entryY=1;entryDx=0;entryDy=0;" parent="1" source="ZrfFpXfTxoUzrKwfFDiE-16" target="ZrfFpXfTxoUzrKwfFDiE-15" edge="1">
          <mxGeometry relative="1" as="geometry" />
        </mxCell>
        <mxCell id="ZrfFpXfTxoUzrKwfFDiE-16" value="HASH_OKEY_BLOCK_2_IN" style="ellipse;whiteSpace=wrap;html=1;" parent="1" vertex="1">
          <mxGeometry x="20" y="580" width="180" height="80" as="geometry" />
        </mxCell>
        <mxCell id="ZrfFpXfTxoUzrKwfFDiE-33" style="edgeStyle=orthogonalEdgeStyle;rounded=0;orthogonalLoop=1;jettySize=auto;html=1;exitX=1;exitY=0.5;exitDx=0;exitDy=0;entryX=0;entryY=0.5;entryDx=0;entryDy=0;" parent="1" source="ZrfFpXfTxoUzrKwfFDiE-17" target="ZrfFpXfTxoUzrKwfFDiE-2" edge="1">
          <mxGeometry relative="1" as="geometry" />
        </mxCell>
        <mxCell id="ZrfFpXfTxoUzrKwfFDiE-52" style="edgeStyle=orthogonalEdgeStyle;rounded=0;orthogonalLoop=1;jettySize=auto;html=1;exitX=0.5;exitY=0;exitDx=0;exitDy=0;entryX=0.5;entryY=0;entryDx=0;entryDy=0;" parent="1" source="ZrfFpXfTxoUzrKwfFDiE-17" target="ZrfFpXfTxoUzrKwfFDiE-4" edge="1">
          <mxGeometry relative="1" as="geometry">
            <Array as="points">
              <mxPoint x="-370" y="160" />
              <mxPoint x="390" y="160" />
            </Array>
          </mxGeometry>
        </mxCell>
        <mxCell id="ZrfFpXfTxoUzrKwfFDiE-79" style="edgeStyle=orthogonalEdgeStyle;rounded=0;orthogonalLoop=1;jettySize=auto;html=1;exitX=0;exitY=0.5;exitDx=0;exitDy=0;endArrow=none;endFill=0;" parent="1" source="ZrfFpXfTxoUzrKwfFDiE-17" edge="1">
          <mxGeometry relative="1" as="geometry">
            <mxPoint x="-560" y="299" as="targetPoint" />
          </mxGeometry>
        </mxCell>
        <mxCell id="ZrfFpXfTxoUzrKwfFDiE-17" value="KEY_OUT" style="ellipse;whiteSpace=wrap;html=1;" parent="1" vertex="1">
          <mxGeometry x="-430" y="260" width="120" height="80" as="geometry" />
        </mxCell>
        <mxCell id="ZrfFpXfTxoUzrKwfFDiE-40" value="&lt;font style=&quot;font-size: 14px;&quot;&gt;i_pass_valid &amp;amp;&amp;amp; i_ena_hash&lt;/font&gt;" style="text;html=1;strokeColor=none;fillColor=none;align=center;verticalAlign=middle;whiteSpace=wrap;rounded=0;" parent="1" vertex="1">
          <mxGeometry x="-50" y="260" width="110" height="30" as="geometry" />
        </mxCell>
        <mxCell id="ZrfFpXfTxoUzrKwfFDiE-42" value="&lt;span style=&quot;font-size: 14px;&quot;&gt;ikey_pad = passin ^ ipad&lt;/span&gt;" style="text;html=1;strokeColor=none;fillColor=none;align=center;verticalAlign=middle;whiteSpace=wrap;rounded=0;" parent="1" vertex="1">
          <mxGeometry x="140" y="200" width="170" height="30" as="geometry" />
        </mxCell>
        <mxCell id="ZrfFpXfTxoUzrKwfFDiE-43" value="&lt;span style=&quot;font-size: 14px;&quot;&gt;okey_pad = passin ^ opad&lt;/span&gt;" style="text;html=1;strokeColor=none;fillColor=none;align=center;verticalAlign=middle;whiteSpace=wrap;rounded=0;" parent="1" vertex="1">
          <mxGeometry x="140" y="230" width="170" height="30" as="geometry" />
        </mxCell>
        <mxCell id="ZrfFpXfTxoUzrKwfFDiE-47" value="&lt;span style=&quot;font-size: 14px;&quot;&gt;hash_valid == 1&lt;/span&gt;" style="text;html=1;strokeColor=none;fillColor=none;align=center;verticalAlign=middle;whiteSpace=wrap;rounded=0;" parent="1" vertex="1">
          <mxGeometry x="270" y="360" width="120" height="30" as="geometry" />
        </mxCell>
        <mxCell id="ZrfFpXfTxoUzrKwfFDiE-50" value="&lt;span style=&quot;font-size: 14px;&quot;&gt;hash_valid == 1&lt;/span&gt;" style="text;html=1;strokeColor=none;fillColor=none;align=center;verticalAlign=middle;whiteSpace=wrap;rounded=0;" parent="1" vertex="1">
          <mxGeometry x="-100" y="460" width="120" height="30" as="geometry" />
        </mxCell>
        <mxCell id="ZrfFpXfTxoUzrKwfFDiE-51" value="&lt;font style=&quot;font-size: 14px;&quot;&gt;hash_valid == 1&lt;/font&gt;" style="text;html=1;strokeColor=none;fillColor=none;align=center;verticalAlign=middle;whiteSpace=wrap;rounded=0;" parent="1" vertex="1">
          <mxGeometry x="-425" y="380" width="110" height="30" as="geometry" />
        </mxCell>
        <mxCell id="ZrfFpXfTxoUzrKwfFDiE-56" value="&lt;font style=&quot;font-size: 14px;&quot;&gt;i_rstn&lt;/font&gt;" style="text;html=1;strokeColor=none;fillColor=none;align=center;verticalAlign=middle;whiteSpace=wrap;rounded=0;" parent="1" vertex="1">
          <mxGeometry x="-150" y="190" width="60" height="30" as="geometry" />
        </mxCell>
        <mxCell id="ZrfFpXfTxoUzrKwfFDiE-58" value="&lt;span style=&quot;font-size: 14px;&quot;&gt;hash_valid == 1&lt;/span&gt;" style="text;html=1;strokeColor=none;fillColor=none;align=center;verticalAlign=middle;whiteSpace=wrap;rounded=0;" parent="1" vertex="1">
          <mxGeometry x="270" y="520" width="120" height="30" as="geometry" />
        </mxCell>
        <mxCell id="ZrfFpXfTxoUzrKwfFDiE-59" value="&lt;span style=&quot;font-size: 14px;&quot;&gt;hash_valid == 1&lt;/span&gt;" style="text;html=1;strokeColor=none;fillColor=none;align=center;verticalAlign=middle;whiteSpace=wrap;rounded=0;" parent="1" vertex="1">
          <mxGeometry x="270" y="680" width="120" height="30" as="geometry" />
        </mxCell>
        <mxCell id="ZrfFpXfTxoUzrKwfFDiE-61" value="&lt;span style=&quot;font-size: 14px;&quot;&gt;hash_valid == 1&lt;/span&gt;" style="text;html=1;strokeColor=none;fillColor=none;align=center;verticalAlign=middle;whiteSpace=wrap;rounded=0;" parent="1" vertex="1">
          <mxGeometry x="110" y="680" width="120" height="30" as="geometry" />
        </mxCell>
        <mxCell id="ZrfFpXfTxoUzrKwfFDiE-63" value="&lt;span style=&quot;font-size: 14px;&quot;&gt;hash_valid == 1&lt;/span&gt;" style="text;html=1;strokeColor=none;fillColor=none;align=center;verticalAlign=middle;whiteSpace=wrap;rounded=0;" parent="1" vertex="1">
          <mxGeometry x="110" y="520" width="120" height="30" as="geometry" />
        </mxCell>
        <mxCell id="ZrfFpXfTxoUzrKwfFDiE-64" value="&lt;font style=&quot;font-size: 14px;&quot;&gt;c == 1000&lt;/font&gt;" style="text;html=1;strokeColor=none;fillColor=none;align=center;verticalAlign=middle;whiteSpace=wrap;rounded=0;" parent="1" vertex="1">
          <mxGeometry x="-310" y="270" width="100" height="30" as="geometry" />
        </mxCell>
        <mxCell id="ZrfFpXfTxoUzrKwfFDiE-66" value="&lt;font style=&quot;font-size: 14px;&quot;&gt;c = 0&lt;/font&gt;" style="text;html=1;strokeColor=none;fillColor=none;align=center;verticalAlign=middle;whiteSpace=wrap;rounded=0;" parent="1" vertex="1">
          <mxGeometry x="-170" y="340" width="50" height="30" as="geometry" />
        </mxCell>
        <mxCell id="ZrfFpXfTxoUzrKwfFDiE-67" value="&lt;font style=&quot;font-size: 14px;&quot;&gt;c &amp;lt; 1000&lt;/font&gt;" style="text;html=1;strokeColor=none;fillColor=none;align=center;verticalAlign=middle;whiteSpace=wrap;rounded=0;" parent="1" vertex="1">
          <mxGeometry x="-20" y="130" width="80" height="30" as="geometry" />
        </mxCell>
        <mxCell id="ZrfFpXfTxoUzrKwfFDiE-72" value="&lt;span style=&quot;font-size: 14px;&quot;&gt;data = ikey_pad&lt;/span&gt;" style="text;html=1;strokeColor=none;fillColor=none;align=center;verticalAlign=middle;whiteSpace=wrap;rounded=0;" parent="1" vertex="1">
          <mxGeometry x="480" y="270" width="130" height="30" as="geometry" />
        </mxCell>
        <mxCell id="ZrfFpXfTxoUzrKwfFDiE-73" value="&lt;span style=&quot;font-size: 14px;&quot;&gt;key = 0&lt;/span&gt;" style="text;html=1;strokeColor=none;fillColor=none;align=center;verticalAlign=middle;whiteSpace=wrap;rounded=0;" parent="1" vertex="1">
          <mxGeometry x="480" y="300" width="80" height="30" as="geometry" />
        </mxCell>
        <mxCell id="ZrfFpXfTxoUzrKwfFDiE-75" value="&lt;span style=&quot;font-size: 14px;&quot;&gt;data = data_reg&lt;/span&gt;" style="text;html=1;strokeColor=none;fillColor=none;align=center;verticalAlign=middle;whiteSpace=wrap;rounded=0;" parent="1" vertex="1">
          <mxGeometry x="480" y="430" width="130" height="30" as="geometry" />
        </mxCell>
        <mxCell id="ZrfFpXfTxoUzrKwfFDiE-76" value="&lt;span style=&quot;font-size: 14px;&quot;&gt;key = hash_out&lt;/span&gt;" style="text;html=1;strokeColor=none;fillColor=none;align=center;verticalAlign=middle;whiteSpace=wrap;rounded=0;" parent="1" vertex="1">
          <mxGeometry x="480" y="460" width="130" height="30" as="geometry" />
        </mxCell>
        <mxCell id="ZrfFpXfTxoUzrKwfFDiE-78" value="&lt;span style=&quot;font-size: 14px;&quot;&gt;data = (c == 0) ? 32&#39;b1 : 0&amp;nbsp;&lt;/span&gt;" style="text;html=1;strokeColor=none;fillColor=none;align=center;verticalAlign=middle;whiteSpace=wrap;rounded=0;" parent="1" vertex="1">
          <mxGeometry x="490" y="590" width="170" height="30" as="geometry" />
        </mxCell>
        <mxCell id="ZrfFpXfTxoUzrKwfFDiE-81" value="&lt;span style=&quot;font-size: 14px;&quot;&gt;key = hash_out&lt;/span&gt;" style="text;html=1;strokeColor=none;fillColor=none;align=center;verticalAlign=middle;whiteSpace=wrap;rounded=0;" parent="1" vertex="1">
          <mxGeometry x="475" y="620" width="135" height="30" as="geometry" />
        </mxCell>
        <mxCell id="ZrfFpXfTxoUzrKwfFDiE-82" value="&lt;font style=&quot;font-size: 14px;&quot;&gt;o_key_valid =&lt;br&gt;&amp;nbsp;(c == 1000) ?&lt;/font&gt;" style="text;html=1;strokeColor=none;fillColor=none;align=center;verticalAlign=middle;whiteSpace=wrap;rounded=0;" parent="1" vertex="1">
          <mxGeometry x="-560" y="260" width="130" height="30" as="geometry" />
        </mxCell>
        <mxCell id="ZrfFpXfTxoUzrKwfFDiE-84" value="&lt;span style=&quot;font-size: 14px;&quot;&gt;data_reg = hash_out&lt;/span&gt;" style="text;html=1;strokeColor=none;fillColor=none;align=center;verticalAlign=middle;whiteSpace=wrap;rounded=0;" parent="1" vertex="1">
          <mxGeometry x="480" y="740" width="145" height="30" as="geometry" />
        </mxCell>
        <mxCell id="ZrfFpXfTxoUzrKwfFDiE-86" value="&lt;span style=&quot;font-size: 14px;&quot;&gt;data = okey_pad&lt;/span&gt;" style="text;html=1;strokeColor=none;fillColor=none;align=center;verticalAlign=middle;whiteSpace=wrap;rounded=0;" parent="1" vertex="1">
          <mxGeometry x="110" y="810" width="130" height="30" as="geometry" />
        </mxCell>
        <mxCell id="ZrfFpXfTxoUzrKwfFDiE-87" value="&lt;span style=&quot;font-size: 14px;&quot;&gt;key = 0&lt;/span&gt;" style="text;html=1;strokeColor=none;fillColor=none;align=center;verticalAlign=middle;whiteSpace=wrap;rounded=0;" parent="1" vertex="1">
          <mxGeometry x="110" y="840" width="80" height="30" as="geometry" />
        </mxCell>
        <mxCell id="ZrfFpXfTxoUzrKwfFDiE-88" style="edgeStyle=orthogonalEdgeStyle;rounded=0;orthogonalLoop=1;jettySize=auto;html=1;endArrow=none;endFill=0;entryX=0;entryY=0.5;entryDx=0;entryDy=0;" parent="1" target="ZrfFpXfTxoUzrKwfFDiE-16" edge="1">
          <mxGeometry relative="1" as="geometry">
            <mxPoint x="-50" y="620" as="targetPoint" />
            <mxPoint x="-110" y="620" as="sourcePoint" />
          </mxGeometry>
        </mxCell>
        <mxCell id="ZrfFpXfTxoUzrKwfFDiE-89" value="&lt;span style=&quot;font-size: 14px;&quot;&gt;data = data_reg&lt;/span&gt;" style="text;html=1;strokeColor=none;fillColor=none;align=center;verticalAlign=middle;whiteSpace=wrap;rounded=0;" parent="1" vertex="1">
          <mxGeometry x="-110" y="590" width="130" height="30" as="geometry" />
        </mxCell>
        <mxCell id="ZrfFpXfTxoUzrKwfFDiE-90" value="&lt;span style=&quot;font-size: 14px;&quot;&gt;key = hash_out&lt;/span&gt;" style="text;html=1;strokeColor=none;fillColor=none;align=center;verticalAlign=middle;whiteSpace=wrap;rounded=0;" parent="1" vertex="1">
          <mxGeometry x="-110" y="620" width="130" height="30" as="geometry" />
        </mxCell>
        <mxCell id="ZrfFpXfTxoUzrKwfFDiE-92" value="&lt;span style=&quot;font-size: 14px;&quot;&gt;key = hash_out&lt;/span&gt;" style="text;html=1;strokeColor=none;fillColor=none;align=center;verticalAlign=middle;whiteSpace=wrap;rounded=0;" parent="1" vertex="1">
          <mxGeometry x="110" y="390" width="135" height="30" as="geometry" />
        </mxCell>
        <mxCell id="ZrfFpXfTxoUzrKwfFDiE-93" value="&lt;span style=&quot;font-size: 14px;&quot;&gt;data = 0&lt;/span&gt;" style="text;html=1;strokeColor=none;fillColor=none;align=center;verticalAlign=middle;whiteSpace=wrap;rounded=0;" parent="1" vertex="1">
          <mxGeometry x="110" y="360" width="90" height="30" as="geometry" />
        </mxCell>
        <mxCell id="ZrfFpXfTxoUzrKwfFDiE-95" value="&lt;font style=&quot;font-size: 14px;&quot;&gt;c =&amp;nbsp; c +1&amp;nbsp;&lt;/font&gt;" style="text;html=1;strokeColor=none;fillColor=none;align=center;verticalAlign=middle;whiteSpace=wrap;rounded=0;" parent="1" vertex="1">
          <mxGeometry x="-270" y="530" width="70" height="30" as="geometry" />
        </mxCell>
        <mxCell id="ZrfFpXfTxoUzrKwfFDiE-96" value="&lt;span style=&quot;font-size: 14px;&quot;&gt;data_reg = hash_out&lt;/span&gt;" style="text;html=1;strokeColor=none;fillColor=none;align=center;verticalAlign=middle;whiteSpace=wrap;rounded=0;" parent="1" vertex="1">
          <mxGeometry x="-340" y="500" width="140" height="30" as="geometry" />
        </mxCell>
        <mxCell id="ZrfFpXfTxoUzrKwfFDiE-98" value="&lt;font style=&quot;font-size: 14px;&quot;&gt;o_key = &lt;br&gt;o_key ^ data_reg&lt;/font&gt;" style="text;html=1;strokeColor=none;fillColor=none;align=center;verticalAlign=middle;whiteSpace=wrap;rounded=0;" parent="1" vertex="1">
          <mxGeometry x="-560" y="310" width="130" height="30" as="geometry" />
        </mxCell>
        <mxCell id="ZrfFpXfTxoUzrKwfFDiE-99" style="edgeStyle=orthogonalEdgeStyle;rounded=0;orthogonalLoop=1;jettySize=auto;html=1;exitX=0.5;exitY=1;exitDx=0;exitDy=0;" parent="1" source="ZrfFpXfTxoUzrKwfFDiE-63" target="ZrfFpXfTxoUzrKwfFDiE-63" edge="1">
          <mxGeometry relative="1" as="geometry" />
        </mxCell>
        <mxCell id="ZrfFpXfTxoUzrKwfFDiE-101" value="&lt;span style=&quot;font-size: 14px;&quot;&gt;data_reg = i_salt&lt;/span&gt;" style="text;html=1;strokeColor=none;fillColor=none;align=center;verticalAlign=middle;whiteSpace=wrap;rounded=0;" parent="1" vertex="1">
          <mxGeometry x="-120" y="370" width="120" height="30" as="geometry" />
        </mxCell>
        <mxCell id="ZrfFpXfTxoUzrKwfFDiE-103" value="&lt;font style=&quot;font-size: 14px;&quot;&gt;o_key_valid = 0&lt;/font&gt;" style="text;html=1;strokeColor=none;fillColor=none;align=center;verticalAlign=middle;whiteSpace=wrap;rounded=0;" parent="1" vertex="1">
          <mxGeometry x="-120" y="340" width="120" height="30" as="geometry" />
        </mxCell>
        <mxCell id="ZrfFpXfTxoUzrKwfFDiE-105" value="&lt;span style=&quot;font-size: 14px;&quot;&gt;passin = i_pass&lt;/span&gt;" style="text;html=1;strokeColor=none;fillColor=none;align=center;verticalAlign=middle;whiteSpace=wrap;rounded=0;" parent="1" vertex="1">
          <mxGeometry x="-230" y="370" width="110" height="30" as="geometry" />
        </mxCell>
      </root>
    </mxGraphModel>
  </diagram>
  <diagram id="e7IkYCtRfuxWuepX925x" name="WHIRLPOOL_IO">
    <mxGraphModel dx="1036" dy="654" grid="1" gridSize="10" guides="1" tooltips="1" connect="1" arrows="1" fold="1" page="1" pageScale="1" pageWidth="850" pageHeight="1100" math="0" shadow="0">
      <root>
        <mxCell id="0" />
        <mxCell id="1" parent="0" />
        <mxCell id="KpGwRYUAqgVmdmZdHEty-2" style="edgeStyle=orthogonalEdgeStyle;rounded=0;orthogonalLoop=1;jettySize=auto;html=1;exitX=1;exitY=0.5;exitDx=0;exitDy=0;" parent="1" edge="1">
          <mxGeometry relative="1" as="geometry">
            <mxPoint x="720" y="519" as="targetPoint" />
            <mxPoint x="580" y="519.17" as="sourcePoint" />
          </mxGeometry>
        </mxCell>
        <mxCell id="KpGwRYUAqgVmdmZdHEty-3" style="edgeStyle=orthogonalEdgeStyle;rounded=0;orthogonalLoop=1;jettySize=auto;html=1;exitX=1;exitY=0.75;exitDx=0;exitDy=0;" parent="1" edge="1">
          <mxGeometry relative="1" as="geometry">
            <mxPoint x="720" y="660" as="targetPoint" />
            <mxPoint x="580" y="660" as="sourcePoint" />
          </mxGeometry>
        </mxCell>
        <mxCell id="KpGwRYUAqgVmdmZdHEty-4" value="&lt;span style=&quot;font-size: 24px;&quot;&gt;WHIRLPOOL_HASH&lt;/span&gt;" style="rounded=0;whiteSpace=wrap;html=1;" parent="1" vertex="1">
          <mxGeometry x="260" y="320" width="320" height="480" as="geometry" />
        </mxCell>
        <mxCell id="KpGwRYUAqgVmdmZdHEty-5" value="" style="endArrow=classic;html=1;rounded=0;entryX=-0.001;entryY=0.165;entryDx=0;entryDy=0;entryPerimeter=0;fontSize=15;" parent="1" target="KpGwRYUAqgVmdmZdHEty-4" edge="1">
          <mxGeometry width="50" height="50" relative="1" as="geometry">
            <mxPoint x="120" y="400" as="sourcePoint" />
            <mxPoint x="250" y="470" as="targetPoint" />
          </mxGeometry>
        </mxCell>
        <mxCell id="KpGwRYUAqgVmdmZdHEty-6" value="&lt;font style=&quot;font-size: 16px;&quot;&gt;i_clk&lt;/font&gt;" style="text;html=1;strokeColor=none;fillColor=none;align=center;verticalAlign=middle;whiteSpace=wrap;rounded=0;" parent="1" vertex="1">
          <mxGeometry x="120" y="370" width="60" height="30" as="geometry" />
        </mxCell>
        <mxCell id="KpGwRYUAqgVmdmZdHEty-7" value="" style="endArrow=classic;html=1;rounded=0;entryX=-0.001;entryY=0.165;entryDx=0;entryDy=0;entryPerimeter=0;fontSize=15;" parent="1" edge="1">
          <mxGeometry width="50" height="50" relative="1" as="geometry">
            <mxPoint x="120" y="460" as="sourcePoint" />
            <mxPoint x="260" y="459" as="targetPoint" />
          </mxGeometry>
        </mxCell>
        <mxCell id="KpGwRYUAqgVmdmZdHEty-8" value="&lt;font style=&quot;font-size: 16px;&quot;&gt;i_rstn&lt;/font&gt;" style="text;html=1;strokeColor=none;fillColor=none;align=center;verticalAlign=middle;whiteSpace=wrap;rounded=0;" parent="1" vertex="1">
          <mxGeometry x="120" y="430" width="60" height="30" as="geometry" />
        </mxCell>
        <mxCell id="KpGwRYUAqgVmdmZdHEty-9" value="" style="endArrow=classic;html=1;rounded=0;entryX=-0.001;entryY=0.165;entryDx=0;entryDy=0;entryPerimeter=0;fontSize=15;" parent="1" edge="1">
          <mxGeometry width="50" height="50" relative="1" as="geometry">
            <mxPoint x="120" y="520" as="sourcePoint" />
            <mxPoint x="260" y="519" as="targetPoint" />
          </mxGeometry>
        </mxCell>
        <mxCell id="KpGwRYUAqgVmdmZdHEty-10" value="&lt;span style=&quot;font-size: 16px;&quot;&gt;init&lt;/span&gt;" style="text;html=1;strokeColor=none;fillColor=none;align=center;verticalAlign=middle;whiteSpace=wrap;rounded=0;" parent="1" vertex="1">
          <mxGeometry x="120" y="490" width="40" height="30" as="geometry" />
        </mxCell>
        <mxCell id="KpGwRYUAqgVmdmZdHEty-11" value="" style="endArrow=classic;html=1;rounded=0;entryX=-0.001;entryY=0.165;entryDx=0;entryDy=0;entryPerimeter=0;fontSize=15;" parent="1" edge="1">
          <mxGeometry width="50" height="50" relative="1" as="geometry">
            <mxPoint x="120" y="580" as="sourcePoint" />
            <mxPoint x="260" y="579" as="targetPoint" />
          </mxGeometry>
        </mxCell>
        <mxCell id="KpGwRYUAqgVmdmZdHEty-12" value="&lt;span style=&quot;font-size: 16px;&quot;&gt;i_subkey_valid&lt;/span&gt;" style="text;html=1;strokeColor=none;fillColor=none;align=center;verticalAlign=middle;whiteSpace=wrap;rounded=0;" parent="1" vertex="1">
          <mxGeometry x="120" y="550" width="125" height="30" as="geometry" />
        </mxCell>
        <mxCell id="KpGwRYUAqgVmdmZdHEty-13" value="" style="endArrow=classic;html=1;rounded=0;entryX=-0.001;entryY=0.165;entryDx=0;entryDy=0;entryPerimeter=0;fontSize=15;exitX=0;exitY=1;exitDx=0;exitDy=0;" parent="1" source="KpGwRYUAqgVmdmZdHEty-14" edge="1">
          <mxGeometry width="50" height="50" relative="1" as="geometry">
            <mxPoint x="140" y="640" as="sourcePoint" />
            <mxPoint x="260" y="639" as="targetPoint" />
          </mxGeometry>
        </mxCell>
        <mxCell id="KpGwRYUAqgVmdmZdHEty-14" value="&lt;font style=&quot;font-size: 16px;&quot;&gt;i_data&lt;/font&gt;" style="text;html=1;strokeColor=none;fillColor=none;align=center;verticalAlign=middle;whiteSpace=wrap;rounded=0;" parent="1" vertex="1">
          <mxGeometry x="120" y="610" width="60" height="30" as="geometry" />
        </mxCell>
        <mxCell id="KpGwRYUAqgVmdmZdHEty-15" value="" style="endArrow=classic;html=1;rounded=0;entryX=-0.001;entryY=0.165;entryDx=0;entryDy=0;entryPerimeter=0;fontSize=15;exitX=0;exitY=1;exitDx=0;exitDy=0;" parent="1" source="KpGwRYUAqgVmdmZdHEty-16" edge="1">
          <mxGeometry width="50" height="50" relative="1" as="geometry">
            <mxPoint x="140" y="700" as="sourcePoint" />
            <mxPoint x="260" y="699" as="targetPoint" />
          </mxGeometry>
        </mxCell>
        <mxCell id="KpGwRYUAqgVmdmZdHEty-16" value="&lt;font style=&quot;font-size: 16px;&quot;&gt;i_key&lt;/font&gt;" style="text;html=1;strokeColor=none;fillColor=none;align=center;verticalAlign=middle;whiteSpace=wrap;rounded=0;" parent="1" vertex="1">
          <mxGeometry x="120" y="670" width="50" height="30" as="geometry" />
        </mxCell>
        <mxCell id="KpGwRYUAqgVmdmZdHEty-18" value="&lt;span style=&quot;font-size: 16px;&quot;&gt;o_hash_valid&lt;/span&gt;" style="text;html=1;strokeColor=none;fillColor=none;align=center;verticalAlign=middle;whiteSpace=wrap;rounded=0;rotation=0;" parent="1" vertex="1">
          <mxGeometry x="590" y="489.17" width="90" height="30" as="geometry" />
        </mxCell>
        <mxCell id="KpGwRYUAqgVmdmZdHEty-19" value="&lt;font style=&quot;font-size: 16px;&quot;&gt;o_hash_out&lt;/font&gt;" style="text;html=1;strokeColor=none;fillColor=none;align=center;verticalAlign=middle;whiteSpace=wrap;rounded=0;" parent="1" vertex="1">
          <mxGeometry x="580" y="630" width="100" height="30" as="geometry" />
        </mxCell>
        <mxCell id="KpGwRYUAqgVmdmZdHEty-20" value="" style="endArrow=none;html=1;rounded=0;" parent="1" edge="1">
          <mxGeometry width="50" height="50" relative="1" as="geometry">
            <mxPoint x="220" y="650" as="sourcePoint" />
            <mxPoint x="240" y="630" as="targetPoint" />
          </mxGeometry>
        </mxCell>
        <mxCell id="KpGwRYUAqgVmdmZdHEty-21" value="512" style="text;html=1;strokeColor=none;fillColor=none;align=center;verticalAlign=middle;whiteSpace=wrap;rounded=0;" parent="1" vertex="1">
          <mxGeometry x="200" y="610" width="60" height="20" as="geometry" />
        </mxCell>
        <mxCell id="KpGwRYUAqgVmdmZdHEty-22" value="" style="endArrow=none;html=1;rounded=0;" parent="1" edge="1">
          <mxGeometry width="50" height="50" relative="1" as="geometry">
            <mxPoint x="220" y="710" as="sourcePoint" />
            <mxPoint x="240" y="690" as="targetPoint" />
          </mxGeometry>
        </mxCell>
        <mxCell id="KpGwRYUAqgVmdmZdHEty-24" value="" style="endArrow=none;html=1;rounded=0;" parent="1" edge="1">
          <mxGeometry width="50" height="50" relative="1" as="geometry">
            <mxPoint x="690" y="670" as="sourcePoint" />
            <mxPoint x="710" y="650" as="targetPoint" />
          </mxGeometry>
        </mxCell>
        <mxCell id="KpGwRYUAqgVmdmZdHEty-25" value="512" style="text;html=1;strokeColor=none;fillColor=none;align=center;verticalAlign=middle;whiteSpace=wrap;rounded=0;" parent="1" vertex="1">
          <mxGeometry x="670" y="630" width="60" height="20" as="geometry" />
        </mxCell>
        <mxCell id="KpGwRYUAqgVmdmZdHEty-28" value="" style="endArrow=classic;html=1;rounded=0;entryX=-0.001;entryY=0.165;entryDx=0;entryDy=0;entryPerimeter=0;fontSize=15;exitX=0;exitY=1;exitDx=0;exitDy=0;" parent="1" source="KpGwRYUAqgVmdmZdHEty-29" edge="1">
          <mxGeometry width="50" height="50" relative="1" as="geometry">
            <mxPoint x="140" y="760" as="sourcePoint" />
            <mxPoint x="260" y="759" as="targetPoint" />
          </mxGeometry>
        </mxCell>
        <mxCell id="KpGwRYUAqgVmdmZdHEty-29" value="&lt;font style=&quot;font-size: 16px;&quot;&gt;i_sub_key&lt;/font&gt;" style="text;html=1;strokeColor=none;fillColor=none;align=center;verticalAlign=middle;whiteSpace=wrap;rounded=0;" parent="1" vertex="1">
          <mxGeometry x="120" y="730" width="70" height="30" as="geometry" />
        </mxCell>
        <mxCell id="KpGwRYUAqgVmdmZdHEty-30" value="" style="endArrow=none;html=1;rounded=0;" parent="1" edge="1">
          <mxGeometry width="50" height="50" relative="1" as="geometry">
            <mxPoint x="220" y="770" as="sourcePoint" />
            <mxPoint x="240" y="750" as="targetPoint" />
          </mxGeometry>
        </mxCell>
        <mxCell id="KpGwRYUAqgVmdmZdHEty-32" value="512" style="text;html=1;strokeColor=none;fillColor=none;align=center;verticalAlign=middle;whiteSpace=wrap;rounded=0;" parent="1" vertex="1">
          <mxGeometry x="200" y="670" width="60" height="20" as="geometry" />
        </mxCell>
        <mxCell id="KpGwRYUAqgVmdmZdHEty-33" value="512" style="text;html=1;strokeColor=none;fillColor=none;align=center;verticalAlign=middle;whiteSpace=wrap;rounded=0;" parent="1" vertex="1">
          <mxGeometry x="200" y="730" width="60" height="20" as="geometry" />
        </mxCell>
      </root>
    </mxGraphModel>
  </diagram>
  <diagram id="HTID1ShRYhfqjL1Wee-H" name="WHIRLPOOL">
    <mxGraphModel dx="1036" dy="654" grid="1" gridSize="10" guides="1" tooltips="1" connect="1" arrows="1" fold="1" page="1" pageScale="1" pageWidth="850" pageHeight="1100" math="0" shadow="0">
      <root>
        <mxCell id="0" />
        <mxCell id="1" parent="0" />
        <mxCell id="7jtCfgJRPpySXybd_DqA-1" value="WHIRLPOOL_HASH" style="swimlane;whiteSpace=wrap;html=1;fillColor=#a20025;fontColor=#ffffff;strokeColor=#6F0000;" parent="1" vertex="1">
          <mxGeometry x="310" y="240" width="1130" height="680" as="geometry" />
        </mxCell>
        <mxCell id="6TICbhq8YfkawvaB054l-101" style="edgeStyle=orthogonalEdgeStyle;rounded=0;orthogonalLoop=1;jettySize=auto;html=1;exitX=0.5;exitY=1;exitDx=0;exitDy=0;entryX=0;entryY=0.5;entryDx=0;entryDy=0;fillColor=#0050ef;strokeColor=#001DBC;dashed=1;dashPattern=8 8;" parent="7jtCfgJRPpySXybd_DqA-1" source="6TICbhq8YfkawvaB054l-116" target="6TICbhq8YfkawvaB054l-48" edge="1">
          <mxGeometry relative="1" as="geometry">
            <Array as="points">
              <mxPoint x="1000" y="600" />
              <mxPoint x="130" y="600" />
              <mxPoint x="130" y="553" />
            </Array>
          </mxGeometry>
        </mxCell>
        <mxCell id="7jtCfgJRPpySXybd_DqA-2" value="WHIRLPOOL_WCIPHER_ROUND" style="swimlane;whiteSpace=wrap;html=1;fillColor=#1ba1e2;fontColor=#ffffff;strokeColor=#006EAF;" parent="7jtCfgJRPpySXybd_DqA-1" vertex="1">
          <mxGeometry x="520" y="355" width="430" height="210" as="geometry" />
        </mxCell>
        <mxCell id="rO0VlHsT6XO2fZvUlUE7-25" style="edgeStyle=orthogonalEdgeStyle;rounded=0;orthogonalLoop=1;jettySize=auto;html=1;entryX=0.5;entryY=1;entryDx=0;entryDy=0;dashed=1;dashPattern=8 8;fillColor=#6a00ff;strokeColor=#3700CC;" parent="7jtCfgJRPpySXybd_DqA-2" source="rO0VlHsT6XO2fZvUlUE7-18" target="rO0VlHsT6XO2fZvUlUE7-22" edge="1">
          <mxGeometry relative="1" as="geometry" />
        </mxCell>
        <mxCell id="rO0VlHsT6XO2fZvUlUE7-18" value="SubBytes" style="rounded=0;whiteSpace=wrap;html=1;rotation=90;horizontal=0;" parent="7jtCfgJRPpySXybd_DqA-2" vertex="1">
          <mxGeometry x="40" y="75" width="120" height="60" as="geometry" />
        </mxCell>
        <mxCell id="rO0VlHsT6XO2fZvUlUE7-26" style="edgeStyle=orthogonalEdgeStyle;rounded=0;orthogonalLoop=1;jettySize=auto;html=1;entryX=0.5;entryY=1;entryDx=0;entryDy=0;dashed=1;dashPattern=8 8;fillColor=#6a00ff;strokeColor=#3700CC;" parent="7jtCfgJRPpySXybd_DqA-2" source="rO0VlHsT6XO2fZvUlUE7-22" target="rO0VlHsT6XO2fZvUlUE7-23" edge="1">
          <mxGeometry relative="1" as="geometry" />
        </mxCell>
        <mxCell id="rO0VlHsT6XO2fZvUlUE7-22" value="ShiftCol" style="rounded=0;whiteSpace=wrap;html=1;rotation=90;horizontal=0;" parent="7jtCfgJRPpySXybd_DqA-2" vertex="1">
          <mxGeometry x="160" y="74.99999999999994" width="120" height="60" as="geometry" />
        </mxCell>
        <mxCell id="rO0VlHsT6XO2fZvUlUE7-45" style="edgeStyle=orthogonalEdgeStyle;rounded=0;orthogonalLoop=1;jettySize=auto;html=1;fillColor=#6a00ff;strokeColor=#3700CC;dashed=1;dashPattern=8 8;" parent="7jtCfgJRPpySXybd_DqA-2" source="rO0VlHsT6XO2fZvUlUE7-23" edge="1">
          <mxGeometry relative="1" as="geometry">
            <mxPoint x="430" y="105" as="targetPoint" />
          </mxGeometry>
        </mxCell>
        <mxCell id="rO0VlHsT6XO2fZvUlUE7-23" value="MixRow" style="rounded=0;whiteSpace=wrap;html=1;rotation=90;horizontal=0;" parent="7jtCfgJRPpySXybd_DqA-2" vertex="1">
          <mxGeometry x="280" y="74.99999999999994" width="120" height="60" as="geometry" />
        </mxCell>
        <mxCell id="rO0VlHsT6XO2fZvUlUE7-43" value="" style="endArrow=classic;html=1;rounded=0;exitX=0;exitY=0.5;exitDx=0;exitDy=0;entryX=0.5;entryY=1;entryDx=0;entryDy=0;fillColor=#6a00ff;strokeColor=#3700CC;dashed=1;dashPattern=8 8;" parent="7jtCfgJRPpySXybd_DqA-2" source="7jtCfgJRPpySXybd_DqA-2" target="rO0VlHsT6XO2fZvUlUE7-18" edge="1">
          <mxGeometry width="50" height="50" relative="1" as="geometry">
            <mxPoint x="40" y="125" as="sourcePoint" />
            <mxPoint x="90" y="75" as="targetPoint" />
          </mxGeometry>
        </mxCell>
        <mxCell id="JFPsZiD98YqkxP3_VJX_-1" value="&lt;font style=&quot;font-size: 14px;&quot;&gt;o_data&lt;/font&gt;" style="text;html=1;strokeColor=none;fillColor=none;align=center;verticalAlign=middle;whiteSpace=wrap;rounded=0;" parent="7jtCfgJRPpySXybd_DqA-2" vertex="1">
          <mxGeometry x="370" y="75" width="60" height="30" as="geometry" />
        </mxCell>
        <mxCell id="6TICbhq8YfkawvaB054l-103" style="edgeStyle=orthogonalEdgeStyle;rounded=0;orthogonalLoop=1;jettySize=auto;html=1;entryX=0.25;entryY=1;entryDx=0;entryDy=0;fillColor=#0050ef;strokeColor=#001DBC;dashed=1;dashPattern=8 8;" parent="7jtCfgJRPpySXybd_DqA-1" source="J8UpJb78FnJa41LTuPSA-25" target="6TICbhq8YfkawvaB054l-102" edge="1">
          <mxGeometry relative="1" as="geometry" />
        </mxCell>
        <mxCell id="J8UpJb78FnJa41LTuPSA-25" value="" style="shape=trapezoid;perimeter=trapezoidPerimeter;whiteSpace=wrap;html=1;fixedSize=1;rotation=90;" parent="7jtCfgJRPpySXybd_DqA-1" vertex="1">
          <mxGeometry x="90" y="371.02" width="97.97" height="30" as="geometry" />
        </mxCell>
        <mxCell id="J8UpJb78FnJa41LTuPSA-29" value="round" style="rounded=1;whiteSpace=wrap;html=1;" parent="7jtCfgJRPpySXybd_DqA-1" vertex="1">
          <mxGeometry x="360" y="239.94" width="80" height="120" as="geometry" />
        </mxCell>
        <mxCell id="J8UpJb78FnJa41LTuPSA-31" style="edgeStyle=orthogonalEdgeStyle;rounded=0;orthogonalLoop=1;jettySize=auto;html=1;entryX=0;entryY=0.5;entryDx=0;entryDy=0;dashed=1;dashPattern=8 8;fillColor=#0050ef;strokeColor=#001DBC;" parent="7jtCfgJRPpySXybd_DqA-1" source="J8UpJb78FnJa41LTuPSA-30" target="7jtCfgJRPpySXybd_DqA-2" edge="1">
          <mxGeometry relative="1" as="geometry" />
        </mxCell>
        <mxCell id="J8UpJb78FnJa41LTuPSA-30" value="data" style="rounded=1;whiteSpace=wrap;html=1;" parent="7jtCfgJRPpySXybd_DqA-1" vertex="1">
          <mxGeometry x="360" y="400" width="80" height="120" as="geometry" />
        </mxCell>
        <mxCell id="J8UpJb78FnJa41LTuPSA-38" style="edgeStyle=orthogonalEdgeStyle;rounded=0;orthogonalLoop=1;jettySize=auto;html=1;exitX=0.5;exitY=0;exitDx=0;exitDy=0;entryX=0;entryY=0.5;entryDx=0;entryDy=0;fillColor=#0050ef;strokeColor=#001DBC;dashed=1;dashPattern=8 8;" parent="7jtCfgJRPpySXybd_DqA-1" source="J8UpJb78FnJa41LTuPSA-35" target="J8UpJb78FnJa41LTuPSA-29" edge="1">
          <mxGeometry relative="1" as="geometry">
            <Array as="points">
              <mxPoint x="320" y="270" />
              <mxPoint x="320" y="300" />
            </Array>
          </mxGeometry>
        </mxCell>
        <mxCell id="J8UpJb78FnJa41LTuPSA-35" value="" style="shape=trapezoid;perimeter=trapezoidPerimeter;whiteSpace=wrap;html=1;fixedSize=1;rotation=90;" parent="7jtCfgJRPpySXybd_DqA-1" vertex="1">
          <mxGeometry x="173.75" y="256.86" width="92.5" height="26.15" as="geometry" />
        </mxCell>
        <mxCell id="J8UpJb78FnJa41LTuPSA-52" style="edgeStyle=orthogonalEdgeStyle;rounded=0;orthogonalLoop=1;jettySize=auto;html=1;dashed=1;dashPattern=8 8;fillColor=#0050ef;strokeColor=#001DBC;entryX=0.75;entryY=1;entryDx=0;entryDy=0;" parent="7jtCfgJRPpySXybd_DqA-1" source="J8UpJb78FnJa41LTuPSA-57" target="J8UpJb78FnJa41LTuPSA-51" edge="1">
          <mxGeometry relative="1" as="geometry">
            <mxPoint x="580" y="300" as="targetPoint" />
          </mxGeometry>
        </mxCell>
        <mxCell id="6TICbhq8YfkawvaB054l-171" style="edgeStyle=orthogonalEdgeStyle;rounded=0;orthogonalLoop=1;jettySize=auto;html=1;exitX=0.5;exitY=0;exitDx=0;exitDy=0;fillColor=#e51400;strokeColor=#B20000;dashed=1;dashPattern=8 8;endArrow=oval;endFill=1;" parent="7jtCfgJRPpySXybd_DqA-1" edge="1">
          <mxGeometry relative="1" as="geometry">
            <mxPoint x="770" y="60" as="targetPoint" />
            <mxPoint x="500" y="284.94000000000005" as="sourcePoint" />
            <Array as="points">
              <mxPoint x="500" y="60" />
              <mxPoint x="770" y="60" />
            </Array>
          </mxGeometry>
        </mxCell>
        <mxCell id="J8UpJb78FnJa41LTuPSA-47" style="edgeStyle=orthogonalEdgeStyle;rounded=0;orthogonalLoop=1;jettySize=auto;html=1;entryX=0.75;entryY=1;entryDx=0;entryDy=0;dashed=1;dashPattern=8 8;fillColor=#0050ef;strokeColor=#001DBC;" parent="7jtCfgJRPpySXybd_DqA-1" source="J8UpJb78FnJa41LTuPSA-46" target="6TICbhq8YfkawvaB054l-102" edge="1">
          <mxGeometry relative="1" as="geometry" />
        </mxCell>
        <mxCell id="J8UpJb78FnJa41LTuPSA-46" value="" style="shape=trapezoid;perimeter=trapezoidPerimeter;whiteSpace=wrap;html=1;fixedSize=1;rotation=90;" parent="7jtCfgJRPpySXybd_DqA-1" vertex="1">
          <mxGeometry x="140" y="510" width="100" height="30" as="geometry" />
        </mxCell>
        <mxCell id="J8UpJb78FnJa41LTuPSA-61" style="edgeStyle=orthogonalEdgeStyle;rounded=0;orthogonalLoop=1;jettySize=auto;html=1;fillColor=#0050ef;strokeColor=#001DBC;dashed=1;dashPattern=8 8;entryX=0.25;entryY=1;entryDx=0;entryDy=0;exitX=0.5;exitY=0;exitDx=0;exitDy=0;" parent="7jtCfgJRPpySXybd_DqA-1" source="J8UpJb78FnJa41LTuPSA-51" target="J8UpJb78FnJa41LTuPSA-35" edge="1">
          <mxGeometry relative="1" as="geometry">
            <mxPoint x="210" y="240" as="targetPoint" />
            <Array as="points">
              <mxPoint x="700" y="270" />
              <mxPoint x="700" y="190" />
              <mxPoint x="190" y="190" />
              <mxPoint x="190" y="247" />
            </Array>
          </mxGeometry>
        </mxCell>
        <mxCell id="J8UpJb78FnJa41LTuPSA-51" value="" style="shape=trapezoid;perimeter=trapezoidPerimeter;whiteSpace=wrap;html=1;fixedSize=1;rotation=90;" parent="7jtCfgJRPpySXybd_DqA-1" vertex="1">
          <mxGeometry x="600" y="254.94" width="120" height="30" as="geometry" />
        </mxCell>
        <mxCell id="J8UpJb78FnJa41LTuPSA-49" style="edgeStyle=orthogonalEdgeStyle;rounded=0;orthogonalLoop=1;jettySize=auto;html=1;fillColor=#0050ef;strokeColor=#001DBC;dashed=1;dashPattern=8 8;" parent="7jtCfgJRPpySXybd_DqA-1" source="J8UpJb78FnJa41LTuPSA-29" edge="1">
          <mxGeometry relative="1" as="geometry">
            <mxPoint x="560" y="300" as="targetPoint" />
          </mxGeometry>
        </mxCell>
        <mxCell id="J8UpJb78FnJa41LTuPSA-57" value="+1" style="rounded=0;whiteSpace=wrap;html=1;" parent="7jtCfgJRPpySXybd_DqA-1" vertex="1">
          <mxGeometry x="560" y="284.94000000000005" width="40" height="30" as="geometry" />
        </mxCell>
        <mxCell id="J8UpJb78FnJa41LTuPSA-60" style="edgeStyle=orthogonalEdgeStyle;rounded=0;orthogonalLoop=1;jettySize=auto;html=1;entryX=0.25;entryY=1;entryDx=0;entryDy=0;dashed=1;dashPattern=8 8;fillColor=#0050ef;strokeColor=#001DBC;" parent="7jtCfgJRPpySXybd_DqA-1" source="J8UpJb78FnJa41LTuPSA-59" target="J8UpJb78FnJa41LTuPSA-51" edge="1">
          <mxGeometry relative="1" as="geometry" />
        </mxCell>
        <mxCell id="J8UpJb78FnJa41LTuPSA-59" value="0" style="rounded=0;whiteSpace=wrap;html=1;" parent="7jtCfgJRPpySXybd_DqA-1" vertex="1">
          <mxGeometry x="560" y="224.94000000000005" width="40" height="30" as="geometry" />
        </mxCell>
        <mxCell id="6TICbhq8YfkawvaB054l-105" style="edgeStyle=orthogonalEdgeStyle;rounded=0;orthogonalLoop=1;jettySize=auto;html=1;entryX=0;entryY=0.5;entryDx=0;entryDy=0;fillColor=#e51400;strokeColor=#B20000;dashed=1;dashPattern=8 8;" parent="7jtCfgJRPpySXybd_DqA-1" target="6TICbhq8YfkawvaB054l-102" edge="1">
          <mxGeometry relative="1" as="geometry">
            <mxPoint x="400" y="169.9999999999999" as="sourcePoint" />
            <Array as="points">
              <mxPoint x="400" y="80" />
              <mxPoint x="285" y="80" />
            </Array>
          </mxGeometry>
        </mxCell>
        <mxCell id="J8UpJb78FnJa41LTuPSA-17" value="" style="endArrow=none;html=1;rounded=0;" parent="7jtCfgJRPpySXybd_DqA-1" edge="1">
          <mxGeometry width="50" height="50" relative="1" as="geometry">
            <mxPoint y="110" as="sourcePoint" />
            <mxPoint x="1130" y="110" as="targetPoint" />
          </mxGeometry>
        </mxCell>
        <mxCell id="6TICbhq8YfkawvaB054l-6" value="1" style="text;html=1;strokeColor=none;fillColor=none;align=center;verticalAlign=middle;whiteSpace=wrap;rounded=0;" parent="7jtCfgJRPpySXybd_DqA-1" vertex="1">
          <mxGeometry x="214.63" y="239.94" width="10.74" height="14.94" as="geometry" />
        </mxCell>
        <mxCell id="6TICbhq8YfkawvaB054l-11" value="1" style="text;html=1;strokeColor=none;fillColor=none;align=center;verticalAlign=middle;whiteSpace=wrap;rounded=0;" parent="7jtCfgJRPpySXybd_DqA-1" vertex="1">
          <mxGeometry x="126.48" y="401.02" width="25" height="20" as="geometry" />
        </mxCell>
        <mxCell id="6TICbhq8YfkawvaB054l-48" value="1" style="text;html=1;strokeColor=none;fillColor=none;align=center;verticalAlign=middle;whiteSpace=wrap;rounded=0;" parent="7jtCfgJRPpySXybd_DqA-1" vertex="1">
          <mxGeometry x="177.5" y="540" width="25" height="25" as="geometry" />
        </mxCell>
        <mxCell id="6TICbhq8YfkawvaB054l-104" style="edgeStyle=orthogonalEdgeStyle;rounded=0;orthogonalLoop=1;jettySize=auto;html=1;entryX=0;entryY=0.5;entryDx=0;entryDy=0;fillColor=#0050ef;strokeColor=#001DBC;dashed=1;dashPattern=8 8;" parent="7jtCfgJRPpySXybd_DqA-1" source="6TICbhq8YfkawvaB054l-102" target="J8UpJb78FnJa41LTuPSA-30" edge="1">
          <mxGeometry relative="1" as="geometry" />
        </mxCell>
        <mxCell id="6TICbhq8YfkawvaB054l-102" value="" style="shape=trapezoid;perimeter=trapezoidPerimeter;whiteSpace=wrap;html=1;fixedSize=1;rotation=90;" parent="7jtCfgJRPpySXybd_DqA-1" vertex="1">
          <mxGeometry x="225.37" y="440" width="120" height="40" as="geometry" />
        </mxCell>
        <mxCell id="6TICbhq8YfkawvaB054l-106" value="1" style="text;html=1;strokeColor=none;fillColor=none;align=center;verticalAlign=middle;whiteSpace=wrap;rounded=0;" parent="7jtCfgJRPpySXybd_DqA-1" vertex="1">
          <mxGeometry x="272.87" y="420" width="25" height="20" as="geometry" />
        </mxCell>
        <mxCell id="6TICbhq8YfkawvaB054l-107" value="0" style="text;html=1;strokeColor=none;fillColor=none;align=center;verticalAlign=middle;whiteSpace=wrap;rounded=0;" parent="7jtCfgJRPpySXybd_DqA-1" vertex="1">
          <mxGeometry x="272.87" y="480" width="25" height="20" as="geometry" />
        </mxCell>
        <mxCell id="6TICbhq8YfkawvaB054l-119" style="edgeStyle=orthogonalEdgeStyle;rounded=0;orthogonalLoop=1;jettySize=auto;html=1;exitX=0.5;exitY=0;exitDx=0;exitDy=0;fillColor=#0050ef;strokeColor=#001DBC;dashed=1;dashPattern=8 8;" parent="7jtCfgJRPpySXybd_DqA-1" source="6TICbhq8YfkawvaB054l-116" edge="1">
          <mxGeometry relative="1" as="geometry">
            <mxPoint x="1000" y="320" as="targetPoint" />
          </mxGeometry>
        </mxCell>
        <mxCell id="6TICbhq8YfkawvaB054l-116" value="" style="shape=orEllipse;perimeter=ellipsePerimeter;whiteSpace=wrap;html=1;backgroundOutline=1;" parent="7jtCfgJRPpySXybd_DqA-1" vertex="1">
          <mxGeometry x="980" y="439.94" width="40" height="40" as="geometry" />
        </mxCell>
        <mxCell id="6TICbhq8YfkawvaB054l-118" style="edgeStyle=orthogonalEdgeStyle;rounded=0;orthogonalLoop=1;jettySize=auto;html=1;exitX=1;exitY=0.5;exitDx=0;exitDy=0;entryX=0;entryY=0.5;entryDx=0;entryDy=0;fillColor=#0050ef;strokeColor=#001DBC;dashed=1;dashPattern=8 8;" parent="7jtCfgJRPpySXybd_DqA-1" source="7jtCfgJRPpySXybd_DqA-2" target="6TICbhq8YfkawvaB054l-116" edge="1">
          <mxGeometry relative="1" as="geometry" />
        </mxCell>
        <mxCell id="6TICbhq8YfkawvaB054l-51" value="" style="shape=orEllipse;perimeter=ellipsePerimeter;whiteSpace=wrap;html=1;backgroundOutline=1;" parent="7jtCfgJRPpySXybd_DqA-1" vertex="1">
          <mxGeometry x="30" y="391.02" width="40" height="40" as="geometry" />
        </mxCell>
        <mxCell id="J8UpJb78FnJa41LTuPSA-27" style="edgeStyle=orthogonalEdgeStyle;rounded=0;orthogonalLoop=1;jettySize=auto;html=1;exitX=0.75;exitY=1;exitDx=0;exitDy=0;dashed=1;dashPattern=8 8;startArrow=classic;startFill=1;endArrow=none;endFill=0;fillColor=#0050ef;strokeColor=#001DBC;entryX=1;entryY=0.5;entryDx=0;entryDy=0;" parent="7jtCfgJRPpySXybd_DqA-1" source="J8UpJb78FnJa41LTuPSA-25" target="6TICbhq8YfkawvaB054l-51" edge="1">
          <mxGeometry relative="1" as="geometry">
            <mxPoint x="110" y="499.95238095238096" as="targetPoint" />
          </mxGeometry>
        </mxCell>
        <mxCell id="6TICbhq8YfkawvaB054l-189" style="edgeStyle=orthogonalEdgeStyle;rounded=0;orthogonalLoop=1;jettySize=auto;html=1;entryX=0.75;entryY=1;entryDx=0;entryDy=0;fillColor=#0050ef;strokeColor=#001DBC;dashed=1;dashPattern=8 8;" parent="7jtCfgJRPpySXybd_DqA-1" source="6TICbhq8YfkawvaB054l-120" target="6TICbhq8YfkawvaB054l-187" edge="1">
          <mxGeometry relative="1" as="geometry">
            <Array as="points">
              <mxPoint x="810" y="300" />
              <mxPoint x="810" y="244" />
            </Array>
          </mxGeometry>
        </mxCell>
        <mxCell id="6TICbhq8YfkawvaB054l-120" value="" style="shape=orEllipse;perimeter=ellipsePerimeter;whiteSpace=wrap;html=1;backgroundOutline=1;" parent="7jtCfgJRPpySXybd_DqA-1" vertex="1">
          <mxGeometry x="980" y="279.94000000000005" width="40" height="40" as="geometry" />
        </mxCell>
        <mxCell id="6TICbhq8YfkawvaB054l-121" value="1" style="text;html=1;strokeColor=none;fillColor=none;align=center;verticalAlign=middle;whiteSpace=wrap;rounded=0;" parent="7jtCfgJRPpySXybd_DqA-1" vertex="1">
          <mxGeometry x="647.5" y="229.94" width="25" height="20" as="geometry" />
        </mxCell>
        <mxCell id="6TICbhq8YfkawvaB054l-122" value="0" style="text;html=1;strokeColor=none;fillColor=none;align=center;verticalAlign=middle;whiteSpace=wrap;rounded=0;" parent="7jtCfgJRPpySXybd_DqA-1" vertex="1">
          <mxGeometry x="647.5" y="289.94000000000005" width="25" height="20" as="geometry" />
        </mxCell>
        <mxCell id="6TICbhq8YfkawvaB054l-123" value="0" style="text;html=1;strokeColor=none;fillColor=none;align=center;verticalAlign=middle;whiteSpace=wrap;rounded=0;" parent="7jtCfgJRPpySXybd_DqA-1" vertex="1">
          <mxGeometry x="126.49000000000001" y="351.02" width="25" height="20" as="geometry" />
        </mxCell>
        <mxCell id="6TICbhq8YfkawvaB054l-124" value="0" style="text;html=1;strokeColor=none;fillColor=none;align=center;verticalAlign=middle;whiteSpace=wrap;rounded=0;" parent="7jtCfgJRPpySXybd_DqA-1" vertex="1">
          <mxGeometry x="207.5" y="279.94000000000005" width="25" height="20" as="geometry" />
        </mxCell>
        <mxCell id="6TICbhq8YfkawvaB054l-187" value="" style="shape=trapezoid;perimeter=trapezoidPerimeter;whiteSpace=wrap;html=1;fixedSize=1;rotation=90;" parent="7jtCfgJRPpySXybd_DqA-1" vertex="1">
          <mxGeometry x="862.5" y="202.56" width="95" height="34.88" as="geometry" />
        </mxCell>
        <mxCell id="6TICbhq8YfkawvaB054l-190" value="11" style="text;html=1;strokeColor=none;fillColor=none;align=center;verticalAlign=middle;whiteSpace=wrap;rounded=0;" parent="7jtCfgJRPpySXybd_DqA-1" vertex="1">
          <mxGeometry x="897.5" y="229.94" width="25" height="20" as="geometry" />
        </mxCell>
        <mxCell id="rO0VlHsT6XO2fZvUlUE7-2" style="edgeStyle=orthogonalEdgeStyle;rounded=0;orthogonalLoop=1;jettySize=auto;html=1;fillColor=#0050ef;strokeColor=#001DBC;dashed=1;dashPattern=8 8;exitX=1;exitY=0.5;exitDx=0;exitDy=0;" parent="7jtCfgJRPpySXybd_DqA-1" source="rO0VlHsT6XO2fZvUlUE7-20" edge="1">
          <mxGeometry relative="1" as="geometry">
            <mxPoint x="1130" y="219.94000000000005" as="targetPoint" />
            <mxPoint x="1080" y="219.91666666666674" as="sourcePoint" />
          </mxGeometry>
        </mxCell>
        <mxCell id="rO0VlHsT6XO2fZvUlUE7-21" value="" style="edgeStyle=orthogonalEdgeStyle;rounded=0;orthogonalLoop=1;jettySize=auto;html=1;fillColor=#0050ef;strokeColor=#001DBC;dashed=1;dashPattern=8 8;exitX=0.5;exitY=0;exitDx=0;exitDy=0;" parent="7jtCfgJRPpySXybd_DqA-1" source="6TICbhq8YfkawvaB054l-187" target="rO0VlHsT6XO2fZvUlUE7-20" edge="1">
          <mxGeometry relative="1" as="geometry">
            <mxPoint x="1440" y="459.94000000000005" as="targetPoint" />
            <mxPoint x="1237" y="460" as="sourcePoint" />
          </mxGeometry>
        </mxCell>
        <mxCell id="rO0VlHsT6XO2fZvUlUE7-20" value="hash" style="whiteSpace=wrap;html=1;aspect=fixed;rounded=1;" parent="7jtCfgJRPpySXybd_DqA-1" vertex="1">
          <mxGeometry x="990" y="180" width="80" height="80" as="geometry" />
        </mxCell>
        <mxCell id="rO0VlHsT6XO2fZvUlUE7-36" value="== 0 ?" style="rhombus;whiteSpace=wrap;html=1;" parent="7jtCfgJRPpySXybd_DqA-1" vertex="1">
          <mxGeometry x="370" y="160" width="60" height="60" as="geometry" />
        </mxCell>
        <mxCell id="rO0VlHsT6XO2fZvUlUE7-39" value="== 9 ?" style="rhombus;whiteSpace=wrap;html=1;" parent="7jtCfgJRPpySXybd_DqA-1" vertex="1">
          <mxGeometry x="470" y="269.94" width="60" height="60" as="geometry" />
        </mxCell>
        <mxCell id="rO0VlHsT6XO2fZvUlUE7-40" value="0" style="text;html=1;strokeColor=none;fillColor=none;align=center;verticalAlign=middle;whiteSpace=wrap;rounded=0;" parent="7jtCfgJRPpySXybd_DqA-1" vertex="1">
          <mxGeometry x="177.5" y="490" width="25" height="20" as="geometry" />
        </mxCell>
        <mxCell id="J8UpJb78FnJa41LTuPSA-3" value="" style="endArrow=classic;html=1;rounded=0;endFill=1;dashed=1;dashPattern=8 8;fillColor=#e51400;strokeColor=#B20000;entryX=0;entryY=0.5;entryDx=0;entryDy=0;" parent="1" target="J8UpJb78FnJa41LTuPSA-25" edge="1">
          <mxGeometry width="50" height="50" relative="1" as="geometry">
            <mxPoint x="310" y="320" as="sourcePoint" />
            <mxPoint x="400" y="280" as="targetPoint" />
            <Array as="points">
              <mxPoint x="450" y="320" />
            </Array>
          </mxGeometry>
        </mxCell>
        <mxCell id="J8UpJb78FnJa41LTuPSA-4" value="" style="endArrow=classic;html=1;rounded=0;exitX=0;exitY=1;exitDx=0;exitDy=0;" parent="1" source="J8UpJb78FnJa41LTuPSA-11" edge="1">
          <mxGeometry width="50" height="50" relative="1" as="geometry">
            <mxPoint x="110" y="280" as="sourcePoint" />
            <mxPoint x="310" y="280" as="targetPoint" />
          </mxGeometry>
        </mxCell>
        <mxCell id="J8UpJb78FnJa41LTuPSA-9" value="&lt;font style=&quot;font-size: 16px;&quot;&gt;i_init&lt;/font&gt;" style="text;html=1;strokeColor=none;fillColor=none;align=center;verticalAlign=middle;whiteSpace=wrap;rounded=0;" parent="1" vertex="1">
          <mxGeometry x="190" y="290" width="50" height="30" as="geometry" />
        </mxCell>
        <mxCell id="J8UpJb78FnJa41LTuPSA-11" value="&lt;font style=&quot;font-size: 16px;&quot;&gt;i_subkey_valid&lt;/font&gt;" style="text;html=1;strokeColor=none;fillColor=none;align=center;verticalAlign=middle;whiteSpace=wrap;rounded=0;" parent="1" vertex="1">
          <mxGeometry x="190" y="250" width="110" height="30" as="geometry" />
        </mxCell>
        <mxCell id="J8UpJb78FnJa41LTuPSA-12" value="" style="endArrow=classic;html=1;rounded=0;exitX=0;exitY=1;exitDx=0;exitDy=0;" parent="1" source="J8UpJb78FnJa41LTuPSA-13" edge="1">
          <mxGeometry width="50" height="50" relative="1" as="geometry">
            <mxPoint x="110" y="870" as="sourcePoint" />
            <mxPoint x="310" y="870" as="targetPoint" />
          </mxGeometry>
        </mxCell>
        <mxCell id="J8UpJb78FnJa41LTuPSA-13" value="&lt;font style=&quot;font-size: 16px;&quot;&gt;i_subkey&lt;/font&gt;" style="text;html=1;strokeColor=none;fillColor=none;align=center;verticalAlign=middle;whiteSpace=wrap;rounded=0;" parent="1" vertex="1">
          <mxGeometry x="190" y="840" width="70" height="30" as="geometry" />
        </mxCell>
        <mxCell id="J8UpJb78FnJa41LTuPSA-39" value="" style="endArrow=classic;html=1;rounded=0;fillColor=#e51400;strokeColor=#B20000;dashed=1;dashPattern=8 8;endFill=1;entryX=0;entryY=0.5;entryDx=0;entryDy=0;" parent="1" target="J8UpJb78FnJa41LTuPSA-35" edge="1">
          <mxGeometry width="50" height="50" relative="1" as="geometry">
            <mxPoint x="310" y="280" as="sourcePoint" />
            <mxPoint x="600" y="340" as="targetPoint" />
            <Array as="points">
              <mxPoint x="530" y="280" />
            </Array>
          </mxGeometry>
        </mxCell>
        <mxCell id="J8UpJb78FnJa41LTuPSA-5" value="" style="endArrow=classic;html=1;rounded=0;exitX=0;exitY=1;exitDx=0;exitDy=0;" parent="1" source="J8UpJb78FnJa41LTuPSA-16" edge="1">
          <mxGeometry width="50" height="50" relative="1" as="geometry">
            <mxPoint x="110" y="610" as="sourcePoint" />
            <mxPoint x="310" y="610" as="targetPoint" />
          </mxGeometry>
        </mxCell>
        <mxCell id="J8UpJb78FnJa41LTuPSA-14" value="&lt;font style=&quot;font-size: 16px;&quot;&gt;i_key&lt;/font&gt;" style="text;html=1;strokeColor=none;fillColor=none;align=center;verticalAlign=middle;whiteSpace=wrap;rounded=0;" parent="1" vertex="1">
          <mxGeometry x="190" y="660" width="70" height="30" as="geometry" />
        </mxCell>
        <mxCell id="J8UpJb78FnJa41LTuPSA-15" value="" style="endArrow=classic;html=1;rounded=0;exitX=0;exitY=1;exitDx=0;exitDy=0;" parent="1" source="J8UpJb78FnJa41LTuPSA-14" edge="1">
          <mxGeometry width="50" height="50" relative="1" as="geometry">
            <mxPoint x="200" y="690" as="sourcePoint" />
            <mxPoint x="310" y="690" as="targetPoint" />
          </mxGeometry>
        </mxCell>
        <mxCell id="J8UpJb78FnJa41LTuPSA-16" value="&lt;font style=&quot;font-size: 16px;&quot;&gt;i_data&lt;/font&gt;" style="text;html=1;strokeColor=none;fillColor=none;align=center;verticalAlign=middle;whiteSpace=wrap;rounded=0;" parent="1" vertex="1">
          <mxGeometry x="190" y="580" width="70" height="30" as="geometry" />
        </mxCell>
        <mxCell id="J8UpJb78FnJa41LTuPSA-21" value="" style="endArrow=classic;html=1;rounded=0;entryX=0.5;entryY=1;entryDx=0;entryDy=0;dashed=1;dashPattern=8 8;fillColor=#0050ef;strokeColor=#001DBC;" parent="1" target="6TICbhq8YfkawvaB054l-51" edge="1">
          <mxGeometry width="50" height="50" relative="1" as="geometry">
            <mxPoint x="300" y="690" as="sourcePoint" />
            <mxPoint x="380" y="670" as="targetPoint" />
            <Array as="points">
              <mxPoint x="360" y="690" />
            </Array>
          </mxGeometry>
        </mxCell>
        <mxCell id="J8UpJb78FnJa41LTuPSA-22" value="" style="endArrow=classic;html=1;rounded=0;dashed=1;dashPattern=8 8;fillColor=#0050ef;strokeColor=#001DBC;entryX=0.5;entryY=0;entryDx=0;entryDy=0;" parent="1" target="6TICbhq8YfkawvaB054l-51" edge="1">
          <mxGeometry width="50" height="50" relative="1" as="geometry">
            <mxPoint x="300" y="610" as="sourcePoint" />
            <mxPoint x="380" y="630" as="targetPoint" />
            <Array as="points">
              <mxPoint x="360" y="610" />
            </Array>
          </mxGeometry>
        </mxCell>
        <mxCell id="6TICbhq8YfkawvaB054l-100" value="" style="endArrow=classic;html=1;rounded=0;entryX=0;entryY=0.5;entryDx=0;entryDy=0;fillColor=#e51400;strokeColor=#B20000;dashed=1;dashPattern=8 8;startArrow=oval;startFill=1;" parent="1" target="J8UpJb78FnJa41LTuPSA-46" edge="1">
          <mxGeometry width="50" height="50" relative="1" as="geometry">
            <mxPoint x="480" y="280" as="sourcePoint" />
            <mxPoint x="520" y="530" as="targetPoint" />
            <Array as="points">
              <mxPoint x="480" y="570" />
              <mxPoint x="500" y="570" />
            </Array>
          </mxGeometry>
        </mxCell>
        <mxCell id="6TICbhq8YfkawvaB054l-108" value="" style="endArrow=classic;html=1;rounded=0;exitX=0;exitY=1;exitDx=0;exitDy=0;" parent="1" source="J8UpJb78FnJa41LTuPSA-9" edge="1">
          <mxGeometry width="50" height="50" relative="1" as="geometry">
            <mxPoint x="200" y="320" as="sourcePoint" />
            <mxPoint x="310" y="320" as="targetPoint" />
          </mxGeometry>
        </mxCell>
        <mxCell id="6TICbhq8YfkawvaB054l-110" value="" style="endArrow=classic;html=1;rounded=0;fillColor=#0050ef;strokeColor=#001DBC;dashed=1;dashPattern=8 8;startArrow=oval;startFill=1;entryX=1;entryY=0.5;entryDx=0;entryDy=0;" parent="1" target="6TICbhq8YfkawvaB054l-120" edge="1">
          <mxGeometry width="50" height="50" relative="1" as="geometry">
            <mxPoint x="400" y="650" as="sourcePoint" />
            <mxPoint x="1400" y="520" as="targetPoint" />
            <Array as="points">
              <mxPoint x="400" y="900" />
              <mxPoint x="1400" y="900" />
              <mxPoint x="1400" y="540" />
            </Array>
          </mxGeometry>
        </mxCell>
        <mxCell id="6TICbhq8YfkawvaB054l-113" value="" style="endArrow=classic;html=1;rounded=0;fillColor=#0050ef;strokeColor=#001DBC;dashed=1;dashPattern=8 8;entryX=1;entryY=0.5;entryDx=0;entryDy=0;" parent="1" target="6TICbhq8YfkawvaB054l-116" edge="1">
          <mxGeometry width="50" height="50" relative="1" as="geometry">
            <mxPoint x="310" y="870" as="sourcePoint" />
            <mxPoint x="1360" y="870" as="targetPoint" />
            <Array as="points">
              <mxPoint x="1360" y="870" />
              <mxPoint x="1360" y="700" />
            </Array>
          </mxGeometry>
        </mxCell>
        <mxCell id="6TICbhq8YfkawvaB054l-125" value="" style="endArrow=classic;html=1;rounded=0;entryX=0;entryY=0.5;entryDx=0;entryDy=0;fillColor=#e51400;strokeColor=#B20000;dashed=1;dashPattern=8 8;startArrow=oval;startFill=1;" parent="1" target="J8UpJb78FnJa41LTuPSA-51" edge="1">
          <mxGeometry width="50" height="50" relative="1" as="geometry">
            <mxPoint x="970" y="300" as="sourcePoint" />
            <mxPoint x="1120" y="400" as="targetPoint" />
          </mxGeometry>
        </mxCell>
        <mxCell id="6TICbhq8YfkawvaB054l-173" value="" style="endArrow=halfCircle;html=1;rounded=0;fillColor=#e51400;strokeColor=#B20000;dashed=1;dashPattern=8 8;startArrow=oval;startFill=1;endFill=0;" parent="1" edge="1">
          <mxGeometry width="50" height="50" relative="1" as="geometry">
            <mxPoint x="530" y="280" as="sourcePoint" />
            <mxPoint x="1220" y="300" as="targetPoint" />
            <Array as="points">
              <mxPoint x="1280" y="280" />
              <mxPoint x="1280" y="300" />
            </Array>
          </mxGeometry>
        </mxCell>
        <mxCell id="6TICbhq8YfkawvaB054l-176" value="" style="endArrow=halfCircle;html=1;rounded=0;fillColor=#e51400;strokeColor=#B20000;dashed=1;dashPattern=8 8;endFill=0;startArrow=oval;startFill=1;" parent="1" edge="1">
          <mxGeometry width="50" height="50" relative="1" as="geometry">
            <mxPoint x="1080" y="300" as="sourcePoint" />
            <mxPoint x="1220" y="300" as="targetPoint" />
          </mxGeometry>
        </mxCell>
        <mxCell id="6TICbhq8YfkawvaB054l-177" value="" style="endArrow=classic;html=1;rounded=0;fillColor=#e51400;strokeColor=#B20000;dashed=1;dashPattern=8 8;entryX=0;entryY=0.5;entryDx=0;entryDy=0;" parent="1" target="6TICbhq8YfkawvaB054l-187" edge="1">
          <mxGeometry width="50" height="50" relative="1" as="geometry">
            <mxPoint x="1220" y="300" as="sourcePoint" />
            <mxPoint x="1220" y="440" as="targetPoint" />
          </mxGeometry>
        </mxCell>
        <mxCell id="rO0VlHsT6XO2fZvUlUE7-3" value="" style="endArrow=classic;html=1;rounded=0;fillColor=#e51400;strokeColor=#B20000;dashed=1;dashPattern=8 8;" parent="1" edge="1">
          <mxGeometry width="50" height="50" relative="1" as="geometry">
            <mxPoint x="1080" y="320" as="sourcePoint" />
            <mxPoint x="1440" y="330" as="targetPoint" />
            <Array as="points">
              <mxPoint x="1080" y="330" />
            </Array>
          </mxGeometry>
        </mxCell>
        <mxCell id="rO0VlHsT6XO2fZvUlUE7-4" value="" style="endArrow=classic;html=1;rounded=0;" parent="1" edge="1">
          <mxGeometry width="50" height="50" relative="1" as="geometry">
            <mxPoint x="1440" y="330" as="sourcePoint" />
            <mxPoint x="1560" y="330" as="targetPoint" />
          </mxGeometry>
        </mxCell>
        <mxCell id="rO0VlHsT6XO2fZvUlUE7-5" value="" style="endArrow=classic;html=1;rounded=0;" parent="1" edge="1">
          <mxGeometry width="50" height="50" relative="1" as="geometry">
            <mxPoint x="1440" y="460" as="sourcePoint" />
            <mxPoint x="1560" y="460" as="targetPoint" />
          </mxGeometry>
        </mxCell>
        <mxCell id="rO0VlHsT6XO2fZvUlUE7-6" value="o_hash_valid" style="text;html=1;strokeColor=none;fillColor=none;align=center;verticalAlign=middle;whiteSpace=wrap;rounded=0;" parent="1" vertex="1">
          <mxGeometry x="1440" y="300" width="80" height="30" as="geometry" />
        </mxCell>
        <mxCell id="rO0VlHsT6XO2fZvUlUE7-7" value="o_hash_out" style="text;html=1;strokeColor=none;fillColor=none;align=center;verticalAlign=middle;whiteSpace=wrap;rounded=0;" parent="1" vertex="1">
          <mxGeometry x="1440" y="430" width="80" height="30" as="geometry" />
        </mxCell>
        <mxCell id="rO0VlHsT6XO2fZvUlUE7-9" value="" style="endArrow=none;html=1;rounded=0;" parent="1" edge="1">
          <mxGeometry width="50" height="50" relative="1" as="geometry">
            <mxPoint x="1530" y="470" as="sourcePoint" />
            <mxPoint x="1550" y="450" as="targetPoint" />
          </mxGeometry>
        </mxCell>
        <mxCell id="rO0VlHsT6XO2fZvUlUE7-10" value="" style="endArrow=none;html=1;rounded=0;" parent="1" edge="1">
          <mxGeometry width="50" height="50" relative="1" as="geometry">
            <mxPoint x="270" y="700" as="sourcePoint" />
            <mxPoint x="290" y="680" as="targetPoint" />
          </mxGeometry>
        </mxCell>
        <mxCell id="rO0VlHsT6XO2fZvUlUE7-11" value="" style="endArrow=none;html=1;rounded=0;" parent="1" edge="1">
          <mxGeometry width="50" height="50" relative="1" as="geometry">
            <mxPoint x="270" y="620" as="sourcePoint" />
            <mxPoint x="290" y="600" as="targetPoint" />
          </mxGeometry>
        </mxCell>
        <mxCell id="rO0VlHsT6XO2fZvUlUE7-12" value="" style="endArrow=none;html=1;rounded=0;" parent="1" edge="1">
          <mxGeometry width="50" height="50" relative="1" as="geometry">
            <mxPoint x="270" y="880" as="sourcePoint" />
            <mxPoint x="290" y="860" as="targetPoint" />
          </mxGeometry>
        </mxCell>
        <mxCell id="rO0VlHsT6XO2fZvUlUE7-13" value="512" style="text;html=1;strokeColor=none;fillColor=none;align=center;verticalAlign=middle;whiteSpace=wrap;rounded=0;" parent="1" vertex="1">
          <mxGeometry x="250" y="570" width="60" height="30" as="geometry" />
        </mxCell>
        <mxCell id="rO0VlHsT6XO2fZvUlUE7-15" value="512" style="text;html=1;strokeColor=none;fillColor=none;align=center;verticalAlign=middle;whiteSpace=wrap;rounded=0;" parent="1" vertex="1">
          <mxGeometry x="250" y="650" width="60" height="30" as="geometry" />
        </mxCell>
        <mxCell id="rO0VlHsT6XO2fZvUlUE7-16" value="512" style="text;html=1;strokeColor=none;fillColor=none;align=center;verticalAlign=middle;whiteSpace=wrap;rounded=0;" parent="1" vertex="1">
          <mxGeometry x="250" y="830" width="60" height="30" as="geometry" />
        </mxCell>
        <mxCell id="rO0VlHsT6XO2fZvUlUE7-17" value="512" style="text;html=1;strokeColor=none;fillColor=none;align=center;verticalAlign=middle;whiteSpace=wrap;rounded=0;" parent="1" vertex="1">
          <mxGeometry x="1510" y="420" width="60" height="30" as="geometry" />
        </mxCell>
        <mxCell id="rO0VlHsT6XO2fZvUlUE7-19" value="" style="endArrow=none;html=1;rounded=0;fillColor=#e51400;strokeColor=#B20000;dashed=1;dashPattern=8 8;" parent="1" edge="1">
          <mxGeometry width="50" height="50" relative="1" as="geometry">
            <mxPoint x="1080" y="320" as="sourcePoint" />
            <mxPoint x="1080" y="300" as="targetPoint" />
          </mxGeometry>
        </mxCell>
      </root>
    </mxGraphModel>
  </diagram>
  <diagram id="t8zoj0t8iZ8X3X1BCHBq" name="WHIRLPOOL_FSM">
    <mxGraphModel dx="1036" dy="654" grid="1" gridSize="10" guides="1" tooltips="1" connect="1" arrows="1" fold="1" page="1" pageScale="1" pageWidth="850" pageHeight="1100" math="0" shadow="0">
      <root>
        <mxCell id="0" />
        <mxCell id="1" parent="0" />
        <mxCell id="vfmVjPj_1Cq-uIeGzSs0-3" style="edgeStyle=orthogonalEdgeStyle;rounded=1;orthogonalLoop=1;jettySize=auto;html=1;exitX=1;exitY=0;exitDx=0;exitDy=0;entryX=0;entryY=0;entryDx=0;entryDy=0;" parent="1" source="5WjIXB4QOHa3gj97LpIz-1" target="5WjIXB4QOHa3gj97LpIz-2" edge="1">
          <mxGeometry relative="1" as="geometry">
            <Array as="points">
              <mxPoint x="282" y="430" />
              <mxPoint x="458" y="430" />
            </Array>
          </mxGeometry>
        </mxCell>
        <mxCell id="vfmVjPj_1Cq-uIeGzSs0-4" style="edgeStyle=orthogonalEdgeStyle;rounded=1;orthogonalLoop=1;jettySize=auto;html=1;exitX=1;exitY=1;exitDx=0;exitDy=0;entryX=0;entryY=1;entryDx=0;entryDy=0;startArrow=classic;startFill=1;endArrow=none;endFill=0;" parent="1" source="5WjIXB4QOHa3gj97LpIz-1" target="5WjIXB4QOHa3gj97LpIz-2" edge="1">
          <mxGeometry relative="1" as="geometry">
            <Array as="points">
              <mxPoint x="282" y="530" />
              <mxPoint x="458" y="530" />
            </Array>
          </mxGeometry>
        </mxCell>
        <mxCell id="vfmVjPj_1Cq-uIeGzSs0-10" style="rounded=0;orthogonalLoop=1;jettySize=auto;html=1;exitX=0;exitY=0;exitDx=0;exitDy=0;endArrow=none;endFill=0;startArrow=classic;startFill=1;" parent="1" source="5WjIXB4QOHa3gj97LpIz-1" edge="1">
          <mxGeometry relative="1" as="geometry">
            <mxPoint x="160" y="420" as="targetPoint" />
          </mxGeometry>
        </mxCell>
        <mxCell id="5WjIXB4QOHa3gj97LpIz-1" value="IDLE" style="ellipse;whiteSpace=wrap;html=1;" parent="1" vertex="1">
          <mxGeometry x="180" y="440" width="120" height="80" as="geometry" />
        </mxCell>
        <mxCell id="vfmVjPj_1Cq-uIeGzSs0-7" style="edgeStyle=orthogonalEdgeStyle;rounded=0;orthogonalLoop=1;jettySize=auto;html=1;endArrow=none;endFill=0;" parent="1" source="5WjIXB4QOHa3gj97LpIz-2" edge="1">
          <mxGeometry relative="1" as="geometry">
            <mxPoint x="610" y="480" as="targetPoint" />
          </mxGeometry>
        </mxCell>
        <mxCell id="5WjIXB4QOHa3gj97LpIz-2" value="ROUND" style="ellipse;whiteSpace=wrap;html=1;" parent="1" vertex="1">
          <mxGeometry x="440" y="440" width="120" height="80" as="geometry" />
        </mxCell>
        <mxCell id="vfmVjPj_1Cq-uIeGzSs0-5" value="&lt;font style=&quot;font-size: 14px;&quot;&gt;init&lt;/font&gt;" style="text;html=1;strokeColor=none;fillColor=none;align=center;verticalAlign=middle;whiteSpace=wrap;rounded=0;" parent="1" vertex="1">
          <mxGeometry x="340" y="400" width="60" height="30" as="geometry" />
        </mxCell>
        <mxCell id="vfmVjPj_1Cq-uIeGzSs0-6" value="&lt;font style=&quot;font-size: 14px;&quot;&gt;round &amp;gt; 9&lt;/font&gt;" style="text;html=1;strokeColor=none;fillColor=none;align=center;verticalAlign=middle;whiteSpace=wrap;rounded=0;" parent="1" vertex="1">
          <mxGeometry x="330" y="500" width="80" height="30" as="geometry" />
        </mxCell>
        <mxCell id="vfmVjPj_1Cq-uIeGzSs0-8" value="&lt;span style=&quot;font-size: 14px;&quot;&gt;round = round + 1&lt;/span&gt;" style="text;html=1;strokeColor=none;fillColor=none;align=center;verticalAlign=middle;whiteSpace=wrap;rounded=0;" parent="1" vertex="1">
          <mxGeometry x="560" y="450" width="130" height="30" as="geometry" />
        </mxCell>
        <mxCell id="vfmVjPj_1Cq-uIeGzSs0-9" value="&lt;span style=&quot;font-size: 14px;&quot;&gt;data = data_out ^ subkey&lt;/span&gt;" style="text;html=1;strokeColor=none;fillColor=none;align=center;verticalAlign=middle;whiteSpace=wrap;rounded=0;" parent="1" vertex="1">
          <mxGeometry x="560" y="480" width="170" height="30" as="geometry" />
        </mxCell>
        <mxCell id="vfmVjPj_1Cq-uIeGzSs0-11" value="&lt;font style=&quot;font-size: 14px;&quot;&gt;i_rstn&lt;/font&gt;" style="text;html=1;strokeColor=none;fillColor=none;align=center;verticalAlign=middle;whiteSpace=wrap;rounded=0;" parent="1" vertex="1">
          <mxGeometry x="130" y="390" width="60" height="30" as="geometry" />
        </mxCell>
        <mxCell id="vfmVjPj_1Cq-uIeGzSs0-12" value="&lt;font style=&quot;font-size: 14px;&quot;&gt;i_subkey_valid&lt;/font&gt;" style="text;html=1;strokeColor=none;fillColor=none;align=center;verticalAlign=middle;whiteSpace=wrap;rounded=0;" parent="1" vertex="1">
          <mxGeometry x="320" y="430" width="100" height="30" as="geometry" />
        </mxCell>
        <mxCell id="vfmVjPj_1Cq-uIeGzSs0-14" value="&lt;font style=&quot;font-size: 14px;&quot;&gt;i_subkey_valid&lt;/font&gt;" style="text;html=1;strokeColor=none;fillColor=none;align=center;verticalAlign=middle;whiteSpace=wrap;rounded=0;" parent="1" vertex="1">
          <mxGeometry x="320" y="530" width="100" height="30" as="geometry" />
        </mxCell>
      </root>
    </mxGraphModel>
  </diagram>
  <diagram id="xVH2r8OZWGh45Z-nISLz" name="KEY_EXPANSE_IO">
    <mxGraphModel dx="1036" dy="654" grid="1" gridSize="10" guides="1" tooltips="1" connect="1" arrows="1" fold="1" page="1" pageScale="1" pageWidth="850" pageHeight="1100" math="0" shadow="0">
      <root>
        <mxCell id="0" />
        <mxCell id="1" parent="0" />
        <mxCell id="BzX-CyWczTvA49VFTsJr-1" style="edgeStyle=orthogonalEdgeStyle;rounded=0;orthogonalLoop=1;jettySize=auto;html=1;exitX=1;exitY=0.5;exitDx=0;exitDy=0;" parent="1" edge="1">
          <mxGeometry relative="1" as="geometry">
            <mxPoint x="720" y="499.83" as="targetPoint" />
            <mxPoint x="580" y="499.99999999999994" as="sourcePoint" />
          </mxGeometry>
        </mxCell>
        <mxCell id="BzX-CyWczTvA49VFTsJr-2" style="edgeStyle=orthogonalEdgeStyle;rounded=0;orthogonalLoop=1;jettySize=auto;html=1;exitX=1;exitY=0.75;exitDx=0;exitDy=0;" parent="1" edge="1">
          <mxGeometry relative="1" as="geometry">
            <mxPoint x="720" y="640" as="targetPoint" />
            <mxPoint x="580" y="640" as="sourcePoint" />
          </mxGeometry>
        </mxCell>
        <mxCell id="BzX-CyWczTvA49VFTsJr-3" value="&lt;span style=&quot;font-size: 24px;&quot;&gt;KEY_EXPANSION&lt;/span&gt;" style="rounded=0;whiteSpace=wrap;html=1;" parent="1" vertex="1">
          <mxGeometry x="260" y="320" width="320" height="480" as="geometry" />
        </mxCell>
        <mxCell id="BzX-CyWczTvA49VFTsJr-4" value="" style="endArrow=classic;html=1;rounded=0;entryX=-0.001;entryY=0.165;entryDx=0;entryDy=0;entryPerimeter=0;fontSize=15;" parent="1" edge="1">
          <mxGeometry width="50" height="50" relative="1" as="geometry">
            <mxPoint x="120" y="440" as="sourcePoint" />
            <mxPoint x="259.68000000000006" y="439.19999999999993" as="targetPoint" />
          </mxGeometry>
        </mxCell>
        <mxCell id="BzX-CyWczTvA49VFTsJr-5" value="&lt;font style=&quot;font-size: 16px;&quot;&gt;i_clk&lt;/font&gt;" style="text;html=1;strokeColor=none;fillColor=none;align=center;verticalAlign=middle;whiteSpace=wrap;rounded=0;" parent="1" vertex="1">
          <mxGeometry x="120" y="410" width="60" height="30" as="geometry" />
        </mxCell>
        <mxCell id="BzX-CyWczTvA49VFTsJr-6" value="" style="endArrow=classic;html=1;rounded=0;entryX=-0.001;entryY=0.165;entryDx=0;entryDy=0;entryPerimeter=0;fontSize=15;" parent="1" edge="1">
          <mxGeometry width="50" height="50" relative="1" as="geometry">
            <mxPoint x="120" y="500" as="sourcePoint" />
            <mxPoint x="260" y="499" as="targetPoint" />
          </mxGeometry>
        </mxCell>
        <mxCell id="BzX-CyWczTvA49VFTsJr-7" value="&lt;font style=&quot;font-size: 16px;&quot;&gt;i_rstn&lt;/font&gt;" style="text;html=1;strokeColor=none;fillColor=none;align=center;verticalAlign=middle;whiteSpace=wrap;rounded=0;" parent="1" vertex="1">
          <mxGeometry x="120" y="470" width="60" height="30" as="geometry" />
        </mxCell>
        <mxCell id="BzX-CyWczTvA49VFTsJr-8" value="" style="endArrow=classic;html=1;rounded=0;entryX=-0.001;entryY=0.165;entryDx=0;entryDy=0;entryPerimeter=0;fontSize=15;" parent="1" edge="1">
          <mxGeometry width="50" height="50" relative="1" as="geometry">
            <mxPoint x="120" y="560" as="sourcePoint" />
            <mxPoint x="260" y="559" as="targetPoint" />
          </mxGeometry>
        </mxCell>
        <mxCell id="BzX-CyWczTvA49VFTsJr-9" value="&lt;span style=&quot;font-size: 16px;&quot;&gt;init&lt;/span&gt;" style="text;html=1;strokeColor=none;fillColor=none;align=center;verticalAlign=middle;whiteSpace=wrap;rounded=0;" parent="1" vertex="1">
          <mxGeometry x="120" y="530" width="40" height="30" as="geometry" />
        </mxCell>
        <mxCell id="BzX-CyWczTvA49VFTsJr-12" value="" style="endArrow=classic;html=1;rounded=0;entryX=-0.001;entryY=0.165;entryDx=0;entryDy=0;entryPerimeter=0;fontSize=15;exitX=0;exitY=1;exitDx=0;exitDy=0;" parent="1" source="BzX-CyWczTvA49VFTsJr-13" edge="1">
          <mxGeometry width="50" height="50" relative="1" as="geometry">
            <mxPoint x="140" y="680" as="sourcePoint" />
            <mxPoint x="260" y="679" as="targetPoint" />
          </mxGeometry>
        </mxCell>
        <mxCell id="BzX-CyWczTvA49VFTsJr-13" value="&lt;span style=&quot;font-size: 16px;&quot;&gt;i_key&lt;/span&gt;" style="text;html=1;strokeColor=none;fillColor=none;align=center;verticalAlign=middle;whiteSpace=wrap;rounded=0;" parent="1" vertex="1">
          <mxGeometry x="120" y="650" width="60" height="30" as="geometry" />
        </mxCell>
        <mxCell id="BzX-CyWczTvA49VFTsJr-16" value="&lt;span style=&quot;font-size: 16px;&quot;&gt;o_subkey_valid&lt;/span&gt;" style="text;html=1;strokeColor=none;fillColor=none;align=center;verticalAlign=middle;whiteSpace=wrap;rounded=0;rotation=0;" parent="1" vertex="1">
          <mxGeometry x="580" y="470" width="130" height="30" as="geometry" />
        </mxCell>
        <mxCell id="BzX-CyWczTvA49VFTsJr-17" value="&lt;font style=&quot;font-size: 16px;&quot;&gt;o_subkey&lt;/font&gt;" style="text;html=1;strokeColor=none;fillColor=none;align=center;verticalAlign=middle;whiteSpace=wrap;rounded=0;" parent="1" vertex="1">
          <mxGeometry x="580" y="610" width="100" height="30" as="geometry" />
        </mxCell>
        <mxCell id="BzX-CyWczTvA49VFTsJr-18" value="" style="endArrow=none;html=1;rounded=0;" parent="1" edge="1">
          <mxGeometry width="50" height="50" relative="1" as="geometry">
            <mxPoint x="220" y="690" as="sourcePoint" />
            <mxPoint x="240" y="670" as="targetPoint" />
          </mxGeometry>
        </mxCell>
        <mxCell id="BzX-CyWczTvA49VFTsJr-19" value="512" style="text;html=1;strokeColor=none;fillColor=none;align=center;verticalAlign=middle;whiteSpace=wrap;rounded=0;" parent="1" vertex="1">
          <mxGeometry x="200" y="650" width="60" height="20" as="geometry" />
        </mxCell>
        <mxCell id="BzX-CyWczTvA49VFTsJr-21" value="" style="endArrow=none;html=1;rounded=0;" parent="1" edge="1">
          <mxGeometry width="50" height="50" relative="1" as="geometry">
            <mxPoint x="690" y="650" as="sourcePoint" />
            <mxPoint x="710" y="630" as="targetPoint" />
          </mxGeometry>
        </mxCell>
        <mxCell id="BzX-CyWczTvA49VFTsJr-22" value="512" style="text;html=1;strokeColor=none;fillColor=none;align=center;verticalAlign=middle;whiteSpace=wrap;rounded=0;" parent="1" vertex="1">
          <mxGeometry x="670" y="610" width="60" height="20" as="geometry" />
        </mxCell>
      </root>
    </mxGraphModel>
  </diagram>
  <diagram id="EFT45KN426p9_EssJOdA" name="KEY_EXPANSION">
    <mxGraphModel dx="1480" dy="934" grid="1" gridSize="10" guides="1" tooltips="1" connect="1" arrows="1" fold="1" page="1" pageScale="1" pageWidth="850" pageHeight="1100" math="0" shadow="0">
      <root>
        <mxCell id="0" />
        <mxCell id="1" parent="0" />
        <mxCell id="MUTQS57lobD5BNV4apzr-1" value="KEY_EXPANSION" style="swimlane;whiteSpace=wrap;html=1;fillColor=#008a00;fontColor=#ffffff;strokeColor=#005700;" parent="1" vertex="1">
          <mxGeometry x="330" y="240" width="1050" height="640" as="geometry" />
        </mxCell>
        <mxCell id="MUTQS57lobD5BNV4apzr-2" style="edgeStyle=orthogonalEdgeStyle;rounded=0;orthogonalLoop=1;jettySize=auto;html=1;entryX=0.75;entryY=1;entryDx=0;entryDy=0;fillColor=#0050ef;strokeColor=#001DBC;dashed=1;dashPattern=8 8;" parent="MUTQS57lobD5BNV4apzr-1" target="MUTQS57lobD5BNV4apzr-34" edge="1">
          <mxGeometry relative="1" as="geometry">
            <Array as="points">
              <mxPoint x="1000" y="600" />
              <mxPoint x="210" y="600" />
              <mxPoint x="210" y="490" />
            </Array>
            <mxPoint x="1000" y="460" as="sourcePoint" />
            <mxPoint x="177.5" y="552.5" as="targetPoint" />
          </mxGeometry>
        </mxCell>
        <mxCell id="MUTQS57lobD5BNV4apzr-3" value="WHIRLPOOL_WCIPHER_ROUND" style="swimlane;whiteSpace=wrap;html=1;fillColor=#1ba1e2;fontColor=#ffffff;strokeColor=#006EAF;" parent="MUTQS57lobD5BNV4apzr-1" vertex="1">
          <mxGeometry x="520" y="355" width="430" height="210" as="geometry" />
        </mxCell>
        <mxCell id="MUTQS57lobD5BNV4apzr-4" style="edgeStyle=orthogonalEdgeStyle;rounded=0;orthogonalLoop=1;jettySize=auto;html=1;entryX=0.5;entryY=1;entryDx=0;entryDy=0;dashed=1;dashPattern=8 8;fillColor=#6a00ff;strokeColor=#3700CC;" parent="MUTQS57lobD5BNV4apzr-3" source="MUTQS57lobD5BNV4apzr-5" target="MUTQS57lobD5BNV4apzr-7" edge="1">
          <mxGeometry relative="1" as="geometry" />
        </mxCell>
        <mxCell id="MUTQS57lobD5BNV4apzr-5" value="SubBytes" style="rounded=0;whiteSpace=wrap;html=1;rotation=90;horizontal=0;" parent="MUTQS57lobD5BNV4apzr-3" vertex="1">
          <mxGeometry x="40" y="75" width="120" height="60" as="geometry" />
        </mxCell>
        <mxCell id="MUTQS57lobD5BNV4apzr-6" style="edgeStyle=orthogonalEdgeStyle;rounded=0;orthogonalLoop=1;jettySize=auto;html=1;entryX=0.5;entryY=1;entryDx=0;entryDy=0;dashed=1;dashPattern=8 8;fillColor=#6a00ff;strokeColor=#3700CC;" parent="MUTQS57lobD5BNV4apzr-3" source="MUTQS57lobD5BNV4apzr-7" target="MUTQS57lobD5BNV4apzr-9" edge="1">
          <mxGeometry relative="1" as="geometry" />
        </mxCell>
        <mxCell id="MUTQS57lobD5BNV4apzr-7" value="ShiftCol" style="rounded=0;whiteSpace=wrap;html=1;rotation=90;horizontal=0;" parent="MUTQS57lobD5BNV4apzr-3" vertex="1">
          <mxGeometry x="160" y="74.99999999999994" width="120" height="60" as="geometry" />
        </mxCell>
        <mxCell id="MUTQS57lobD5BNV4apzr-8" style="edgeStyle=orthogonalEdgeStyle;rounded=0;orthogonalLoop=1;jettySize=auto;html=1;fillColor=#6a00ff;strokeColor=#3700CC;dashed=1;dashPattern=8 8;" parent="MUTQS57lobD5BNV4apzr-3" source="MUTQS57lobD5BNV4apzr-9" edge="1">
          <mxGeometry relative="1" as="geometry">
            <mxPoint x="430" y="105" as="targetPoint" />
          </mxGeometry>
        </mxCell>
        <mxCell id="MUTQS57lobD5BNV4apzr-9" value="MixRow" style="rounded=0;whiteSpace=wrap;html=1;rotation=90;horizontal=0;" parent="MUTQS57lobD5BNV4apzr-3" vertex="1">
          <mxGeometry x="280" y="74.99999999999994" width="120" height="60" as="geometry" />
        </mxCell>
        <mxCell id="MUTQS57lobD5BNV4apzr-10" value="" style="endArrow=classic;html=1;rounded=0;exitX=0;exitY=0.5;exitDx=0;exitDy=0;entryX=0.5;entryY=1;entryDx=0;entryDy=0;fillColor=#6a00ff;strokeColor=#3700CC;dashed=1;dashPattern=8 8;" parent="MUTQS57lobD5BNV4apzr-3" source="MUTQS57lobD5BNV4apzr-3" target="MUTQS57lobD5BNV4apzr-5" edge="1">
          <mxGeometry width="50" height="50" relative="1" as="geometry">
            <mxPoint x="40" y="125" as="sourcePoint" />
            <mxPoint x="90" y="75" as="targetPoint" />
          </mxGeometry>
        </mxCell>
        <mxCell id="CoTEJPUEtknQirxrEq8v-1" value="&lt;font style=&quot;font-size: 14px;&quot;&gt;o_data&lt;/font&gt;" style="text;html=1;strokeColor=none;fillColor=none;align=center;verticalAlign=middle;whiteSpace=wrap;rounded=0;" parent="MUTQS57lobD5BNV4apzr-3" vertex="1">
          <mxGeometry x="370" y="75" width="60" height="30" as="geometry" />
        </mxCell>
        <mxCell id="MUTQS57lobD5BNV4apzr-11" style="edgeStyle=orthogonalEdgeStyle;rounded=0;orthogonalLoop=1;jettySize=auto;html=1;entryX=0.25;entryY=1;entryDx=0;entryDy=0;fillColor=#0050ef;strokeColor=#001DBC;dashed=1;dashPattern=8 8;" parent="MUTQS57lobD5BNV4apzr-1" source="MUTQS57lobD5BNV4apzr-12" target="MUTQS57lobD5BNV4apzr-34" edge="1">
          <mxGeometry relative="1" as="geometry" />
        </mxCell>
        <mxCell id="MUTQS57lobD5BNV4apzr-12" value="" style="shape=trapezoid;perimeter=trapezoidPerimeter;whiteSpace=wrap;html=1;fixedSize=1;rotation=90;" parent="MUTQS57lobD5BNV4apzr-1" vertex="1">
          <mxGeometry x="90" y="371.02" width="97.97" height="30" as="geometry" />
        </mxCell>
        <mxCell id="MUTQS57lobD5BNV4apzr-13" value="round" style="rounded=1;whiteSpace=wrap;html=1;" parent="MUTQS57lobD5BNV4apzr-1" vertex="1">
          <mxGeometry x="360" y="239.94" width="80" height="120" as="geometry" />
        </mxCell>
        <mxCell id="MUTQS57lobD5BNV4apzr-14" style="edgeStyle=orthogonalEdgeStyle;rounded=0;orthogonalLoop=1;jettySize=auto;html=1;entryX=0;entryY=0.5;entryDx=0;entryDy=0;dashed=1;dashPattern=8 8;fillColor=#0050ef;strokeColor=#001DBC;" parent="MUTQS57lobD5BNV4apzr-1" source="MUTQS57lobD5BNV4apzr-15" target="MUTQS57lobD5BNV4apzr-3" edge="1">
          <mxGeometry relative="1" as="geometry" />
        </mxCell>
        <mxCell id="MUTQS57lobD5BNV4apzr-15" value="data" style="rounded=1;whiteSpace=wrap;html=1;" parent="MUTQS57lobD5BNV4apzr-1" vertex="1">
          <mxGeometry x="360" y="400" width="80" height="120" as="geometry" />
        </mxCell>
        <mxCell id="MUTQS57lobD5BNV4apzr-18" style="edgeStyle=orthogonalEdgeStyle;rounded=0;orthogonalLoop=1;jettySize=auto;html=1;dashed=1;dashPattern=8 8;fillColor=#0050ef;strokeColor=#001DBC;entryX=0.75;entryY=1;entryDx=0;entryDy=0;" parent="MUTQS57lobD5BNV4apzr-1" source="MUTQS57lobD5BNV4apzr-25" target="MUTQS57lobD5BNV4apzr-23" edge="1">
          <mxGeometry relative="1" as="geometry">
            <mxPoint x="580" y="300" as="targetPoint" />
          </mxGeometry>
        </mxCell>
        <mxCell id="MUTQS57lobD5BNV4apzr-19" style="edgeStyle=orthogonalEdgeStyle;rounded=0;orthogonalLoop=1;jettySize=auto;html=1;exitX=0.5;exitY=0;exitDx=0;exitDy=0;fillColor=#e51400;strokeColor=#B20000;dashed=1;dashPattern=8 8;endArrow=none;endFill=0;" parent="MUTQS57lobD5BNV4apzr-1" edge="1">
          <mxGeometry relative="1" as="geometry">
            <mxPoint x="660" y="80" as="targetPoint" />
            <mxPoint x="500" y="284.94000000000005" as="sourcePoint" />
            <Array as="points">
              <mxPoint x="500" y="80" />
            </Array>
          </mxGeometry>
        </mxCell>
        <mxCell id="MUTQS57lobD5BNV4apzr-22" style="edgeStyle=orthogonalEdgeStyle;rounded=0;orthogonalLoop=1;jettySize=auto;html=1;fillColor=#0050ef;strokeColor=#001DBC;dashed=1;dashPattern=8 8;entryX=0;entryY=0.5;entryDx=0;entryDy=0;exitX=0.5;exitY=0;exitDx=0;exitDy=0;" parent="MUTQS57lobD5BNV4apzr-1" source="MUTQS57lobD5BNV4apzr-23" target="MUTQS57lobD5BNV4apzr-13" edge="1">
          <mxGeometry relative="1" as="geometry">
            <mxPoint x="206.92500000000018" y="246.81000000000017" as="targetPoint" />
            <Array as="points">
              <mxPoint x="700" y="270" />
              <mxPoint x="700" y="190" />
              <mxPoint x="230" y="190" />
              <mxPoint x="230" y="300" />
            </Array>
          </mxGeometry>
        </mxCell>
        <mxCell id="MUTQS57lobD5BNV4apzr-23" value="" style="shape=trapezoid;perimeter=trapezoidPerimeter;whiteSpace=wrap;html=1;fixedSize=1;rotation=90;" parent="MUTQS57lobD5BNV4apzr-1" vertex="1">
          <mxGeometry x="600" y="254.94" width="120" height="30" as="geometry" />
        </mxCell>
        <mxCell id="MUTQS57lobD5BNV4apzr-24" style="edgeStyle=orthogonalEdgeStyle;rounded=0;orthogonalLoop=1;jettySize=auto;html=1;fillColor=#0050ef;strokeColor=#001DBC;dashed=1;dashPattern=8 8;" parent="MUTQS57lobD5BNV4apzr-1" source="MUTQS57lobD5BNV4apzr-13" edge="1">
          <mxGeometry relative="1" as="geometry">
            <mxPoint x="560" y="300" as="targetPoint" />
          </mxGeometry>
        </mxCell>
        <mxCell id="MUTQS57lobD5BNV4apzr-25" value="+1" style="rounded=0;whiteSpace=wrap;html=1;" parent="MUTQS57lobD5BNV4apzr-1" vertex="1">
          <mxGeometry x="560" y="284.94000000000005" width="40" height="30" as="geometry" />
        </mxCell>
        <mxCell id="MUTQS57lobD5BNV4apzr-26" style="edgeStyle=orthogonalEdgeStyle;rounded=0;orthogonalLoop=1;jettySize=auto;html=1;entryX=0.25;entryY=1;entryDx=0;entryDy=0;dashed=1;dashPattern=8 8;fillColor=#0050ef;strokeColor=#001DBC;" parent="MUTQS57lobD5BNV4apzr-1" source="MUTQS57lobD5BNV4apzr-27" target="MUTQS57lobD5BNV4apzr-23" edge="1">
          <mxGeometry relative="1" as="geometry" />
        </mxCell>
        <mxCell id="MUTQS57lobD5BNV4apzr-27" value="0" style="rounded=0;whiteSpace=wrap;html=1;" parent="MUTQS57lobD5BNV4apzr-1" vertex="1">
          <mxGeometry x="560" y="224.94000000000005" width="40" height="30" as="geometry" />
        </mxCell>
        <mxCell id="MUTQS57lobD5BNV4apzr-28" style="edgeStyle=orthogonalEdgeStyle;rounded=0;orthogonalLoop=1;jettySize=auto;html=1;entryX=0;entryY=0.5;entryDx=0;entryDy=0;fillColor=#e51400;strokeColor=#B20000;dashed=1;dashPattern=8 8;" parent="MUTQS57lobD5BNV4apzr-1" target="MUTQS57lobD5BNV4apzr-34" edge="1">
          <mxGeometry relative="1" as="geometry">
            <mxPoint x="400" y="169.9999999999999" as="sourcePoint" />
            <Array as="points">
              <mxPoint x="400" y="80" />
              <mxPoint x="285" y="80" />
            </Array>
          </mxGeometry>
        </mxCell>
        <mxCell id="MUTQS57lobD5BNV4apzr-29" value="" style="endArrow=none;html=1;rounded=0;" parent="MUTQS57lobD5BNV4apzr-1" edge="1">
          <mxGeometry width="50" height="50" relative="1" as="geometry">
            <mxPoint y="110" as="sourcePoint" />
            <mxPoint x="1050" y="110" as="targetPoint" />
          </mxGeometry>
        </mxCell>
        <mxCell id="MUTQS57lobD5BNV4apzr-31" value="1" style="text;html=1;strokeColor=none;fillColor=none;align=center;verticalAlign=middle;whiteSpace=wrap;rounded=0;" parent="MUTQS57lobD5BNV4apzr-1" vertex="1">
          <mxGeometry x="126.48" y="401.02" width="25" height="20" as="geometry" />
        </mxCell>
        <mxCell id="MUTQS57lobD5BNV4apzr-33" style="edgeStyle=orthogonalEdgeStyle;rounded=0;orthogonalLoop=1;jettySize=auto;html=1;entryX=0;entryY=0.5;entryDx=0;entryDy=0;fillColor=#0050ef;strokeColor=#001DBC;dashed=1;dashPattern=8 8;" parent="MUTQS57lobD5BNV4apzr-1" source="MUTQS57lobD5BNV4apzr-34" target="MUTQS57lobD5BNV4apzr-15" edge="1">
          <mxGeometry relative="1" as="geometry" />
        </mxCell>
        <mxCell id="MUTQS57lobD5BNV4apzr-34" value="" style="shape=trapezoid;perimeter=trapezoidPerimeter;whiteSpace=wrap;html=1;fixedSize=1;rotation=90;" parent="MUTQS57lobD5BNV4apzr-1" vertex="1">
          <mxGeometry x="225.37" y="440" width="120" height="40" as="geometry" />
        </mxCell>
        <mxCell id="MUTQS57lobD5BNV4apzr-35" value="1" style="text;html=1;strokeColor=none;fillColor=none;align=center;verticalAlign=middle;whiteSpace=wrap;rounded=0;" parent="MUTQS57lobD5BNV4apzr-1" vertex="1">
          <mxGeometry x="272.87" y="420" width="25" height="20" as="geometry" />
        </mxCell>
        <mxCell id="MUTQS57lobD5BNV4apzr-36" value="0" style="text;html=1;strokeColor=none;fillColor=none;align=center;verticalAlign=middle;whiteSpace=wrap;rounded=0;" parent="MUTQS57lobD5BNV4apzr-1" vertex="1">
          <mxGeometry x="272.87" y="480" width="25" height="20" as="geometry" />
        </mxCell>
        <mxCell id="MUTQS57lobD5BNV4apzr-37" style="edgeStyle=orthogonalEdgeStyle;rounded=0;orthogonalLoop=1;jettySize=auto;html=1;fillColor=#0050ef;strokeColor=#001DBC;dashed=1;dashPattern=8 8;" parent="MUTQS57lobD5BNV4apzr-1" edge="1">
          <mxGeometry relative="1" as="geometry">
            <mxPoint x="1000" y="320" as="targetPoint" />
            <mxPoint x="1000" y="460" as="sourcePoint" />
          </mxGeometry>
        </mxCell>
        <mxCell id="MUTQS57lobD5BNV4apzr-39" style="edgeStyle=orthogonalEdgeStyle;rounded=0;orthogonalLoop=1;jettySize=auto;html=1;exitX=1;exitY=0.5;exitDx=0;exitDy=0;fillColor=#0050ef;strokeColor=#001DBC;dashed=1;dashPattern=8 8;endArrow=oval;endFill=1;" parent="MUTQS57lobD5BNV4apzr-1" source="MUTQS57lobD5BNV4apzr-3" edge="1">
          <mxGeometry relative="1" as="geometry">
            <mxPoint x="1000" y="460" as="targetPoint" />
          </mxGeometry>
        </mxCell>
        <mxCell id="ja0uh_aqOehtbZmpV9VC-1" style="edgeStyle=orthogonalEdgeStyle;rounded=0;orthogonalLoop=1;jettySize=auto;html=1;entryX=0.5;entryY=1;entryDx=0;entryDy=0;fillColor=#0050ef;strokeColor=#001DBC;dashed=1;dashPattern=8 8;" parent="MUTQS57lobD5BNV4apzr-1" source="MUTQS57lobD5BNV4apzr-43" target="MUTQS57lobD5BNV4apzr-52" edge="1">
          <mxGeometry relative="1" as="geometry">
            <Array as="points">
              <mxPoint x="1000" y="250" />
              <mxPoint x="790" y="250" />
            </Array>
          </mxGeometry>
        </mxCell>
        <mxCell id="MUTQS57lobD5BNV4apzr-43" value="" style="shape=orEllipse;perimeter=ellipsePerimeter;whiteSpace=wrap;html=1;backgroundOutline=1;" parent="MUTQS57lobD5BNV4apzr-1" vertex="1">
          <mxGeometry x="980" y="279.94000000000005" width="40" height="40" as="geometry" />
        </mxCell>
        <mxCell id="MUTQS57lobD5BNV4apzr-44" value="1" style="text;html=1;strokeColor=none;fillColor=none;align=center;verticalAlign=middle;whiteSpace=wrap;rounded=0;" parent="MUTQS57lobD5BNV4apzr-1" vertex="1">
          <mxGeometry x="647.5" y="229.94" width="25" height="20" as="geometry" />
        </mxCell>
        <mxCell id="MUTQS57lobD5BNV4apzr-45" value="0" style="text;html=1;strokeColor=none;fillColor=none;align=center;verticalAlign=middle;whiteSpace=wrap;rounded=0;" parent="MUTQS57lobD5BNV4apzr-1" vertex="1">
          <mxGeometry x="647.5" y="289.94000000000005" width="25" height="20" as="geometry" />
        </mxCell>
        <mxCell id="MUTQS57lobD5BNV4apzr-46" value="0" style="text;html=1;strokeColor=none;fillColor=none;align=center;verticalAlign=middle;whiteSpace=wrap;rounded=0;" parent="MUTQS57lobD5BNV4apzr-1" vertex="1">
          <mxGeometry x="126.49000000000001" y="351.02" width="25" height="20" as="geometry" />
        </mxCell>
        <mxCell id="MUTQS57lobD5BNV4apzr-52" value="subkey" style="whiteSpace=wrap;html=1;aspect=fixed;rounded=1;" parent="MUTQS57lobD5BNV4apzr-1" vertex="1">
          <mxGeometry x="750" y="130" width="80" height="80" as="geometry" />
        </mxCell>
        <mxCell id="MUTQS57lobD5BNV4apzr-53" value="== 0 ?" style="rhombus;whiteSpace=wrap;html=1;" parent="MUTQS57lobD5BNV4apzr-1" vertex="1">
          <mxGeometry x="370" y="160" width="60" height="60" as="geometry" />
        </mxCell>
        <mxCell id="MUTQS57lobD5BNV4apzr-54" value="== 9 ?" style="rhombus;whiteSpace=wrap;html=1;" parent="MUTQS57lobD5BNV4apzr-1" vertex="1">
          <mxGeometry x="470" y="269.94" width="60" height="60" as="geometry" />
        </mxCell>
        <mxCell id="ja0uh_aqOehtbZmpV9VC-3" style="edgeStyle=orthogonalEdgeStyle;rounded=0;orthogonalLoop=1;jettySize=auto;html=1;entryX=0;entryY=0.5;entryDx=0;entryDy=0;fillColor=#0050ef;strokeColor=#001DBC;dashed=1;dashPattern=8 8;" parent="MUTQS57lobD5BNV4apzr-1" source="ja0uh_aqOehtbZmpV9VC-2" target="MUTQS57lobD5BNV4apzr-43" edge="1">
          <mxGeometry relative="1" as="geometry" />
        </mxCell>
        <mxCell id="ja0uh_aqOehtbZmpV9VC-2" value="ROUND CONSTANT" style="rounded=0;whiteSpace=wrap;html=1;" parent="MUTQS57lobD5BNV4apzr-1" vertex="1">
          <mxGeometry x="740" y="269.85" width="130" height="60.09" as="geometry" />
        </mxCell>
        <mxCell id="MUTQS57lobD5BNV4apzr-56" value="" style="endArrow=classic;html=1;rounded=0;endFill=1;dashed=1;dashPattern=8 8;fillColor=#e51400;strokeColor=#B20000;entryX=0;entryY=0.5;entryDx=0;entryDy=0;" parent="1" target="MUTQS57lobD5BNV4apzr-12" edge="1">
          <mxGeometry width="50" height="50" relative="1" as="geometry">
            <mxPoint x="330" y="320" as="sourcePoint" />
            <mxPoint x="300" y="280" as="targetPoint" />
            <Array as="points">
              <mxPoint x="469" y="320" />
            </Array>
          </mxGeometry>
        </mxCell>
        <mxCell id="MUTQS57lobD5BNV4apzr-58" value="&lt;font style=&quot;font-size: 16px;&quot;&gt;i_init&lt;/font&gt;" style="text;html=1;strokeColor=none;fillColor=none;align=center;verticalAlign=middle;whiteSpace=wrap;rounded=0;" parent="1" vertex="1">
          <mxGeometry x="220" y="290" width="50" height="30" as="geometry" />
        </mxCell>
        <mxCell id="MUTQS57lobD5BNV4apzr-64" value="&lt;font style=&quot;font-size: 16px;&quot;&gt;i_key&lt;/font&gt;" style="text;html=1;strokeColor=none;fillColor=none;align=center;verticalAlign=middle;whiteSpace=wrap;rounded=0;" parent="1" vertex="1">
          <mxGeometry x="220" y="620" width="60" height="30" as="geometry" />
        </mxCell>
        <mxCell id="MUTQS57lobD5BNV4apzr-65" value="" style="endArrow=classic;html=1;rounded=0;" parent="1" edge="1">
          <mxGeometry width="50" height="50" relative="1" as="geometry">
            <mxPoint x="220" y="650" as="sourcePoint" />
            <mxPoint x="330" y="650" as="targetPoint" />
          </mxGeometry>
        </mxCell>
        <mxCell id="MUTQS57lobD5BNV4apzr-67" value="" style="endArrow=classic;html=1;rounded=0;dashed=1;dashPattern=8 8;fillColor=#0050ef;strokeColor=#001DBC;entryX=0.75;entryY=1;entryDx=0;entryDy=0;" parent="1" target="MUTQS57lobD5BNV4apzr-12" edge="1">
          <mxGeometry width="50" height="50" relative="1" as="geometry">
            <mxPoint x="330" y="651" as="sourcePoint" />
            <mxPoint x="280" y="650" as="targetPoint" />
            <Array as="points" />
          </mxGeometry>
        </mxCell>
        <mxCell id="MUTQS57lobD5BNV4apzr-70" value="" style="endArrow=classic;html=1;rounded=0;exitX=0;exitY=1;exitDx=0;exitDy=0;" parent="1" source="MUTQS57lobD5BNV4apzr-58" edge="1">
          <mxGeometry width="50" height="50" relative="1" as="geometry">
            <mxPoint x="240" y="320" as="sourcePoint" />
            <mxPoint x="330" y="320" as="targetPoint" />
          </mxGeometry>
        </mxCell>
        <mxCell id="MUTQS57lobD5BNV4apzr-73" value="" style="endArrow=classic;html=1;rounded=0;entryX=0;entryY=0.5;entryDx=0;entryDy=0;fillColor=#e51400;strokeColor=#B20000;dashed=1;dashPattern=8 8;startArrow=none;startFill=0;" parent="1" target="MUTQS57lobD5BNV4apzr-23" edge="1">
          <mxGeometry width="50" height="50" relative="1" as="geometry">
            <mxPoint x="990" y="320" as="sourcePoint" />
            <mxPoint x="1020" y="400" as="targetPoint" />
          </mxGeometry>
        </mxCell>
        <mxCell id="MUTQS57lobD5BNV4apzr-78" value="" style="endArrow=classic;html=1;rounded=0;" parent="1" edge="1">
          <mxGeometry width="50" height="50" relative="1" as="geometry">
            <mxPoint x="1380" y="320" as="sourcePoint" />
            <mxPoint x="1500" y="320" as="targetPoint" />
          </mxGeometry>
        </mxCell>
        <mxCell id="MUTQS57lobD5BNV4apzr-79" value="" style="endArrow=classic;html=1;rounded=0;" parent="1" edge="1">
          <mxGeometry width="50" height="50" relative="1" as="geometry">
            <mxPoint x="1380" y="410" as="sourcePoint" />
            <mxPoint x="1500" y="410" as="targetPoint" />
            <Array as="points">
              <mxPoint x="1490" y="410" />
            </Array>
          </mxGeometry>
        </mxCell>
        <mxCell id="MUTQS57lobD5BNV4apzr-80" value="o_subkey_valid" style="text;html=1;strokeColor=none;fillColor=none;align=center;verticalAlign=middle;whiteSpace=wrap;rounded=0;" parent="1" vertex="1">
          <mxGeometry x="1380" y="290" width="100" height="30" as="geometry" />
        </mxCell>
        <mxCell id="MUTQS57lobD5BNV4apzr-81" value="o_subkey" style="text;html=1;strokeColor=none;fillColor=none;align=center;verticalAlign=middle;whiteSpace=wrap;rounded=0;" parent="1" vertex="1">
          <mxGeometry x="1380" y="380" width="80" height="30" as="geometry" />
        </mxCell>
        <mxCell id="MUTQS57lobD5BNV4apzr-83" value="" style="endArrow=none;html=1;rounded=0;" parent="1" edge="1">
          <mxGeometry width="50" height="50" relative="1" as="geometry">
            <mxPoint x="1470" y="420" as="sourcePoint" />
            <mxPoint x="1490" y="400" as="targetPoint" />
          </mxGeometry>
        </mxCell>
        <mxCell id="MUTQS57lobD5BNV4apzr-84" value="" style="endArrow=none;html=1;rounded=0;" parent="1" edge="1">
          <mxGeometry width="50" height="50" relative="1" as="geometry">
            <mxPoint x="290" y="660" as="sourcePoint" />
            <mxPoint x="310" y="640" as="targetPoint" />
          </mxGeometry>
        </mxCell>
        <mxCell id="MUTQS57lobD5BNV4apzr-88" value="512" style="text;html=1;strokeColor=none;fillColor=none;align=center;verticalAlign=middle;whiteSpace=wrap;rounded=0;" parent="1" vertex="1">
          <mxGeometry x="270" y="610" width="60" height="30" as="geometry" />
        </mxCell>
        <mxCell id="MUTQS57lobD5BNV4apzr-90" value="512" style="text;html=1;strokeColor=none;fillColor=none;align=center;verticalAlign=middle;whiteSpace=wrap;rounded=0;" parent="1" vertex="1">
          <mxGeometry x="1450" y="380" width="60" height="30" as="geometry" />
        </mxCell>
        <mxCell id="MUTQS57lobD5BNV4apzr-50" style="edgeStyle=orthogonalEdgeStyle;rounded=0;orthogonalLoop=1;jettySize=auto;html=1;fillColor=#0050ef;strokeColor=#001DBC;dashed=1;dashPattern=8 8;exitX=1;exitY=0.5;exitDx=0;exitDy=0;entryX=0;entryY=1;entryDx=0;entryDy=0;" parent="1" source="MUTQS57lobD5BNV4apzr-52" target="MUTQS57lobD5BNV4apzr-81" edge="1">
          <mxGeometry relative="1" as="geometry">
            <mxPoint x="1340" y="410" as="targetPoint" />
            <mxPoint x="1290" y="459.91666666666674" as="sourcePoint" />
            <Array as="points">
              <mxPoint x="1360" y="410" />
              <mxPoint x="1360" y="410" />
            </Array>
          </mxGeometry>
        </mxCell>
        <mxCell id="ja0uh_aqOehtbZmpV9VC-4" style="edgeStyle=orthogonalEdgeStyle;rounded=0;orthogonalLoop=1;jettySize=auto;html=1;exitX=0.5;exitY=0;exitDx=0;exitDy=0;entryX=0;entryY=1;entryDx=0;entryDy=0;fillColor=#e51400;strokeColor=#B20000;dashed=1;dashPattern=8 8;" parent="1" source="MUTQS57lobD5BNV4apzr-52" target="MUTQS57lobD5BNV4apzr-80" edge="1">
          <mxGeometry relative="1" as="geometry">
            <Array as="points">
              <mxPoint x="1120" y="320" />
            </Array>
          </mxGeometry>
        </mxCell>
      </root>
    </mxGraphModel>
  </diagram>
  <diagram id="X8rIIBKNw4CUDI0ec9Ym" name="KEY_EXPANSION_FSM">
    <mxGraphModel dx="1036" dy="654" grid="1" gridSize="10" guides="1" tooltips="1" connect="1" arrows="1" fold="1" page="1" pageScale="1" pageWidth="850" pageHeight="1100" math="0" shadow="0">
      <root>
        <mxCell id="0" />
        <mxCell id="1" parent="0" />
        <mxCell id="R4MkzPBS1UCZIAr966w7-1" style="rounded=0;orthogonalLoop=1;jettySize=auto;html=1;exitX=1;exitY=1;exitDx=0;exitDy=0;entryX=0.5;entryY=0;entryDx=0;entryDy=0;" parent="1" source="HciNig2VoE9Gl6md2FE5-1" target="HciNig2VoE9Gl6md2FE5-2" edge="1">
          <mxGeometry relative="1" as="geometry" />
        </mxCell>
        <mxCell id="oFKROTtlJc-ZTN6yMpQ_-1" style="edgeStyle=orthogonalEdgeStyle;rounded=0;orthogonalLoop=1;jettySize=auto;html=1;exitX=1;exitY=0.5;exitDx=0;exitDy=0;endArrow=none;endFill=0;" parent="1" source="HciNig2VoE9Gl6md2FE5-1" edge="1">
          <mxGeometry relative="1" as="geometry">
            <mxPoint x="590" y="280" as="targetPoint" />
          </mxGeometry>
        </mxCell>
        <mxCell id="HciNig2VoE9Gl6md2FE5-1" value="IDLE" style="ellipse;whiteSpace=wrap;html=1;" parent="1" vertex="1">
          <mxGeometry x="365" y="240" width="120" height="80" as="geometry" />
        </mxCell>
        <mxCell id="R4MkzPBS1UCZIAr966w7-2" style="rounded=0;orthogonalLoop=1;jettySize=auto;html=1;exitX=0;exitY=0.5;exitDx=0;exitDy=0;entryX=1;entryY=0.5;entryDx=0;entryDy=0;" parent="1" source="HciNig2VoE9Gl6md2FE5-2" target="DTZx9TBychFQdFpm0s7a-1" edge="1">
          <mxGeometry relative="1" as="geometry" />
        </mxCell>
        <mxCell id="R4MkzPBS1UCZIAr966w7-7" style="edgeStyle=orthogonalEdgeStyle;rounded=0;orthogonalLoop=1;jettySize=auto;html=1;endArrow=none;endFill=0;" parent="1" source="HciNig2VoE9Gl6md2FE5-2" edge="1">
          <mxGeometry relative="1" as="geometry">
            <mxPoint x="720" y="450" as="targetPoint" />
          </mxGeometry>
        </mxCell>
        <mxCell id="HciNig2VoE9Gl6md2FE5-2" value="ROUND" style="ellipse;whiteSpace=wrap;html=1;" parent="1" vertex="1">
          <mxGeometry x="520" y="410" width="120" height="80" as="geometry" />
        </mxCell>
        <mxCell id="R4MkzPBS1UCZIAr966w7-3" style="rounded=0;orthogonalLoop=1;jettySize=auto;html=1;entryX=0;entryY=1;entryDx=0;entryDy=0;" parent="1" source="DTZx9TBychFQdFpm0s7a-1" target="HciNig2VoE9Gl6md2FE5-1" edge="1">
          <mxGeometry relative="1" as="geometry" />
        </mxCell>
        <mxCell id="R4MkzPBS1UCZIAr966w7-4" style="edgeStyle=orthogonalEdgeStyle;rounded=0;orthogonalLoop=1;jettySize=auto;html=1;endArrow=none;endFill=0;entryX=0;entryY=0;entryDx=0;entryDy=0;" parent="1" source="DTZx9TBychFQdFpm0s7a-1" target="R4MkzPBS1UCZIAr966w7-13" edge="1">
          <mxGeometry relative="1" as="geometry">
            <mxPoint x="50" y="450" as="targetPoint" />
            <Array as="points">
              <mxPoint x="230" y="450" />
              <mxPoint x="230" y="450" />
            </Array>
          </mxGeometry>
        </mxCell>
        <mxCell id="DTZx9TBychFQdFpm0s7a-1" value="WAIT" style="ellipse;whiteSpace=wrap;html=1;" parent="1" vertex="1">
          <mxGeometry x="230" y="410" width="120" height="80" as="geometry" />
        </mxCell>
        <mxCell id="R4MkzPBS1UCZIAr966w7-5" value="&lt;span style=&quot;font-size: 14px;&quot;&gt;round = round + 1&lt;/span&gt;" style="text;html=1;strokeColor=none;fillColor=none;align=center;verticalAlign=middle;whiteSpace=wrap;rounded=0;" parent="1" vertex="1">
          <mxGeometry x="100" y="390" width="130" height="30" as="geometry" />
        </mxCell>
        <mxCell id="R4MkzPBS1UCZIAr966w7-6" value="&lt;span style=&quot;font-size: 14px;&quot;&gt;o_subkey_valid = 1&lt;/span&gt;" style="text;html=1;strokeColor=none;fillColor=none;align=center;verticalAlign=middle;whiteSpace=wrap;rounded=0;" parent="1" vertex="1">
          <mxGeometry x="90" y="420" width="140" height="30" as="geometry" />
        </mxCell>
        <mxCell id="R4MkzPBS1UCZIAr966w7-8" value="&lt;span style=&quot;font-size: 14px;&quot;&gt;data_in&amp;nbsp; = data_out&lt;/span&gt;" style="text;html=1;strokeColor=none;fillColor=none;align=center;verticalAlign=middle;whiteSpace=wrap;rounded=0;" parent="1" vertex="1">
          <mxGeometry x="640" y="420" width="130" height="30" as="geometry" />
        </mxCell>
        <mxCell id="R4MkzPBS1UCZIAr966w7-10" value="&lt;span style=&quot;font-size: 14px;&quot;&gt;data_in&amp;nbsp; = 0&lt;/span&gt;" style="text;html=1;strokeColor=none;fillColor=none;align=center;verticalAlign=middle;whiteSpace=wrap;rounded=0;" parent="1" vertex="1">
          <mxGeometry x="485" y="250" width="95" height="30" as="geometry" />
        </mxCell>
        <mxCell id="R4MkzPBS1UCZIAr966w7-11" value="" style="endArrow=classic;html=1;rounded=0;entryX=0;entryY=0;entryDx=0;entryDy=0;exitX=0.5;exitY=1;exitDx=0;exitDy=0;" parent="1" source="R4MkzPBS1UCZIAr966w7-12" target="HciNig2VoE9Gl6md2FE5-1" edge="1">
          <mxGeometry width="50" height="50" relative="1" as="geometry">
            <mxPoint x="370" y="230" as="sourcePoint" />
            <mxPoint x="420" y="310" as="targetPoint" />
          </mxGeometry>
        </mxCell>
        <mxCell id="R4MkzPBS1UCZIAr966w7-12" value="&lt;font style=&quot;font-size: 14px;&quot;&gt;i_rstn&lt;/font&gt;" style="text;html=1;strokeColor=none;fillColor=none;align=center;verticalAlign=middle;whiteSpace=wrap;rounded=0;" parent="1" vertex="1">
          <mxGeometry x="330" y="190" width="60" height="30" as="geometry" />
        </mxCell>
        <mxCell id="R4MkzPBS1UCZIAr966w7-13" value="&lt;span style=&quot;font-size: 14px;&quot;&gt;data_out = key_out ^ RC&lt;/span&gt;" style="text;html=1;strokeColor=none;fillColor=none;align=center;verticalAlign=middle;whiteSpace=wrap;rounded=0;" parent="1" vertex="1">
          <mxGeometry x="60" y="450" width="170" height="30" as="geometry" />
        </mxCell>
      </root>
    </mxGraphModel>
  </diagram>
</mxfile>
